<svg id="ARTWORK" xmlns="http://www.w3.org/2000/svg" xmlns:xlink="http://www.w3.org/1999/xlink" viewBox="0 0 84 64"><defs><style>.cls-1{fill:none;}.cls-2{clip-path:url(#clip-path);}.cls-3{fill:#f80000;}.cls-4{fill:#fff;}</style><clipPath id="clip-path"><rect class="cls-1" width="84" height="64" rx="7.60326"/></clipPath></defs><title>canada</title><g id="FLAT"><g id="FLAGS-2" data-name="FLAGS"><g class="cls-2"><rect class="cls-3" x="-22" width="128" height="64"/><rect class="cls-4" x="10" width="64" height="64"/><path class="cls-3" d="M41.99807,6l-4.19062,8.1443c-.47668.88514-1.33018.8029-2.18156.30648l-3.03482-1.63624,2.2638,12.51157c.47475,2.28322-1.05382,2.28322-1.80491,1.29571l-5.29652-6.17568-.8593,3.1341a1.02528,1.02528,0,0,1-1.18963.74294l-6.69889-1.46575,1.761,6.66056c.37641,1.48137.66906,2.09839-.3807,2.489L18,33.17229l11.52814,9.75654a1.60783,1.60783,0,0,1,.52295,1.632L29.04163,48.011c3.97018-.47675,7.53183-.90293,11.49816-1.37968.35263-.00428.93963.31056.93748.73288L40.94854,60H42.879l-.30421-12.6118c-.00213-.42063.52915-.76115.88136-.75687,3.97061.47675,7.52818.90293,11.49838,1.37968l-1.00948-3.45023a1.60927,1.60927,0,0,1,.52488-1.632L66,33.17229,63.61214,32.007c-1.05188-.39065-.75711-1.00767-.3809-2.489l1.75928-6.66056-6.69694,1.46575a1.01992,1.01992,0,0,1-1.18772-.74294l-.86123-3.1341-5.2963,6.17568c-.75322.98751-2.27986.98751-1.803-1.29571L51.4051,12.81454l-3.0327,1.63624c-.85352.49642-1.707.57866-2.17963-.30648Z"/></g></g></g></svg>