<?xml version="1.0" encoding="utf-8"?>
<!-- Generator: Adobe Illustrator 23.0.5, SVG Export Plug-In . SVG Version: 6.00 Build 0)  -->
<svg version="1.1" id="Layer_1" xmlns="http://www.w3.org/2000/svg" xmlns:xlink="http://www.w3.org/1999/xlink" x="0px" y="0px"
	 viewBox="0 0 64 64" style="enable-background:new 0 0 64 64;" xml:space="preserve">
<style type="text/css">
	.st0{fill:#488AFF;}
	.st1{fill:#689F38;}
</style>
<path class="st0" d="M56.8,29.3c-1.2,1.2-2.5,2.2-3.8,3.3c-0.8,0.7-1.4,1.4-1.8,2.3c-0.7,1.6-1.5,3.1-2.2,4.7
	c-0.2,0.3-0.2,0.6,0,0.9c1,2.1-0.4,4.5-2.7,4.8c-0.3,0-0.4,0.2-0.4,0.4c-0.3,1.7-1.3,2.7-3,3c-0.3,0-0.3,0.2-0.4,0.4
	c-0.3,1.8-1.3,2.7-3.1,3c-0.3,0-0.3,0.2-0.4,0.5C38.7,54,38,55,36.7,55.5c-1.2,0.4-2.3,0.2-3.4-0.6c-0.3-0.2-0.5-0.2-0.7,0
	c-2.1,2-5,1.3-5.9-1.5c-0.1-0.3-0.2-0.3-0.5-0.4c-1.9-0.1-3.1-1.1-3.5-3c-0.1-0.3-0.2-0.5-0.5-0.5c-1.8-0.3-2.9-1.6-2.9-3.5
	c0-0.3-0.1-0.4-0.3-0.4c-2.5-0.7-3.4-3.2-2-5.4c0.2-0.2,0.1-0.4,0-0.6c-1.3-1.7-2.5-3.5-3.9-5.2c-0.7-0.9-1.7-1.5-2.5-2.2
	c-0.7-0.6-1.4-1.2-2.2-1.9c-0.6-0.5-0.7-1-0.2-1.7c1.9-2.3,3.8-4.7,5.7-7c1-1.3,2-2.5,3-3.8c0.6-0.7,1-0.8,1.8-0.3
	c1.5,1,3.1,1.9,4.6,2.9c0.4,0.2,0.7,0.4,1.2,0.5c1.4,0.4,2.9,0.8,4.3,1.2c0.4,0.1,0.8,0.1,1.2,0c1.4-0.4,2.8-0.8,4.2-1.2
	c0.5-0.2,1-0.2,1.6-0.2c1.9,0,3.7,0,5.6,0c0.4,0,0.7-0.1,1-0.3c1.5-1,3-1.9,4.5-2.9c0.8-0.5,1.2-0.4,1.8,0.3c2.7,3.5,5.3,6.9,8,10.4
	c0,0,0.1,0.1,0.1,0.1C56.8,28.8,56.8,29.1,56.8,29.3z M24.8,40.5c1.7-0.2,3.4,1.2,3.6,3c0,0.3,0.1,0.5,0.5,0.5c0.1,0,0.3,0,0.4,0.1
	c1.6,0.4,2.6,1.7,2.6,3.5c0,0.4,0.1,0.6,0.5,0.7c0.3,0.1,0.6,0.2,0.9,0.4c1.3,0.9,1.7,2.5,1.2,4c-0.1,0.2-0.2,0.3,0,0.5
	c0.4,0.4,1,0.6,1.6,0.4c0.5-0.2,0.9-0.7,0.9-1.3c0-0.5-0.2-0.8-0.5-1.1c-0.7-0.7-1.4-1.4-2.1-2.2c-0.3-0.3-0.4-0.6-0.3-1
	c0.1-0.4,0.4-0.6,0.8-0.7c0.4-0.1,0.7,0.1,1,0.4c0.7,0.7,1.4,1.5,2.2,2.2c0.5,0.4,1,0.5,1.6,0.3c0.5-0.2,0.8-0.7,0.8-1.4
	c0-0.5-0.3-0.8-0.5-1.1c-1.3-1.3-2.6-2.7-3.9-4c-0.5-0.5-0.5-1.1,0-1.5c0.4-0.4,1-0.4,1.4,0.1c0.1,0.1,0.2,0.2,0.4,0.4
	c1.2,1.2,2.4,2.4,3.6,3.6c0.4,0.4,0.8,0.6,1.4,0.5c1.2-0.3,1.5-1.6,0.6-2.5c-1.9-2-3.9-3.9-5.8-5.9c-0.1-0.1-0.3-0.3-0.4-0.5
	c-0.3-0.4-0.2-0.9,0.2-1.3c0.4-0.3,0.9-0.4,1.3,0c0.1,0.1,0.3,0.3,0.4,0.4c1.9,1.9,3.9,3.9,5.8,5.8c0.7,0.7,1.5,0.7,2.1,0.1
	c0.5-0.6,0.5-1.5-0.1-2.1c-3.6-3.6-7.3-7.3-10.9-10.9c-0.2-0.2-0.5-0.3-0.8-0.4c-1.1-0.1-2.1-0.1-3.2-0.2c-0.5,0-0.7,0.1-0.9,0.5
	c-0.7,1.2-1.4,2.5-2.1,3.7c-0.7,1.2-1.8,1.7-3.1,1.7c-1.4-0.1-2.4-0.8-3-2.1c-0.4-1-0.4-2,0.2-3c1.1-2,2.3-4,3.4-6
	c0.2-0.4,0.1-0.5-0.3-0.6c-0.6-0.1-1.2-0.3-1.7-0.5c-0.4-0.1-0.6,0-0.8,0.3c-2.7,3.3-5.4,6.7-8.2,10c-0.2,0.3-0.2,0.5,0,0.7
	c1,1.4,2.1,2.8,3.1,4.2c0.2,0.3,0.4,0.3,0.6,0.1c2-1.3,4.4-0.4,5.1,1.8C24.3,40.5,24.5,40.6,24.8,40.5z M38.4,22.8
	c-0.9,0-1.9,0-2.8,0c-0.2,0-0.4,0-0.7,0.1c-1.7,0.5-3.5,1.1-5.2,1.5c-1,0.2-1.7,0.8-2.2,1.7c-0.9,1.7-1.9,3.4-2.8,5.1
	c-0.3,0.5-0.2,1,0.1,1.5c0.3,0.5,0.8,0.6,1.3,0.6c0.5-0.1,0.9-0.4,1.1-0.9c0.8-1.5,1.7-2.9,2.5-4.4c0.3-0.5,0.7-0.7,1.3-0.7
	c1.5,0.1,2.9,0.2,4.4,0.3c0.6,0,1.1,0.2,1.5,0.7c3.3,3.3,6.6,6.6,9.9,9.9c0.4,0.4,0.4,0.4,0.6-0.1c0.7-1.5,1.4-3,2.2-4.5
	c0.1-0.2,0.1-0.4,0-0.6c-2.6-3.3-5.1-6.5-7.7-9.8c-0.2-0.2-0.4-0.3-0.7-0.3C40.3,22.8,39.3,22.8,38.4,22.8z M21.9,22.1
	c0-0.2-0.1-0.2-0.2-0.2c-1.1-0.7-2.1-1.4-3.2-2c-0.2-0.2-0.4-0.1-0.5,0.1c-2.4,3-4.9,6.1-7.3,9.1c-0.2,0.3-0.2,0.4,0.1,0.6
	c0.9,0.8,1.8,1.5,2.7,2.3c0.2,0.2,0.3,0.2,0.5-0.1c2.6-3.2,5.2-6.3,7.8-9.5C21.8,22.3,21.9,22.2,21.9,22.1z M47.3,19.7
	c-0.1,0-0.1,0.1-0.2,0.1c-1.1,0.7-2.2,1.4-3.3,2.1c-0.2,0.2-0.2,0.3,0,0.5c0.3,0.4,0.7,0.8,1,1.3c2,2.5,4,5,5.9,7.5
	c0.2,0.2,0.3,0.5,0.7,0.2c0.9-0.8,1.8-1.5,2.7-2.3c0.2-0.2,0.2-0.4,0-0.6c-2.2-2.8-4.4-5.7-6.6-8.5C47.6,19.8,47.5,19.7,47.3,19.7z
	 M22.8,47.6c0.4,0,0.7-0.1,0.9-0.3c0.8-0.8,1.6-1.6,2.4-2.4c0.5-0.6,0.4-1.4-0.1-1.9c-0.5-0.5-1.3-0.6-1.9-0.1
	c-0.8,0.8-1.6,1.6-2.4,2.4c-0.4,0.4-0.5,1-0.2,1.6C21.8,47.3,22.3,47.6,22.8,47.6z M26.2,51c0.3,0,0.6-0.1,0.9-0.3
	c0.8-0.8,1.7-1.6,2.4-2.4c0.5-0.5,0.4-1.4-0.1-1.9c-0.5-0.5-1.3-0.6-1.9-0.1c-0.8,0.8-1.6,1.6-2.4,2.4c-0.4,0.4-0.4,1-0.2,1.6
	C25.2,50.8,25.7,51,26.2,51z M19.9,43.7c0.2,0,0.4,0,0.6-0.1c0.7-0.5,1.3-1.1,1.7-1.8c0.3-0.6,0.2-1.3-0.3-1.7
	c-0.5-0.4-1.2-0.5-1.7,0c-0.5,0.4-1,0.9-1.4,1.4c-0.4,0.4-0.4,1-0.1,1.5C18.8,43.4,19.2,43.7,19.9,43.7z M28.7,52.6
	c0,0.6,0.2,1,0.7,1.2c0.5,0.3,1,0.3,1.5-0.1c0.5-0.4,1-0.9,1.5-1.5c0.4-0.5,0.4-1,0.1-1.5c-0.3-0.5-0.8-0.7-1.3-0.7
	c-0.7,0.1-2.3,1.6-2.4,2.3C28.7,52.5,28.7,52.6,28.7,52.6z"/>
<path class="st1" d="M37.6,19.1c-0.4,0-0.7-0.2-0.9-0.5c-0.2-0.3-0.2-0.7,0-1c0.1-0.1,0.2-0.2,0.3-0.4c2.1-2.1,4.1-4.1,6.2-6.2
	c0.3-0.3,0.6-0.5,1.1-0.4c0.7,0.2,1,1,0.6,1.6c-0.1,0.1-0.1,0.1-0.2,0.2c-2.1,2.1-4.2,4.2-6.3,6.3C38.1,18.9,37.9,19.1,37.6,19.1z"
	/>
<path class="st1" d="M27.2,19.1c-0.3,0-0.6-0.1-0.8-0.3c-2.1-2.1-4.3-4.3-6.4-6.4c-0.5-0.5-0.5-1-0.1-1.4c0.4-0.4,1-0.4,1.5,0
	c2.1,2.1,4.3,4.3,6.4,6.4c0.3,0.3,0.4,0.7,0.3,1.2C28,18.9,27.7,19.1,27.2,19.1z"/>
<path class="st1" d="M33.4,15.4c0,0.9,0,1.7,0,2.6c0,0.7-0.4,1.1-1,1.1c-0.6,0-1-0.4-1-1.1c0-1.7,0-3.5,0-5.2c0-0.7,0.4-1.1,1-1.1
	c0.6,0,1,0.4,1,1.1C33.4,13.7,33.4,14.5,33.4,15.4z"/>
<path class="st1" d="M33.4,8.9c0,0.6-0.4,1-1,1c-0.6,0-1-0.4-1-1c0-0.6,0.4-1,1-1C33,7.9,33.4,8.3,33.4,8.9z"/>
</svg>
