<?xml version="1.0" encoding="utf-8"?>
<!-- Generator: Adobe Illustrator 23.0.5, SVG Export Plug-In . SVG Version: 6.00 Build 0)  -->
<svg version="1.1" id="Layer_1" xmlns="http://www.w3.org/2000/svg" xmlns:xlink="http://www.w3.org/1999/xlink" x="0px" y="0px"
	 viewBox="0 0 64 64" style="enable-background:new 0 0 64 64;" xml:space="preserve">
<style type="text/css">
	.st0{fill:#488AFF;}
	.st1{fill:#689F38;}
</style>
<path class="st0" d="M32.9,4.6c0.8,0.2,1.5,0.3,2.2,0.7c2.5,1.2,3.8,3.3,4,6.1c0.2,3.4-0.8,6.5-2.9,9.2c-0.8,1,0,3,1.3,3.4
	c0.6,0.2,1.3,0.1,1.9,0.2c3.6,0.7,6.2,3.8,6.2,7.4c0,1.1,0,2.1,0,3.2c0,0.8-0.4,1.3-1.3,1.3c-2.6,0-18.7,0-21.3,0
	c-0.8,0-1.3-0.4-1.3-1.1c0-0.7,0.5-1.1,1.3-1.1c2.1,0,17.7,0,19.7,0c0.4,0,0.6-0.1,0.6-0.6c0-0.6,0-1.3-0.1-1.9
	c-0.4-3-2.4-4.8-5.4-5c-2.5-0.1-4.2-1.9-4.2-4.5c0,0,0,0,0-0.1c-0.1-1.2,0.2-2.1,1-3c1.8-2.2,2.5-4.9,2.1-7.7
	c-0.2-1.9-1.3-3.2-3.2-3.8c-1.4-0.4-2.9-0.4-4.3,0.1c-1.8,0.6-2.8,2-3,3.8c-0.3,3.1,0.6,5.9,2.6,8.3c0.3,0.4,0.5,0.8,0.5,1.3
	c0,0.8,0.1,1.5-0.1,2.3c-0.5,2-2.1,3.3-4.1,3.4c-2.8,0.1-4.8,1.7-5.4,4.2c-0.2,1-0.2,2-0.2,3c0,0.4,0.3,0.4,0.5,0.4c1.5,0,3,0,4.5,0
	c0.6,0,1.2,0,1.8,0c0.8,0,1.2,0.4,1.2,1.1c0,0.7-0.5,1.1-1.2,1.1c-2.2,0-4.4,0-6.5,0c-0.4,0-0.9,0-1.3,0c-0.8,0-1.2-0.4-1.2-1.2
	c0-1.5-0.2-3,0.1-4.5c0.6-3.6,3.6-6.2,7.3-6.3c2-0.1,2.5-1.5,2.3-3.1c0-0.2-0.2-0.4-0.3-0.5c-2.2-2.9-3.2-6.1-2.8-9.8
	c0.4-3.2,2.5-5.3,5.7-5.9c0.1,0,0.2-0.1,0.4-0.1C31,4.6,32,4.6,32.9,4.6z"/>
<path class="st1" d="M59.1,43.3c-0.7,1-1.6,1.8-2.5,2.6c-1.1,0.9-1.5,1.9-1,3.3c0.3,0.9,0.3,1.9,0.5,2.9c0.1,0.5,0,0.9-0.4,1.2
	c-0.4,0.3-0.9,0.3-1.3,0c-1.3-0.7-2.6-1.3-3.8-2c-0.4-0.2-0.7-0.2-1.1,0c-1.2,0.7-2.5,1.3-3.7,1.9c-0.5,0.3-1,0.4-1.5,0
	c-0.5-0.4-0.5-0.9-0.4-1.4c0.2-1.4,0.5-2.7,0.7-4.1c0.1-0.4,0-0.7-0.4-1c-1-0.9-2-1.9-2.9-2.9c-0.4-0.4-0.7-0.8-0.5-1.3
	c0.2-0.6,0.6-0.8,1.2-0.9c1.4-0.2,2.8-0.4,4.2-0.6c0.4-0.1,0.6-0.2,0.8-0.6c0.6-1.3,1.2-2.5,1.8-3.8c0.2-0.5,0.5-0.8,1.1-0.8
	c0.6,0,0.9,0.4,1.1,0.8c0.6,1.2,1.2,2.5,1.8,3.7c0.2,0.4,0.4,0.6,0.9,0.7c1.4,0.2,2.8,0.4,4.2,0.6c0.5,0.1,0.9,0.3,1.1,0.7
	C59.1,42.7,59.1,43,59.1,43.3z M44.6,43.6c0.6,0.7,1.2,1.4,1.9,2.1c0.5,0.5,0.7,1,0.5,1.6c-0.2,0.9-0.3,1.9-0.5,2.8
	c0.2,0.1,0.4-0.1,0.5-0.1c0.7-0.4,1.5-0.8,2.2-1.2c0.5-0.3,1-0.3,1.5,0c0.7,0.4,1.4,0.8,2.1,1.1c0.1,0.1,0.3,0.2,0.4,0.1
	c0.2-0.1,0.1-0.3,0-0.5c-0.1-0.7-0.2-1.4-0.4-2.1c-0.2-0.7,0-1.3,0.6-1.8c0.7-0.6,1.3-1.4,1.9-2c-0.9-0.1-1.9-0.3-2.9-0.4
	c-0.6-0.1-0.9-0.3-1.2-0.8c-0.4-0.8-0.8-1.6-1.2-2.4c-0.1-0.1-0.1-0.3-0.2-0.2c-0.1,0-0.1,0.2-0.2,0.2c-0.4,0.8-0.8,1.5-1.1,2.3
	c-0.3,0.6-0.7,0.9-1.3,0.9C46.4,43.3,45.5,43.5,44.6,43.6z"/>
<path class="st1" d="M26.1,59.9c-0.7-0.4-0.8-0.9-0.7-1.6c0.2-1.3,0.5-2.7,0.7-4c0.1-0.4,0-0.8-0.3-1.1c-1-0.9-2-1.9-3-2.9
	c-0.4-0.4-0.6-0.7-0.5-1.3c0.2-0.6,0.6-0.8,1.2-0.9c1.4-0.2,2.8-0.4,4.2-0.6c0.4-0.1,0.7-0.2,0.9-0.6c0.6-1.3,1.2-2.5,1.9-3.8
	c0.2-0.5,0.6-0.8,1.1-0.8c0.6,0,0.9,0.4,1.1,0.8c0.6,1.3,1.3,2.5,1.9,3.8c0.2,0.4,0.4,0.5,0.8,0.6c1.4,0.2,2.9,0.4,4.3,0.6
	c0.5,0.1,0.8,0.3,1,0.8c0.2,0.5,0,0.9-0.3,1.2c-1,1-2.1,2-3.1,3c-0.3,0.3-0.4,0.6-0.3,1.1c0.2,1.3,0.5,2.7,0.7,4
	c0.1,0.7,0,1.3-0.7,1.7c-0.3,0-0.6,0-0.9,0c-1.4-0.7-2.8-1.5-4.2-2.2c-0.2-0.1-0.4-0.1-0.7,0c-1.4,0.8-2.8,1.5-4.2,2.3
	C26.7,59.9,26.4,59.9,26.1,59.9z M28,56.7c0.9-0.5,1.7-0.8,2.4-1.3c0.8-0.5,1.5-0.5,2.2,0c0.7,0.4,1.5,0.8,2.3,1.2
	c-0.2-1-0.3-1.9-0.5-2.8c-0.2-0.7,0-1.3,0.6-1.8c0.7-0.6,1.3-1.3,2-2c-1-0.2-2-0.3-2.9-0.4c-0.6-0.1-1-0.4-1.2-0.9
	c-0.4-0.8-0.7-1.5-1.1-2.3c-0.1-0.1-0.1-0.3-0.3-0.3c-0.3,0.6-0.7,1.2-0.9,1.8c-0.4,1.2-1.2,1.7-2.4,1.8c-0.7,0-1.4,0.1-2.1,0.3
	c0.7,0.7,1.4,1.4,2.1,2.1c0.4,0.4,0.6,0.9,0.5,1.5C28.4,54.7,28.2,55.6,28,56.7z"/>
<path class="st1" d="M3.9,42.4C4.1,42,4.5,41.8,5,41.7c1.4-0.2,2.8-0.4,4.2-0.6c0.5-0.1,0.7-0.3,0.9-0.7c0.6-1.2,1.2-2.5,1.8-3.7
	c0.2-0.5,0.6-0.9,1.2-0.9c0.6,0,0.9,0.4,1.2,0.9c0.6,1.2,1.2,2.5,1.8,3.7c0.2,0.4,0.4,0.5,0.8,0.6c1.4,0.2,2.9,0.4,4.3,0.6
	c0.5,0.1,0.9,0.3,1,0.8c0.2,0.5,0,0.9-0.4,1.2c-1.1,1-2.1,2.1-3.2,3.1c-0.3,0.2-0.3,0.5-0.3,0.8c0.3,1.4,0.5,2.8,0.7,4.1
	c0.1,0.5,0.1,1.1-0.4,1.4c-0.5,0.4-1,0.2-1.5,0c-1.2-0.6-2.4-1.3-3.6-1.9c-0.4-0.2-0.7-0.2-1.1,0c-1.3,0.7-2.5,1.3-3.8,2
	c-0.4,0.2-0.9,0.3-1.3,0c-0.4-0.3-0.6-0.7-0.4-1.2c0-0.1,0-0.2,0.1-0.4c0.2-1.3,0.4-2.6,0.7-3.9c0.1-0.4,0-0.6-0.3-0.9
	c-1-1-2-1.9-3-2.9c-0.2-0.2-0.4-0.4-0.6-0.7C3.9,43,3.9,42.7,3.9,42.4z M7.5,43.6c0.7,0.7,1.4,1.5,2.1,2.2c0.4,0.4,0.6,0.8,0.4,1.4
	c-0.2,0.8-0.3,1.7-0.4,2.5c0,0.1-0.1,0.3,0.1,0.4c0.1,0.1,0.2,0,0.3-0.1c0.7-0.4,1.5-0.8,2.2-1.2c0.5-0.3,1-0.3,1.5,0
	c0.8,0.4,1.5,0.8,2.3,1.2c0.1,0.1,0.2,0.2,0.3,0.1c0.1-0.1,0-0.2,0-0.3c-0.1-0.8-0.2-1.6-0.4-2.4c-0.2-0.7,0-1.2,0.6-1.7
	c0.7-0.6,1.3-1.3,2-2c-0.9-0.1-1.8-0.3-2.7-0.4c-0.8-0.1-1.2-0.4-1.5-1.1c-0.4-0.8-0.8-1.6-1.2-2.4c-0.2,0.1-0.3,0.3-0.3,0.5
	c-0.4,0.7-0.7,1.4-1.1,2.2c-0.2,0.5-0.6,0.8-1.2,0.9C9.5,43.3,8.5,43.5,7.5,43.6z"/>
</svg>
