<?xml version="1.0" encoding="utf-8"?>
<!-- Generator: Adobe Illustrator 23.0.5, SVG Export Plug-In . SVG Version: 6.00 Build 0)  -->
<svg version="1.1" id="Layer_1" xmlns="http://www.w3.org/2000/svg" xmlns:xlink="http://www.w3.org/1999/xlink" x="0px" y="0px"
	 viewBox="0 0 64 64" style="enable-background:new 0 0 64 64;" xml:space="preserve">
<style type="text/css">
	.st0{fill:none;}
	.st1{fill:#488AFF;}
	.st2{fill:#689F38;}
</style>
<title>Methodology</title>
<path class="st0" d="M40.8,20.7c-0.2,0.8-0.5,1.6-1,2.3l1.8,2.4L39.2,28l-2.4-1.8c-0.7,0.4-1.5,0.7-2.3,1L34,30h-3.6L30,27.1
	c-0.8-0.2-1.6-0.5-2.3-1L25.3,28l-2.5-2.5l1.8-2.4c-0.4-0.7-0.7-1.5-1-2.3l-2.9-0.4v-3.6l2.9-0.4c0.2-0.8,0.5-1.6,1-2.3l-1.8-2.4
	l2.5-2.5l2.4,1.8c0.7-0.4,1.5-0.7,2.3-1L30.5,7H34l0.4,2.9c0.8,0.2,1.6,0.5,2.3,1l2.4-1.8l2.5,2.5L39.8,14c0.4,0.7,0.7,1.5,1,2.3
	l2.9,0.4v3.6L40.8,20.7z"/>
<circle class="st0" cx="32.2" cy="18.5" r="4.4"/>
<path class="st1" d="M25.9,48.7H25v-6.1c0-0.2,0-0.3-0.1-0.4l-6.1-10.6c0-0.1-0.1-0.2-0.1-0.2c-0.6-0.8-1.5-1.4-2.5-1.6v-7.6
	c0-2-1.6-3.6-3.6-3.5c-1.9,0-3.5,1.6-3.5,3.5v21.3c0,0.2,0.1,0.4,0.2,0.6l3.3,4.2v0.6h-0.8c-0.5,0-0.9,0.4-0.9,0.9l0,0v7.1
	c0,0.5,0.4,0.9,0.9,0.9l0,0H26c0.5,0,0.9-0.4,0.9-0.9v-7.1C26.8,49.1,26.4,48.7,25.9,48.7z M14.2,47.3l-3.3-4.2v-21
	c0-1,0.8-1.7,1.7-1.7c1,0,1.7,0.8,1.7,1.7V30c-0.2,0.1-0.3,0.2-0.4,0.2c-1.7,1-2.2,3.2-1.3,4.8l5.1,8.8l1.5-0.9l-5-8.7
	c-0.5-0.8-0.2-1.9,0.7-2.4c0.2-0.1,0.3-0.2,0.6-0.2c0,0,0.2,0,0.3,0c0.3,0,0.7,0.1,0.9,0.2s0.4,0.3,0.6,0.6l0.1,0.1l6,10.4v5.9h-8.9
	v-0.9C14.4,47.6,14.3,47.5,14.2,47.3z M25.1,55.9H12.6v-5.3H25L25.1,55.9L25.1,55.9z"/>
<path class="st1" d="M51.8,18.7c-2,0-3.6,1.6-3.6,3.6v7.6c-0.5,0.1-0.9,0.2-1.3,0.4c-0.5,0.2-0.8,0.7-1.2,1.1
	c-0.1,0.1-0.1,0.2-0.2,0.2l-6.1,10.6c-0.1,0.2-0.1,0.2-0.1,0.4v6.1h-0.9c-0.5,0-0.9,0.4-0.9,0.9l0,0v7.1c0,0.5,0.4,0.9,0.9,0.9l0,0
	h14.2c0.5,0,0.9-0.4,0.9-0.9l0,0v-7.1c0-0.5-0.4-0.9-0.9-0.9l0,0h-0.9v-0.6l3.3-4.2c0.2-0.2,0.2-0.3,0.2-0.6V22.2
	C55.4,20.2,53.8,18.7,51.8,18.7z M51.8,55.9H39.4v-5.3h12.4C51.8,50.6,51.8,55.9,51.8,55.9z M53.6,43.2l-3.3,4.2
	c-0.2,0.2-0.2,0.3-0.2,0.6v0.9h-9v-5.9l6-10.4c0,0,0-0.1,0.1-0.1c0.3-0.5,0.9-0.7,1.5-0.8c0,0,0.2,0,0.3,0c0.2,0,0.4,0.1,0.6,0.2
	c0.8,0.5,1.2,1.6,0.7,2.4L45.2,43l1.5,0.9l5.1-8.8c1-1.7,0.4-3.9-1.3-4.8c-0.2-0.1-0.2-0.2-0.4-0.2v-7.9c0-1,0.8-1.7,1.7-1.7
	c1,0,1.7,0.8,1.7,1.7L53.6,43.2z"/>
<path class="st2" d="M20.6,21.2l2.4,0.3c0.2,0.5,0.3,1,0.6,1.4l-1.4,1.9c-0.2,0.3-0.2,0.8,0.1,1.2l2.5,2.5c0.3,0.3,0.8,0.3,1.2,0.1
	l1.9-1.4c0.5,0.2,0.9,0.4,1.4,0.6l0.3,2.5c0.1,0.4,0.4,0.7,0.9,0.7H34c0.4,0,0.8-0.3,0.9-0.7l0.3-2.4c0.5-0.2,1-0.3,1.4-0.6l1.9,1.4
	c0.3,0.2,0.8,0.2,1.2-0.1l2.5-2.5c0.3-0.3,0.3-0.8,0.1-1.2L40.9,23c0.2-0.5,0.4-0.9,0.6-1.4l2.4-0.3c0.4-0.1,0.7-0.4,0.7-0.9v-3.6
	c0-0.4-0.3-0.8-0.7-0.9l-2.4-0.3c-0.2-0.5-0.3-1-0.6-1.4l1.4-1.9c0.2-0.3,0.2-0.8-0.1-1.2l-2.5-2.5c-0.3-0.3-0.8-0.3-1.2-0.1
	l-1.9,1.4c-0.5-0.2-1-0.4-1.5-0.6l-0.3-2.4c0-0.4-0.4-0.7-0.8-0.7h-3.6c-0.4,0-0.8,0.3-0.9,0.7l-0.3,2.4c-0.5,0.2-0.9,0.3-1.4,0.6
	l-1.9-1.4c-0.3-0.2-0.8-0.2-1.2,0.1L22.2,11c-0.3,0.3-0.3,0.8-0.1,1.2l1.4,1.9c-0.2,0.5-0.4,0.9-0.6,1.4l-2.4,0.3
	c-0.4,0.1-0.7,0.4-0.7,0.9v3.6C19.8,20.7,20.2,21.1,20.6,21.2z M21.6,17.5l2.2-0.3c0.3-0.1,0.7-0.3,0.7-0.7c0.2-0.7,0.5-1.4,0.8-2.1
	c0.2-0.3,0.2-0.7-0.1-1l-1.3-1.7l1.5-1.4l1.7,1.3c0.2,0.2,0.7,0.2,1,0.1c0.7-0.4,1.3-0.7,2.1-0.8c0.3-0.1,0.6-0.4,0.7-0.7l0.3-2.2h2
	l0.3,2.2c0.1,0.3,0.3,0.7,0.7,0.7c0.7,0.2,1.4,0.5,2.1,0.8c0.3,0.2,0.7,0.2,1-0.1l1.7-1.2l1.4,1.4l-1.3,1.7c-0.2,0.2-0.2,0.7-0.1,1
	c0.4,0.7,0.7,1.3,0.8,2.1c0.1,0.3,0.4,0.6,0.7,0.7l2.2,0.3v2l-2.2,0.3c-0.3,0.1-0.7,0.3-0.7,0.7c-0.2,0.7-0.5,1.4-0.8,2.1
	c-0.2,0.3-0.2,0.7,0.1,1l1.3,1.7L39,26.7l-1.7-1.3c-0.2-0.2-0.7-0.2-1,0c-0.7,0.4-1.3,0.7-2.1,0.8c-0.3,0.1-0.6,0.4-0.7,0.7
	l-0.3,2.2h-2L30.9,27c-0.1-0.3-0.3-0.7-0.7-0.7c-0.7-0.2-1.4-0.5-2.1-0.8c-0.2-0.2-0.7-0.2-0.9,0l-1.8,1.3L24,25.3l1.3-1.7
	c0.2-0.2,0.2-0.7,0.1-1c-0.4-0.7-0.7-1.3-0.8-2.1c-0.1-0.3-0.4-0.6-0.7-0.7l-2.2-0.3L21.6,17.5L21.6,17.5z"/>
<path class="st2" d="M32.2,23.8c2.9,0,5.3-2.4,5.3-5.3s-2.4-5.3-5.3-5.3s-5.3,2.4-5.3,5.3l0,0C26.9,21.5,29.3,23.8,32.2,23.8z
	 M32.2,15c2,0,3.6,1.6,3.6,3.6s-1.6,3.6-3.6,3.6s-3.6-1.6-3.6-3.6l0,0C28.7,16.6,30.3,15,32.2,15z"/>
</svg>
