<?xml version="1.0" encoding="utf-8"?>
<!-- Generator: Adobe Illustrator 23.0.5, SVG Export Plug-In . SVG Version: 6.00 Build 0)  -->
<svg version="1.1" id="Layer_1" xmlns="http://www.w3.org/2000/svg" xmlns:xlink="http://www.w3.org/1999/xlink" x="0px" y="0px"
	 viewBox="0 0 64 64" style="enable-background:new 0 0 64 64;" xml:space="preserve">
<style type="text/css">
	.st0{fill:#488AFF;}
	.st1{fill:#689F38;}
</style>
<path class="st0" d="M28.1,57.6c-0.5-0.4-0.5-0.9-0.6-1.4c-0.2-1.2-0.4-2.5-0.5-3.7c0-0.3-0.2-0.5-0.5-0.6c-3.2-0.9-6.1-2.6-8.5-4.9
	c-0.2-0.2-0.4-0.3-0.7-0.1c-1.3,0.6-2.7,1.1-4,1.6c-0.7,0.3-1.1,0.2-1.4-0.5c-1.1-1.9-2.2-3.8-3.3-5.7c-0.4-0.7-0.3-1,0.3-1.5
	c1.1-0.9,2.2-1.8,3.4-2.6c0.3-0.2,0.3-0.4,0.3-0.7c-0.8-3.3-0.8-6.5,0-9.8c0.1-0.3,0-0.5-0.3-0.7c-1.1-0.9-2.2-1.7-3.3-2.6
	c-0.7-0.5-0.7-0.9-0.3-1.6c1.1-1.9,2.2-3.7,3.2-5.6c0.4-0.7,0.7-0.8,1.5-0.5c1.3,0.5,2.6,1.1,4,1.6c0.3,0.1,0.5,0.1,0.7-0.1
	c2.4-2.4,5.2-4,8.5-4.9c0.3-0.1,0.4-0.3,0.5-0.6c0.2-1.4,0.4-2.9,0.6-4.3c0-0.4,0.3-0.6,0.5-0.9c2.6,0,5.2,0,7.9,0
	c0.5,0.4,0.5,1,0.6,1.5c0.2,1.2,0.4,2.5,0.5,3.7c0,0.3,0.2,0.5,0.5,0.6c3.3,0.9,6.1,2.6,8.5,5c0.2,0.2,0.4,0.2,0.6,0.1
	c1.3-0.5,2.7-1.1,4-1.6c0.7-0.3,1.1-0.2,1.5,0.5c1.1,1.9,2.2,3.7,3.2,5.6c0.4,0.7,0.3,1.1-0.3,1.6c-1.1,0.9-2.2,1.7-3.3,2.6
	c-0.3,0.2-0.3,0.4-0.2,0.7c0.8,3.3,0.8,6.5,0,9.8c-0.1,0.3,0,0.5,0.2,0.8c1.1,0.9,2.2,1.7,3.3,2.6c0.7,0.5,0.7,0.9,0.3,1.6
	c-1.1,1.9-2.2,3.7-3.2,5.6c-0.4,0.7-0.7,0.8-1.5,0.5c-1.6-0.6-3.2-1.3-4.8-1.9c-0.6-0.3-0.9-0.7-0.7-1.2c0.2-0.5,0.7-0.7,1.3-0.4
	c1.2,0.5,2.5,1,3.7,1.5c0.5,0.2,0.7,0.1,0.9-0.3c0.7-1.3,1.4-2.5,2.2-3.8c0.2-0.3,0.2-0.5-0.1-0.7c-1-0.8-2.1-1.6-3.1-2.4
	c-0.6-0.4-0.7-0.9-0.5-1.6c1-3.4,1-6.8,0-10.1c-0.2-0.7,0-1.1,0.5-1.6c1.1-0.8,2.1-1.6,3.1-2.4c0.3-0.2,0.3-0.4,0.1-0.7
	c-0.8-1.3-1.5-2.6-2.3-4c-0.2-0.3-0.4-0.4-0.7-0.2c-1.2,0.5-2.5,1-3.7,1.5c-0.6,0.2-1,0.1-1.5-0.3c-2.5-2.6-5.5-4.3-8.9-5.1
	c-0.5-0.1-0.8-0.4-0.9-1c-0.2-1.3-0.4-2.7-0.6-4C34.8,9.2,34.7,9,34.2,9c-1.4,0-2.9,0-4.3,0c-0.4,0-0.6,0.1-0.7,0.6
	c-0.2,1.3-0.4,2.7-0.6,4c-0.1,0.5-0.4,0.8-0.9,1c-3.5,0.8-6.5,2.6-9,5.2c-0.4,0.5-0.9,0.5-1.5,0.3c-1.2-0.5-2.5-1-3.7-1.5
	c-0.3-0.1-0.6-0.1-0.7,0.2c-0.7,1.3-1.5,2.6-2.3,3.9c-0.2,0.3-0.1,0.5,0.2,0.7c1,0.8,2.1,1.6,3.1,2.4c0.5,0.4,0.7,0.9,0.5,1.5
	c-1,3.4-1,6.8,0,10.2c0.2,0.7,0,1.1-0.5,1.5c-1,0.8-2.1,1.6-3.1,2.4c-0.3,0.2-0.4,0.4-0.2,0.7c0.8,1.3,1.5,2.5,2.2,3.8
	c0.2,0.4,0.5,0.5,0.9,0.3c1.2-0.5,2.4-1,3.5-1.4c0.7-0.3,1-0.2,1.5,0.3c2.5,2.6,5.4,4.3,8.9,5.1c0.6,0.1,0.9,0.4,0.9,1
	c0.2,1.3,0.4,2.7,0.6,4c0,0.4,0.2,0.5,0.6,0.5c1.5,0,3,0,4.5,0c0.4,0,0.6-0.2,0.6-0.6c0.2-1.3,0.4-2.7,0.6-4
	c0.1-0.5,0.3-0.8,0.8-0.9c1.9-0.4,3.6-1.2,5.3-2.2c0.6-0.3,1.1-0.2,1.4,0.2c0.3,0.5,0.1,1-0.5,1.3c-1.5,0.9-3.1,1.6-4.8,2.1
	c-0.4,0.1-0.6,0.3-0.7,0.8c-0.2,1.4-0.4,2.8-0.6,4.2c0,0.4-0.3,0.6-0.5,0.9C33.4,57.6,30.7,57.6,28.1,57.6z"/>
<path class="st0" d="M44.6,33.2c0-7-4.6-12.3-10.8-13.2c-6.9-1-13.3,3.8-14.2,10.7c-0.5,4,0.6,7.4,3.3,10.4c0.1,0.2,0.3,0.3,0.4,0.5
	c0.3,0.4,0.3,0.9,0,1.2c-0.3,0.3-0.8,0.3-1.2,0c-0.5-0.4-0.9-0.9-1.3-1.4c-2.2-2.8-3.3-5.9-3.2-9.5c0.3-7,5.1-12.5,11.9-13.7
	c7.9-1.4,15.5,4,16.7,12c1.2,7.8-4.2,15.1-12,16.4c-2.3,0.4-4.6,0.1-6.8-0.6c-0.4-0.1-0.8-0.3-0.8-0.8c-0.1-0.7,0.5-1.2,1.3-0.9
	c0.9,0.3,1.8,0.5,2.8,0.6c3.7,0.4,7-0.6,9.8-3.1C43.2,39.3,44.5,36.1,44.6,33.2z"/>
<path class="st1" d="M35,28.9c0,0.2-0.1,0.4-0.2,0.6c-1.3,2.3-2.7,4.5-4,6.8c-0.3,0.6-0.9,0.7-1.3,0.4c-0.4-0.3-0.5-0.8-0.2-1.3
	c1.3-2.3,2.7-4.6,4.1-6.9c0.2-0.4,0.6-0.6,1.1-0.5C34.8,28.1,35,28.4,35,28.9z"/>
<path class="st1" d="M40.7,32.4c0,0.3-0.1,0.5-0.3,0.7c-0.8,0.8-1.6,1.6-2.5,2.5C37.5,36,37,36,36.6,35.7c-0.4-0.4-0.4-0.9,0-1.3
	c0.5-0.5,1-1.1,1.6-1.6c0.3-0.3,0.2-0.4,0-0.7c-0.5-0.5-1.1-1.1-1.6-1.6c-0.4-0.4-0.4-1,0-1.3c0.3-0.3,0.8-0.4,1.2,0
	c0.9,0.9,1.8,1.8,2.7,2.7C40.6,32,40.7,32.2,40.7,32.4z"/>
<path class="st1" d="M26.8,35.9c-0.3,0-0.5-0.1-0.7-0.3c-0.8-0.8-1.6-1.6-2.5-2.5c-0.5-0.5-0.5-0.9,0-1.4c0.8-0.8,1.6-1.7,2.5-2.5
	c0.4-0.4,0.9-0.5,1.3-0.1c0.4,0.4,0.4,0.9,0,1.4c-0.5,0.5-1.1,1.1-1.6,1.6c-0.2,0.2-0.3,0.4,0,0.6c0.6,0.5,1.1,1.1,1.6,1.6
	c0.3,0.3,0.4,0.7,0.2,1C27.4,35.8,27.2,35.9,26.8,35.9z"/>
<path class="st0" d="M19.5,33.2c0-7,4.6-12.3,10.8-13.2c6.9-1,13.3,3.8,14.2,10.7c0.5,4-0.6,7.4-3.3,10.4c-0.1,0.2-0.3,0.3-0.4,0.5
	c-0.3,0.4-0.3,0.9,0,1.2c0.3,0.3,0.8,0.3,1.2,0c0.5-0.4,0.9-0.9,1.3-1.4c2.2-2.8,3.3-5.9,3.2-9.5c-0.3-7-5.1-12.5-11.9-13.7
	c-7.9-1.4-15.5,4-16.7,12c-1.2,7.8,4.2,15.1,12,16.4c2.3,0.4,4.6,0.1,6.8-0.6c0.4-0.1,0.8-0.3,0.8-0.8c0.1-0.7-0.5-1.2-1.3-0.9
	c-0.9,0.3-1.8,0.5-2.8,0.6c-3.7,0.4-7-0.6-9.8-3.1C20.9,39.3,19.6,36.1,19.5,33.2z"/>
<path class="st0" d="M36,57.6c0.5-0.4,0.5-0.9,0.6-1.4c0.2-1.2,0.4-2.5,0.5-3.7c0-0.3,0.2-0.5,0.5-0.6c3.2-0.9,6.1-2.6,8.5-4.9
	c0.2-0.2,0.4-0.3,0.7-0.1c1.3,0.6,2.7,1.1,4,1.6c0.7,0.3,1.1,0.2,1.4-0.5c1.1-1.9,2.2-3.8,3.3-5.7c0.4-0.7,0.3-1-0.3-1.5
	c-1.1-0.9-2.2-1.8-3.4-2.6c-0.3-0.2-0.3-0.4-0.3-0.7c0.8-3.3,0.8-6.5,0-9.8c-0.1-0.3,0-0.5,0.3-0.7c1.1-0.9,2.2-1.7,3.3-2.6
	c0.7-0.5,0.7-0.9,0.3-1.6c-1.1-1.9-2.2-3.7-3.2-5.6c-0.4-0.7-0.7-0.8-1.5-0.5c-1.3,0.5-2.6,1.1-4,1.6c-0.3,0.1-0.5,0.1-0.7-0.1
	c-2.4-2.4-5.2-4-8.5-4.9c-0.3-0.1-0.4-0.3-0.5-0.6c-0.2-1.4-0.4-2.9-0.6-4.3c0-0.4-0.3-0.6-0.5-0.9c-2.6,0-5.2,0-7.9,0
	c-0.5,0.4-0.5,1-0.6,1.5c-0.2,1.2-0.4,2.5-0.5,3.7c0,0.3-0.2,0.5-0.5,0.6c-3.3,0.9-6.1,2.6-8.5,5c-0.2,0.2-0.4,0.2-0.6,0.1
	c-1.3-0.5-2.7-1.1-4-1.6c-0.7-0.3-1.1-0.2-1.5,0.5c-1.1,1.9-2.2,3.7-3.2,5.6c-0.4,0.7-0.3,1.1,0.3,1.6c1.1,0.9,2.2,1.7,3.3,2.6
	c0.3,0.2,0.3,0.4,0.2,0.7c-0.8,3.3-0.8,6.5,0,9.8c0.1,0.3,0,0.5-0.2,0.8c-1.1,0.9-2.2,1.7-3.3,2.6c-0.7,0.5-0.7,0.9-0.3,1.6
	c1.1,1.9,2.2,3.7,3.2,5.6c0.4,0.7,0.7,0.8,1.5,0.5c1.6-0.6,3.2-1.3,4.8-1.9c0.6-0.3,0.9-0.7,0.7-1.2c-0.2-0.5-0.7-0.7-1.3-0.4
	c-1.2,0.5-2.5,1-3.7,1.5c-0.5,0.2-0.7,0.1-0.9-0.3c-0.7-1.3-1.4-2.5-2.2-3.8c-0.2-0.3-0.2-0.5,0.1-0.7c1-0.8,2.1-1.6,3.1-2.4
	c0.6-0.4,0.7-0.9,0.5-1.6c-1-3.4-1-6.8,0-10.1c0.2-0.7,0-1.1-0.5-1.6c-1.1-0.8-2.1-1.6-3.1-2.4c-0.3-0.2-0.3-0.4-0.1-0.7
	c0.8-1.3,1.5-2.6,2.3-4c0.2-0.3,0.4-0.4,0.7-0.2c1.2,0.5,2.5,1,3.7,1.5c0.6,0.2,1,0.1,1.5-0.3c2.5-2.6,5.5-4.3,8.9-5.1
	c0.5-0.1,0.8-0.4,0.9-1c0.2-1.3,0.4-2.7,0.6-4C29.3,9.2,29.5,9,29.9,9c1.4,0,2.9,0,4.3,0c0.4,0,0.6,0.1,0.7,0.6
	c0.2,1.3,0.4,2.7,0.6,4c0.1,0.5,0.4,0.8,0.9,1c3.5,0.8,6.5,2.6,9,5.2c0.4,0.5,0.9,0.5,1.5,0.3c1.2-0.5,2.5-1,3.7-1.5
	c0.3-0.1,0.6-0.1,0.7,0.2c0.7,1.3,1.5,2.6,2.3,3.9c0.2,0.3,0.1,0.5-0.2,0.7c-1,0.8-2.1,1.6-3.1,2.4c-0.5,0.4-0.7,0.9-0.5,1.5
	c1,3.4,1,6.8,0,10.2c-0.2,0.7,0,1.1,0.5,1.5c1,0.8,2.1,1.6,3.1,2.4c0.3,0.2,0.4,0.4,0.2,0.7c-0.8,1.3-1.5,2.5-2.2,3.8
	c-0.2,0.4-0.5,0.5-0.9,0.3c-1.2-0.5-2.4-1-3.5-1.4c-0.7-0.3-1-0.2-1.5,0.3c-2.5,2.6-5.4,4.3-8.9,5.1c-0.6,0.1-0.9,0.4-0.9,1
	c-0.2,1.3-0.4,2.7-0.6,4c0,0.4-0.2,0.5-0.6,0.5c-1.5,0-3,0-4.5,0c-0.4,0-0.6-0.2-0.6-0.6c-0.2-1.3-0.4-2.7-0.6-4
	c-0.1-0.5-0.3-0.8-0.8-0.9c-1.9-0.4-3.6-1.2-5.3-2.2c-0.6-0.3-1.1-0.2-1.4,0.2c-0.3,0.5-0.1,1,0.5,1.3c1.5,0.9,3.1,1.6,4.8,2.1
	c0.4,0.1,0.6,0.3,0.7,0.8c0.2,1.4,0.4,2.8,0.6,4.2c0,0.4,0.3,0.6,0.5,0.9C30.7,57.6,33.4,57.6,36,57.6z"/>
</svg>
