<svg id="ARTWORK" xmlns="http://www.w3.org/2000/svg" xmlns:xlink="http://www.w3.org/1999/xlink" viewBox="0 0 84 64"><defs><style>.cls-1{fill:none;}.cls-2{clip-path:url(#clip-path);}.cls-3{fill:#088004;}.cls-4{fill:#fff;}.cls-5{fill:#f48e20;}.cls-6{fill:#081084;}</style><clipPath id="clip-path"><rect class="cls-1" width="84" height="64" rx="7.60326"/></clipPath></defs><title>india</title><g id="FLAT"><g id="FLAGS-2" data-name="FLAGS"><g class="cls-2"><rect class="cls-3" x="29.89461" y="4.69803" width="21.84157" height="98.28707" transform="translate(94.65697 13.02618) rotate(90)"/><rect class="cls-4" x="29.89461" y="-17.14354" width="21.84157" height="98.28707" transform="translate(72.8154 -8.8154) rotate(90)"/><rect class="cls-5" x="29.89461" y="-38.98511" width="21.84157" height="98.28707" transform="translate(50.97382 -30.65697) rotate(90)"/><path class="cls-6" d="M50.97173,32A10.15634,10.15634,0,1,0,40.81525,42.15624,10.15628,10.15628,0,0,0,50.97173,32Z"/><path class="cls-4" d="M47.5983,37.91471a.55677.55677,0,0,1,.71933-.84539,9.04454,9.04454,0,0,0,.63089-1.08866A.52156.52156,0,0,1,48.896,35.954a.55677.55677,0,0,1,.48-1.00131,8.993,8.993,0,0,0,.323-1.20016.5567.5567,0,0,1,.14666-1.10359c.01509-.21432.02344-.43068.02344-.649,0-.2035-.00746-.40529-.02078-.6055a.55669.55669,0,0,1-.14116-1.10437,9.01161,9.01161,0,0,0-.32229-1.21767.55671.55671,0,1,1-.42455-1.02926,9.02923,9.02923,0,0,0-.62291-1.08281.55678.55678,0,1,1-.67582-.88464,9.08731,9.08731,0,0,0-.88908-.893.55688.55688,0,1,1-.88125-.68044,9.05942,9.05942,0,0,0-1.09346-.63462.5568.5568,0,1,1-1.02741-.42749,8.99007,8.99007,0,0,0-1.211-.32529.55684.55684,0,1,1-1.10286-.14561c-.21183-.01484-.42562-.02291-.6412-.02291-.20918,0-.41691.00782-.62289.02174a.54981.54981,0,0,1,.00922.09722.5569.5569,0,0,1-1.11192.04608,8.98243,8.98243,0,0,0-1.23267.32993.57336.57336,0,0,1,.03533.09464.557.557,0,0,1-1.062.333,9.05307,9.05307,0,0,0-1.07961.62549.55682.55682,0,1,1-.88134.67838,9.094,9.094,0,0,0-.893.89458.55684.55684,0,1,1-.67671.88323,9.05889,9.05889,0,0,0-.63275,1.09939.551.551,0,0,1,.08621.03978.55709.55709,0,0,1-.50963.98941,8.98225,8.98225,0,0,0-.31925,1.20815.55716.55716,0,0,1-.0563,1.11148.56331.56331,0,0,1-.08531-.00718c-.01333.20109-.02088.40379-.02088.60825,0,.21922.00835.43646.02362.65184a.55667.55667,0,1,1,.14712,1.10341,8.98662,8.98662,0,0,0,.32929,1.21739.56676.56676,0,0,1,.07413-.02627.5569.5569,0,0,1,.35568,1.05315,9.05655,9.05655,0,0,0,.62761,1.07871.55683.55683,0,0,1,.73148.83652A.52817.52817,0,0,1,34,37.9591a9.11492,9.11492,0,0,0,.8889.88536.5909.5909,0,0,1,.043-.04866.5568.5568,0,0,1,.84157.72464,9.013,9.013,0,0,0,1.08955.62663.549.549,0,0,1,.02735-.05469.55677.55677,0,0,1,1.00184.47855,8.96375,8.96375,0,0,0,1.20283.31873.55684.55684,0,0,1,1.10659.089.53543.53543,0,0,1-.00284.05362c.20385.01367.4093.02131.61651.02131.21345,0,.4251-.008.635-.02255-.0016-.01723-.00265-.03463-.00265-.05238a.55687.55687,0,0,1,1.10606-.09252,8.99136,8.99136,0,0,0,1.21952-.32725c-.006-.01669-.01171-.03357-.01633-.051a.55675.55675,0,0,1,1.04373-.377,9.04719,9.04719,0,0,0,1.069-.61866.55688.55688,0,0,1,.84771-.71647c.01243.0126.02414.02574.03516.03905a9.08771,9.08771,0,0,0,.88587-.8841C47.6246,37.93939,47.61108,37.92749,47.5983,37.91471Z"/><path class="cls-6" d="M41.16578,28.15067l-.34342-5.19906-.35743,5.19906a23.81743,23.81743,0,0,1,.35743,3.84273A24.76334,24.76334,0,0,1,41.16578,28.15067Z"/><path class="cls-6" d="M40.80887,32.00705a23.81337,23.81337,0,0,1-3.84291-.35753l-5.199.35753,5.199.34342A24.76411,24.76411,0,0,1,40.80887,32.00705Z"/><path class="cls-6" d="M40.82485,32.0003a24.77243,24.77243,0,0,1,2.96-2.47439l3.43377-3.91917-3.92918,3.4236A23.81458,23.81458,0,0,1,40.82485,32.0003Z"/><path class="cls-6" d="M40.80567,32.0003a23.8112,23.8112,0,0,1-2.46426-2.97l-3.92921-3.4236,3.43343,3.9191A24.77313,24.77313,0,0,1,40.80567,32.0003Z"/><path class="cls-6" d="M42.16689,28.37876l1.03772-5.10594-1.71388,4.92144a23.80514,23.80514,0,0,1-.667,3.80127A24.79367,24.79367,0,0,1,42.16689,28.37876Z"/><path class="cls-6" d="M44.43656,33.3516l5.1061,1.03769L44.621,32.67541a23.80784,23.80784,0,0,1-3.79868-.66625v-.00211a24.76286,24.76286,0,0,1,3.8422.34342l5.19914-.34342-5.19914-.35753a23.8061,23.8061,0,0,1-3.8422.35753v-.00014l-.00037.00014h.00037v.0021l-.002-.00054.0001-.00039-.00007.00026h-.00048l.00044.00012-.00064.00229-.00142-.00081.00021-.00036-.00021.00036-.00031-.00018.00021.00012-.00093.00179-.00194-.00193.00035-.00035-.00023.00023-.00036-.00011.00023.00023-.00154.00153-.00105-.00179.00031-.00018-.00031.00017-.00017-.00028.00016.00029-.00153.00086-.00037-.00136.00042-.00011-.00028.00007-.00027-.00044.00009.00032a23.81737,23.81737,0,0,1-3.80426.6471l-4.93024,1.688,5.11135-1.0109a24.744,24.744,0,0,1,3.62319-1.324l.00035.00136a23.80589,23.80589,0,0,1-3.512,1.59431l-4.33734,2.889,4.68485-2.28031a24.76388,24.76388,0,0,1,3.16454-2.203l.00072.00275A23.80858,23.80858,0,0,1,37.84563,34.474l-3.42339,3.9292,3.91917-3.43342a24.77017,24.77017,0,0,1,2.47045-2.95643l.00136.0052a23.83886,23.83886,0,0,1-2.22749,3.13909L36.293,39.83739l2.89967-4.32907a24.7925,24.7925,0,0,1,1.62063-3.48954l.002.00775a23.82845,23.82845,0,0,1-1.3517,3.59472l-1.024,5.10968,1.70021-4.92517a24.80072,24.80072,0,0,1,.67562-3.77882l.00668.02558a23.89121,23.89121,0,0,1-.35717,3.79673l.35743,5.19916.34342-5.19916a24.8437,24.8437,0,0,1-.34316-3.79473,24.833,24.833,0,0,1,.64858,3.75512l1.67443,4.93406-.99719-5.115a23.87737,23.87737,0,0,1-1.32583-3.57622l-.00014-.02546a24.79851,24.79851,0,0,1,1.59781,3.48911l2.8764,4.34435-2.26787-4.69186a23.84687,23.84687,0,0,1-2.20634-3.14228l-.00005-.00921a24.79412,24.79412,0,0,1,2.46706,2.95244l3.91889,3.43361L43.78489,34.474a23.84578,23.84578,0,0,1-2.96247-2.457l0-.00441a24.768,24.768,0,0,1,3.15036,2.218l4.67285,2.305-4.322-2.91173a23.81113,23.81113,0,0,1-3.50123-1.61135l0-.00327A24.76659,24.76659,0,0,1,44.43656,33.3516Zm-3.61832-1.34151.00141.00085-.00071.00258-.0017-.00167Zm.00068.0035-.00127.00453-.002-.00345.00159-.00279Zm-.00365-.00369.00192.002-.00162.00273-.00183-.00313Zm-.00413.00062.00152-.00089.001.00182-.00181.00179Zm.00076.00278.0018-.00182.00181.0032-.00221.00373Zm.00146.00533.00221-.00385.002.00358-.00217.00779Zm.00875.032-.00659-.02412.00215-.008.00458.00813Zm.00014-.02468-.00451-.00772.00123-.00461.00333.00337Zm.00005-.00912-.00331-.00329.00069-.00262.00265.00157Zm0-.00443-.00264-.00151.00061-.00231.002.00057Z"/><path class="cls-6" d="M40.80709,32.005a23.81325,23.81325,0,0,1-3.613-1.3567l-5.10967-1.02411,4.92516,1.7002A24.769,24.769,0,0,1,40.80709,32.005Z"/><path class="cls-6" d="M40.82448,32.0028a24.76584,24.76584,0,0,1,3.50695-1.6076L48.676,27.51844l-4.69184,2.26814A23.81278,23.81278,0,0,1,40.82448,32.0028Z"/><path class="cls-6" d="M40.806,31.99774a23.82106,23.82106,0,0,1-1.59562-3.51414l-2.88883-4.33724,2.28049,4.68491A24.77854,24.77854,0,0,1,40.806,31.99774Z"/><path class="cls-6" d="M40.82519,31.99836a24.76452,24.76452,0,0,1,2.22066-3.15493l2.30482-4.67283-2.91174,4.32205A23.81668,23.81668,0,0,1,40.82519,31.99836Z"/><path class="cls-6" d="M40.80638,32.00332a23.81179,23.81179,0,0,1-3.14772-2.23279l-4.67977-2.29275,4.32907,2.8994A24.76763,24.76763,0,0,1,40.80638,32.00332Z"/><path class="cls-6" d="M40.824,32.00554a24.76683,24.76683,0,0,1,3.801-.66054l4.934-1.67437-5.115.99731A23.81425,23.81425,0,0,1,40.824,32.00554Z"/><path class="cls-6" d="M40.80727,31.996a23.79084,23.79084,0,0,1-.64687-3.80472l-1.68813-4.93032,1.01089,5.11135A24.77224,24.77224,0,0,1,40.80727,31.996Z"/></g></g></g></svg>