<?xml version="1.0" encoding="utf-8"?>
<!-- Generator: Adobe Illustrator 23.0.5, SVG Export Plug-In . SVG Version: 6.00 Build 0)  -->
<svg version="1.1" id="check" xmlns="http://www.w3.org/2000/svg" xmlns:xlink="http://www.w3.org/1999/xlink" x="0px" y="0px"
	 viewBox="0 0 53.1 53.1" style="enable-background:new 0 0 53.1 53.1;" xml:space="preserve">
<style type="text/css">
	.st0{fill:#007EE5;}
	.st1{fill:#FFFFFF;}
	.st2{fill:#689F38;}
</style>
<circle id="Ellipse_520" class="st0" cx="29" cy="28" r="21"/>
<g id="Group_2767" transform="translate(12.487 16.902)">
	<g id="Group_2766">
		<path id="Path_3428" class="st1" d="M27.6,0.5c-0.6-0.6-1.6-0.6-2.2,0c0,0,0,0,0,0l-15,15L2.7,7.8C2,7.2,1.1,7.2,0.5,7.8
			s-0.6,1.6,0,2.2l0,0l8.8,8.8c0.6,0.6,1.6,0.6,2.2,0c0,0,0,0,0,0L27.6,2.7C28.2,2,28.2,1.1,27.6,0.5z"/>
	</g>
</g>
<g id="Group_2769" transform="translate(0 0)">
	<g id="Group_2768">
		<path id="Path_3429" class="st2" d="M45.3,7.8C35-2.6,18.2-2.7,7.8,7.6S-2.7,34.7,7.6,45.1c0,0,0.1,0.1,0.1,0.1
			c10.3,10.4,27.1,10.5,37.5,0.1s10.5-27.1,0.1-37.5C45.4,7.9,45.3,7.8,45.3,7.8z M26.5,49.9c-12.9,0-23.4-10.5-23.4-23.4
			c0-12.9,10.5-23.4,23.4-23.4c12.9,0,23.4,10.5,23.4,23.4c0,0,0,0,0,0C49.9,39.5,39.5,49.9,26.5,49.9z"/>
	</g>
</g>
</svg>
