<?xml version="1.0" encoding="utf-8"?>
<!-- Generator: Adobe Illustrator 23.0.5, SVG Export Plug-In . SVG Version: 6.00 Build 0)  -->
<svg version="1.1" id="Layer_1" xmlns="http://www.w3.org/2000/svg" xmlns:xlink="http://www.w3.org/1999/xlink" x="0px" y="0px"
	 viewBox="0 0 380 261" style="enable-background:new 0 0 380 261;" xml:space="preserve">
<style type="text/css">
	.st0{opacity:0.2;}
	.st1{fill:#659E42;}
</style>
<g class="st0">
	<path class="st1" d="M359.5,46.3v130.4c0,3.8-3.1,6.9-6.9,6.9h-68.1c-3.8,0-6.9-3.1-6.9-6.9V46.3c0-3.8,3.1-6.9,6.9-6.9h68.1
		C356.4,39.3,359.5,42.5,359.5,46.3z"/>
</g>
<g class="st0">
	<path class="st1" d="M379.1,9.9v60.2c0,4.6-3.1,8.4-6.9,8.4h-93.5c-3.8,0-6.9-3.8-6.9-8.4V9.9c0-4.6,3.1-8.4,6.9-8.4h93.5
		C376,1.5,379.1,5.3,379.1,9.9z"/>
</g>
<g class="st0">
	<path class="st1" d="M381.4,260.9h-28.8c-3.8,0-6.9-3.1-6.9-6.9v-43.8c0-3.8,3.1-6.9,6.9-6.9h28.8V260.9z"/>
</g>
<g class="st0">
	<path class="st1" d="M381.4,234.4h-78.5c-3.8,0-6.9-3.1-6.9-6.9v-157c0-3.8,3.1-6.9,6.9-6.9h78.5V234.4z"/>
</g>
</svg>
