<?xml version="1.0" encoding="utf-8"?>
<!-- Generator: Adobe Illustrator 23.0.5, SVG Export Plug-In . SVG Version: 6.00 Build 0)  -->
<svg version="1.1" id="Layer_1" xmlns="http://www.w3.org/2000/svg" xmlns:xlink="http://www.w3.org/1999/xlink" x="0px" y="0px"
	 viewBox="0 0 380 261" style="enable-background:new 0 0 380 261;" xml:space="preserve">
<style type="text/css">
	.st0{opacity:0.1;fill:none;stroke:#0D2366;stroke-width:1.1922;enable-background:new    ;}
</style>
<title>Go4order-shapes-4</title>
<path class="st0" d="M359.3,40.3v134.7c0,3.6-2.9,6.5-6.6,6.6h-70.3c-3.6,0-6.5-2.9-6.6-6.6V40.3c0-3.6,2.9-6.5,6.6-6.6h70.3
	C356.3,33.8,359.2,36.7,359.3,40.3z"/>
<path class="st0" d="M379.5,15.3v51.3c0,3.6-2.9,6.5-6.6,6.6h-96.6c-3.6,0-6.5-2.9-6.6-6.6V15.3c0-3.6,2.9-6.5,6.6-6.6H373
	C376.6,8.8,379.5,11.7,379.5,15.3z"/>
<path class="st0" d="M380.1,261.5h-27.4c-3.6,0-6.5-2.9-6.6-6.6v-45.3c0-3.6,2.9-6.5,6.6-6.6h27.4V261.5z"/>
<path class="st0" d="M380.1,234.1h-78.7c-3.6,0-6.5-2.9-6.6-6.6V65.4c0-3.6,2.9-6.5,6.6-6.6h78.7V234.1z"/>
</svg>
