<svg xmlns="http://www.w3.org/2000/svg" viewBox="0 0 64 64"><defs><style>.cls-1{fill:#488aff;}.cls-2{fill:#feddce;}.cls-3{fill:#fecdbd;}.cls-4{fill:#daecfe;}.cls-5{fill:#feb09f;}.cls-6{fill:#fdccbc;}.cls-7{fill:#689f38;}</style></defs><title>product</title><g id="OBJECTS"><path d="M13.65463,64.14923a4.101,4.101,0,0,1-1.77366-1.614Q7.20658,55.895,2.49982,49.27743a2.347,2.347,0,0,1,.63694-3.64974q4.814-3.42123,9.63606-6.83121a2.29718,2.29718,0,0,1,3.52111.56066c.22642.30248.35847.25684.61979.07048,1.71951-1.22629,3.50969-2.36157,5.16384-3.66943a8.61117,8.61117,0,0,1,7.33835-1.66676c3.871.70732,7.76241,1.34795,11.67057,1.79373,3.85828.44009,5.28026,4.39423,3.32868,6.91733-.02007.026-.01064.07472-.01489.11193a.24072.24072,0,0,0,.04644.02771c1.26675.40015,2.00532-.10833,2.70082-1.21859,1.4135-2.25642,2.99565-4.40807,4.5301-6.58755a3.9116,3.9116,0,0,1,7.07256,1.25873.67365.67365,0,0,0,.51714.56948,3.71966,3.71966,0,0,1,2.77565,2.992,3.86882,3.86882,0,0,1-1.56426,4.01664c-1.04658.79045-2.13641,1.52383-3.21038,2.27779-1.57746,1.10744-3.13686,2.24236-4.7429,3.30683a9.733,9.733,0,0,1-5.50678,1.67825c-4.16737-.02235-8.33456-.0815-12.50179-.1285A18.47558,18.47558,0,0,0,26.464,52.794c-.3418.15762-.45893.25151-.212.63549a2.23861,2.23861,0,0,1-.60214,3.15247Q20.6427,60.15562,15.60838,63.6912a7.91335,7.91335,0,0,1-.84478.458Z"/><path class="cls-1" d="M44.45638,2.60172a1.00786,1.00786,0,0,1,.72821,1.08074c-.00473,1.06748-.001,8.0916-.00175,9.15913a1.5435,1.5435,0,0,1-.824,1.47543,1.56346,1.56346,0,0,1-1.68212-.14084c-.63507-.40428-1.23466-1.15621-1.91757-1.11166-.64583.04216-1.25777.70031-1.87168,1.1071a1.55942,1.55942,0,0,1-1.68263.15206,1.61249,1.61249,0,0,1-.82732-1.59827c.00516-3.03831-.00967-6.07675.01338-9.11492.004-.52783-.08413-.75762-.68284-.71574-.89894.0629-1.80479.02648-2.70773.03232a1.80315,1.80315,0,0,1-.95383.18089c-1.12806-.00071-2.25626-.01162-3.38417.00409-.77839.01085-.98729.21225-1.00147.99105-.02356,1.29187-.00756,2.5842-.0077,3.87633Q27.652,17.88588,27.653,27.79231c0,.26658-.00094.53308.01106.79968a.81392.81392,0,0,0,.81168.83485,3.581,3.581,0,0,0,.49146.02237c3.19548-.02695,6.38667.23979,9.58317.14a.732.732,0,0,1,.36254.04313.94526.94526,0,0,1-.48317,1.8237c-3.36723-.00217-6.7346.0177-10.10168-.00931a2.62084,2.62084,0,0,1-2.73085-2.772Q25.58918,16.26328,25.597,3.85171A2.62972,2.62972,0,0,1,28.3694,1.06348q12.41152-.00693,24.82312,0a2.609,2.609,0,0,1,2.76641,2.73134q.02115,12.4731-.00109,24.94626a2.56163,2.56163,0,0,1-2.61044,2.69564c-3.42816.04553-12.814.016-16.2428.01781a1.036,1.036,0,0,1-1.07287-.83208c.15364-.81263.37418-1.01135,1.18885-1.01252,3.22362-.00454,12.40381-.00125,15.62743-.00232,1.059-.00035,1.26854-.206,1.26861-1.2518q.00131-12.104,0-24.20793c-.00007-1.03721-.19749-1.23769-1.20775-1.238-2.38176-.00083-4.76373.01651-7.14513-.01374-.50557-.00643-.6291.15444-.58758.61618.03657.40735-.01433.82207.01257,1.23094a1.15151,1.15151,0,0,1-.85618,1.36421.89149.89149,0,0,1-1.131-.85533,9.16813,9.16813,0,0,1-.03184-1.53693c.0077-.43793-.15488-.63831-.612-.626q-.89153.024-1.78472-.002c-.59326.01556-1.187.01423-1.78006.00234-.42857-.0086-.63871.13706-.63747.59866.00713,2.57859-.00269,5.15725.00887,7.73582.0024.5318.10231.56941.57508.28385.62278-.37612,1.17488-.92173,1.99239-.82877a6.677,6.677,0,0,1,2.13475,1.10511c.19771-.25358.10245-.5263.111-.775.02109-.61463-.03679-7.18913.02938-7.80108A.86756.86756,0,0,1,44.45638,2.60172Z"/><path class="cls-2" d="M30.21917,36.16q3.19386.46659,6.38757.93431,2.31211.34272,4.62169.70248a2.416,2.416,0,0,1,.55836,4.69816,2.28925,2.28925,0,0,1-.96969.10867q-2.14859-.163-4.29654-.33434a5.41126,5.41126,0,0,0-.55236-.03921.9437.9437,0,0,0-.96857.91441.926.926,0,0,0,.8911.92229c1.41007.12846,2.82228.23331,4.23267.35845,2.24822.19947,4.49734.39126,6.74258.62042a3.38434,3.38434,0,0,0,2.43446-.61359c2.46928-1.765,4.95893-3.50153,7.43524-5.25677a2.25382,2.25382,0,0,1,1.84265-.48833,1.9845,1.9845,0,0,1,1.64032,1.56028,2.089,2.089,0,0,1-.87366,2.27207c-1.29721.93576-2.61083,1.84881-3.91822,2.77046-1.056.74441-2.12826,1.46669-3.166,2.23559a9.5589,9.5589,0,0,1-6.10121,1.88759c-3.73523-.08219-7.47221-.0834-11.20767-.15826a24.18962,24.18962,0,0,0-6.74772.85281c-.378.17165-.57183-.08413-.75544-.33664-.68732-.94522-1.35521-1.90471-2.01549-2.86851-.81121-1.18413-1.6604-2.342-2.44836-3.54191a1.87539,1.87539,0,0,1,.45094-2.80849c1.95728-1.45672,3.97726-2.82669,5.96838-4.23667A.90533.90533,0,0,1,30.21917,36.16Z"/><path class="cls-1" d="M12.07378,45.25517c1.1222,1.56242,2.25,3.12088,3.3653,4.6882,1.7345,2.4374,3.45542,4.88449,5.19658,7.3171.21994.30728.24507.46993-.10117.70289-1.27319.85665-2.5243,1.74614-3.78372,2.62326-.33507.018-.43356-.2734-.5759-.47372q-3.724-5.24135-7.43884-10.4892a1.48383,1.48383,0,0,1,.05086-2.03093A14.4589,14.4589,0,0,1,12.07378,45.25517Z"/><path class="cls-1" d="M12.07378,45.25517c-.91785.67458-1.83383,1.35174-2.75409,2.023a1.52465,1.52465,0,0,0-.34586,2.40836c1.94266,2.7214,3.861,5.46019,5.79655,8.18666.64815.913,1.31962,1.8094,1.98041,2.7134-.62743.45784-1.25019.9222-1.88349,1.37173-.7045.50007-.77561.485-1.26538-.20628q-4.481-6.3246-8.9602-12.65045-.37326-.52707-.74351-1.05628a.505.505,0,0,1,.13906-.791q3.03721-2.15084,6.071-4.30656c.20384-.14545.31253-.11211.4417.07928C11.05328,43.77284,11.56511,44.51294,12.07378,45.25517Z"/><path class="cls-3" d="M30.21917,36.16c-.77161.06718-1.25119.66638-1.83133,1.055-1.57647,1.05612-3.08765,2.20932-4.65578,3.27845a1.92078,1.92078,0,0,0-.541,2.93488c1.51548,2.10412,2.99021,4.23769,4.468,6.36865a.58094.58094,0,0,0,.54508.31047,28.68739,28.68739,0,0,0-3.05439,1.26606c-.37431.201-.41769-.13884-.53673-.306q-3.14173-4.4109-6.26761-8.83311c-.73555-1.0382-.73452-1.03879.29166-1.76226,1.6765-1.18193,3.37159-2.3386,5.02352-3.55393a5.48264,5.48264,0,0,1,4.50682-1.1137C28.84787,35.94037,29.53505,36.04252,30.21917,36.16Z"/><path class="cls-4" d="M16.214,42.4626q3.27983,4.60842,6.55943,9.217c.59409.83508,1.17416,1.68043,1.78252,2.50493a.62962.62962,0,0,1-.19506,1.06064,16.68434,16.68434,0,0,0-1.50231,1.06863c-.33453.27007-.4942.22168-.73914-.12771-2.15331-3.07146-4.33-6.12651-6.49562-9.18937-.62612-.88553-1.23876-1.78059-1.85758-2.67128-.12365-.20563-.01239-.355.13841-.46679.63167-.46821,1.26651-.93251,1.92036-1.36958C15.942,42.41087,16.0762,42.34821,16.214,42.4626Z"/><path class="cls-5" d="M53.83276,38.92965l-4.52787,3.23619c-.19462-.16109-.101-.22074-.06256-.27634,1.31579-1.90191,2.6235-3.80953,3.955-5.70039a2.00906,2.00906,0,0,1,2.98941-.51791C55.38738,36.74672,54.7053,37.907,53.83276,38.92965Z"/><path class="cls-4" d="M16.214,42.4626a24.64423,24.64423,0,0,0-2.33408,1.59371c-.06762.04378-.0771.17737-.11364.26918-.56467-.7779-1.12112-1.5619-1.69858-2.33011-.19-.25274-.11295-.36948.11821-.52439.57923-.38819,1.14207-.80094,1.70935-1.20683.33889-.24247.62745-.25074.88441.12947C15.24951,41.08886,15.735,41.77353,16.214,42.4626Z"/><path class="cls-6" d="M53.83276,38.92965a13.74249,13.74249,0,0,1,2.35405-3.25841,1.37692,1.37692,0,0,1,.52217.57657c.27685.43369.32.68606-.27859.98622A25.17569,25.17569,0,0,0,53.83276,38.92965Z"/><path d="M34.184,20.09113c-.26561.00552-.53138-.00356-.79685.005-.74908.02421-1.13751.27986-1.145.74915-.00756.475.3752.72937,1.13177.73541.93987.00749,1.8799-.00276,2.81977.00494a1.06778,1.06778,0,0,1,.76.16179c.0008.0141-.00516.02079-.00582.0333a.39282.39282,0,0,1,.12885-.18476.80042.80042,0,0,0,.356-1.00939c-.17582-.422-.56614-.47183-.97042-.50833-.53465-.04828-1.09795.15742-1.60235-.16891-.01033.01992-.01142.04144-.0224.06122A1.2234,1.2234,0,0,1,34.184,20.09113Z"/><path d="M33.88316,23.17332a3.515,3.515,0,0,0-1.09482.10056.69206.69206,0,0,0-.544.72458.66932.66932,0,0,0,.69659.64285c.61289.04682,1.22781.01439,1.84187.01941.53225.00444,1.06465-.00487,1.5969.00415a.97587.97587,0,0,1,.696.16324.2617.2617,0,0,1,.04988-.13038c.272-.29659.4991-.61943.3051-1.03644-.20206-.43416-.62663-.45459-1.03738-.49967-.50324-.05527-1.03288.134-1.51125-.15074A1.6397,1.6397,0,0,1,33.88316,23.17332Z"/><path class="cls-1" d="M38.05408,16.68733c-2.10938.00494-4.219-.00138-6.32821.0189a2.48729,2.48729,0,0,0-2.52559,2.48087q-.04624,3.22592-.00087,6.453a2.53092,2.53092,0,0,0,2.5125,2.51184c.34734.01426.6952.01724,1.04283.02545q2.51784-.01167,5.03568-.02392a2.54368,2.54368,0,0,0,2.73369-2.71529q.00937-3.01027.00021-6.02049A2.531,2.531,0,0,0,38.05408,16.68733Zm.15567,9.5375c-.15735.1431-.35112.08529-.529.08544q-2.82933.00294-5.65867-.0056c-.76334-.0024-.9814-.22257-.98278-.9907q-.005-2.891,0-5.78185c.00124-.77642.20592-.98263.97943-.98176,1.02452.00109,2.049.01331,3.07354.02079.94308-.00719,1.88616-.01868,2.82923-.0197a.67594.67594,0,0,1,.75446.7642q.00186,3.108.00015,6.21609C38.67613,25.8668,38.57826,26.13714,38.20975,26.22483Z"/><path class="cls-7" d="M34.8522,19.9062q.88507.01508,1.77015.03037c.53986.0101.97788.18852,1.07057.78216a.89172.89172,0,0,1-.75417,1.07517c-1.26692-.00316-2.53376-.00348-3.80056-.0106-.72682-.00409-1.12779-.334-1.12685-.912.00093-.57661.40675-.91618,1.127-.93426C33.70949,19.92271,34.28089,19.91619,34.8522,19.9062Z"/><path class="cls-7" d="M34.85089,22.99847c.58984.01224,1.17961.02847,1.76951.03548.48773.0058.90879.14565,1.04953.65828a.91372.91372,0,0,1-.60859,1.1734c-1.30777.00586-2.61547.01838-3.92312.01491-.73294-.00194-1.1276-.33549-1.12667-.91548.00093-.57964.39962-.9106,1.127-.92969C33.70923,23.02038,34.2801,23.01057,34.85089,22.99847Z"/></g></svg>