<?xml version="1.0" encoding="utf-8"?>
<!-- Generator: Adobe Illustrator 23.0.5, SVG Export Plug-In . SVG Version: 6.00 Build 0)  -->
<svg version="1.1" id="Layer_1" xmlns="http://www.w3.org/2000/svg" xmlns:xlink="http://www.w3.org/1999/xlink" x="0px" y="0px"
	 viewBox="0 0 64 64" style="enable-background:new 0 0 64 64;" xml:space="preserve">
<style type="text/css">
	.st0{fill:none;}
	.st1{fill:#689F38;}
	.st2{fill:#488AFF;}
	.st3{fill:#FEDDD3;}
	.st4{fill:#747474;}
	.st5{fill:#FDC7B7;}
	.st6{fill:#FEFEFE;}
	.st7{fill:#FDFEFE;}
</style>
<title>global</title>
<g>
	<path d="M32.7,61.9c0,0.5-0.4,1-1,1c-0.5,0-1-0.4-1-1s0.4-1,1-1c0,0,0,0,0,0C32.2,60.9,32.7,61.4,32.7,61.9z"/>
	<path d="M21.8,59c0,0.5-0.5,1-1,1c-0.5,0-1-0.5-1-1c0-0.5,0.5-1,1-0.9C21.4,58,21.8,58.5,21.8,59z"/>
	<path d="M43.5,59c0,0.5-0.5,1-1,0.9c-0.5,0-1-0.5-0.9-1c0,0,0,0,0,0c0-0.5,0.5-1,1-0.9C43.1,58.1,43.5,58.5,43.5,59z"/>
	<path d="M26.1,60.2c0.5,0,1,0.5,0.9,1c0,0.5-0.4,0.9-1,0.9c-0.5,0-1-0.4-1-1C25.1,60.6,25.5,60.2,26.1,60.2
		C26.1,60.2,26.1,60.2,26.1,60.2z"/>
	<path d="M38.3,61.2c0,0.5-0.4,1-1,1c-0.5,0-1-0.4-1-1c0-0.5,0.4-1,1-1c0,0,0,0,0,0C37.8,60.2,38.3,60.6,38.3,61.2z"/>
</g>
<g>
	<path d="M45.8,23.1c0,0.5-0.4,1-1,1c0,0,0,0,0,0c-0.5,0-1-0.4-1-0.9c0-0.6,0.5-1,1-1C45.4,22.1,45.8,22.5,45.8,23.1z"/>
	<path d="M49.8,27.1c0,0.5-0.4,1-1,1c-0.5,0-1-0.4-1-1c0,0,0,0,0,0c0-0.5,0.4-1,1-0.9c0,0,0,0,0,0C49.4,26.1,49.8,26.5,49.8,27.1z"
		/>
	<path d="M52.7,31.9c0,0.5-0.4,1-1,1c-0.5,0-1-0.4-1-0.9c0-0.5,0.4-1,0.9-1c0,0,0.1,0,0.1,0C52.2,31,52.7,31.4,52.7,31.9z"/>
	<path d="M54.1,37.4c0,0.5-0.4,1-1,1c-0.5,0-1-0.4-1-1c0-0.5,0.4-1,1-1c0,0,0,0,0,0C53.7,36.4,54.1,36.9,54.1,37.4z"/>
</g>
<g>
	<path d="M18.5,22.1c0.5,0,1,0.4,1,1c0,0.5-0.4,1-1,1c0,0,0,0,0,0c-0.5,0-1-0.4-1-1c0,0,0,0,0,0C17.5,22.5,17.9,22.1,18.5,22.1z"/>
	<path d="M14.5,26.1c0.5,0,1,0.4,1,1c0,0,0,0,0,0c0,0.5-0.4,1-1,1c-0.6,0-1-0.5-1-1C13.5,26.5,14,26.1,14.5,26.1z"/>
	<path d="M12.6,32c0,0.5-0.4,1-1,1c-0.6,0-1-0.5-1-1c0,0,0,0,0,0c0-0.5,0.5-1,1-0.9c0,0,0,0,0,0C12.2,31,12.6,31.4,12.6,32
		C12.6,31.9,12.6,31.9,12.6,32z"/>
	<path d="M11.2,37.4c0,0.5-0.4,1-1,1c-0.5,0-1-0.4-1-1c0-0.5,0.4-1,1-1c0,0,0,0,0,0C10.7,36.4,11.2,36.9,11.2,37.4z"/>
</g>
<path class="st0" d="M23.7,46c-0.7,0-1.2-0.5-1.3-1.1c-0.1-0.2-0.1-0.4-0.3-0.6c-0.8-1.4-1.2-3.1-1.1-4.8c0-0.2,0-0.4-0.2-0.5
	c-0.7-0.4-1.3-0.8-2-1.3c-1,4.9,0.9,9.9,4.9,12.8c-0.3-1.3-0.2-2.6,0.3-3.8C24.3,46.3,24.3,46.1,23.7,46z"/>
<path d="M31.7,25.7c-8,0-14.5,6.5-14.5,14.5c0,8,6.5,14.5,14.5,14.5c8,0,14.5-6.5,14.5-14.5C46.2,32.3,39.7,25.7,31.7,25.7
	C31.7,25.7,31.7,25.7,31.7,25.7z M19.4,35.8c1.2-3.3,3.7-6,6.9-7.4c0.2-0.1,0.4-0.1,0.6,0c1.1,0.5,2.2,1.1,3.3,1.7
	c-0.6,0.4-1.1,0.8-1.6,1.1c-0.4,0.2-0.6,0.6-0.6,1.1c0,0.8,0.2,1.7-0.1,2.2c-0.3,0.6-1.2,0.8-1.9,1.2c-1.2,0.7-2.5,1.4-3.7,2.1
	c-0.2,0.2-0.5,0.2-0.8,0c-0.6-0.4-1.2-0.8-1.8-1.2C19.4,36.3,19.3,36.1,19.4,35.8C19.4,35.8,19.4,35.8,19.4,35.8z M24.2,46.8
	c-0.5,1.2-0.6,2.5-0.3,3.8c-4-2.9-5.9-8-4.9-12.8c0.7,0.4,1.3,0.9,2,1.3c0.2,0.1,0.2,0.3,0.2,0.5c-0.1,1.7,0.2,3.3,1.1,4.8
	c0.1,0.2,0.2,0.4,0.3,0.6c0.1,0.7,0.7,1.1,1.3,1.1C24.3,46.1,24.3,46.3,24.2,46.8z M25.5,51.3c-0.1-0.6-0.2-1.2-0.4-1.7
	c-0.1-0.5-0.1-1,0.1-1.5c0.2-0.7,0.5-1.4,0.7-2.1c0.2-0.6,0-1-0.6-1c-1.3-0.1-1.8-0.9-2.2-2c-0.4-0.9-0.6-1.9-0.6-3
	c0-0.4,0.1-0.5,0.5-0.5c1.1,0,2.1,0,3.2,0c0.9,0.1,1.9,0.4,2.8,0.8c0.1,0,0.1,0.1,0.2,0.2c0.1,0.1,0.1,0.2,0.1,0.3
	c0.3,1.4,1.1,2.4,2.7,2.4c0.3,0,0.4,0.1,0.4,0.4c0.1,1.5,0.1,1.5-1.2,2.2c-2,1-1.7,0.5-1.7,2.7c0,0.2-0.1,0.4-0.2,0.6
	c-0.8,0.9-1.5,1.7-2.3,2.6C26.5,52,25.9,51.8,25.5,51.3z M28.1,52.7c0.1-0.3,0.3-0.5,0.6-0.7c0.5-0.6,0.9-1.2,1.5-1.7
	c0.6-0.5,0.9-1.3,0.8-2.1c-0.1-0.4,0.1-0.7,0.5-0.8c0.6-0.3,1.2-0.6,1.9-0.9c0.4-0.2,0.6-0.6,0.6-1c0-0.9,0-1.7,0-2.6
	c0-0.5-0.2-0.9-0.7-0.9c-1.4,0.1-2.6-0.9-2.7-2.3c-0.1-0.4-0.4-0.6-0.8-0.7c-1.6-0.5-3.1-1.3-4.9-0.9l0-0.2c0.6-0.4,1.2-0.7,1.9-1.1
	c0.7-0.4,1.4-0.8,2.2-1.2c0.4-0.2,0.7-0.6,0.6-1.1c0-0.6,0-1.1,0-1.7c0-0.4,0.1-0.7,0.5-0.9c0.7-0.4,1.3-0.9,2-1.3
	c0.7-0.5,0.6-1.1-0.1-1.5c-1-0.5-2-1-3-1.5c0.2-0.2,0.4-0.2,0.6-0.2c5.2-1,10.5,1.4,13.3,5.9c0.3,0.5,0.2,0.6-0.3,0.8
	c-0.5,0.3-1.2,0.2-1.6-0.2c-0.8-0.7-1.6-1.2-2.4-1.8c-0.1-0.1-0.2-0.2-0.3-0.3c-1.4-0.4-2.8-0.4-4.2,0.1c-0.7,0.5-1.4,1.1-2.1,1.6
	c-0.3,0.2-0.5,0.6-0.4,1c0.2,0.9,0.3,1.7,0.4,2.6c0,0.3,0.2,0.6,0.5,0.8c0.7,0.5,1.4,0.9,2.1,1.4c0.6,0.5,1.4,0.7,2.1,0.4
	c0.5-0.2,1-0.1,1.3,0.4c0.2,0.2,0.3,0.6,0.2,0.9c-0.3,1.3-0.5,2.5-0.8,3.8c-0.2,0.4,0.1,0.9,0.5,1.1c0,0,0,0,0.1,0c0,0,0,0,0.1,0
	c1.3,0.3,1.5,1.2,1.3,2.3l0,0l0,0c0.1,0.7,0.1,0.7,1.2,1.5C37.2,52.9,32.5,54,28.1,52.7z M41.9,48.3c-0.1,0.2-0.2,0.5-0.5,0.3
	c-0.3-0.2-0.7-0.2-0.6-0.7c0-0.5,0-1,0-1.5c0-0.7-0.4-0.9-0.9-1.1c-1-0.5-1-0.5-0.8-1.6c0.2-1,0.4-2.1,0.6-3.1
	c0.1-0.3,0-0.7-0.3-0.9c-0.1-0.1-0.3-0.3-0.4-0.4c-0.6-1.1-1.9-1.5-2.9-0.9c0,0,0,0-0.1,0c-0.2,0.1-0.5,0.1-0.7-0.1
	c-0.2-0.2-0.5-0.4-0.8-0.5c-1.1-0.5-1.7-1.5-1.6-2.7c0-0.3,0-0.5,0.2-0.6c0.1,0,0.1-0.1,0.2-0.2c0.9-1,2.3-1.4,3.6-1.1
	c0.2,0,0.4,0.1,0.6,0.3c1,0.8,2,1.5,3,2.3c0.4,0.4,1,0.5,1.5,0.2c0.3-0.2,0.7-0.3,1-0.4c0.3-0.3,0.5-0.2,0.6,0.2
	C45.5,39.9,44.8,44.7,41.9,48.3z"/>
<path class="st1" d="M29.5,48.5c0-2.1-0.3-1.6,1.7-2.7c1.3-0.7,1.3-0.7,1.2-2.2c0-0.3-0.1-0.4-0.4-0.4c-1.6,0-2.3-0.9-2.7-2.4
	c0-0.1-0.1-0.2-0.1-0.3c0-0.1-0.1-0.2-0.2-0.2c-0.9-0.4-1.8-0.7-2.8-0.8c-1.1,0-2.1,0-3.2,0c-0.4,0-0.5,0.1-0.5,0.5c0,1,0.2,2,0.6,3
	c0.4,1.1,0.9,1.9,2.2,2c0.6,0,0.8,0.5,0.6,1c-0.2,0.7-0.4,1.4-0.7,2.1c-0.2,0.5-0.2,1-0.1,1.5c0.1,0.6,0.2,1.2,0.4,1.7
	c0.3,0.5,0.9,0.6,1.4,0.4c0.8-0.9,1.5-1.7,2.3-2.6C29.4,48.9,29.5,48.7,29.5,48.5z"/>
<path class="st1" d="M43.2,35.4c-0.3,0.1-0.7,0.2-1,0.4c-0.5,0.3-1.1,0.2-1.5-0.2c-1-0.8-2-1.5-3-2.3c-0.2-0.1-0.4-0.2-0.6-0.3
	c-1.3-0.3-2.7,0.2-3.6,1.1c-0.1,0.1-0.1,0.1-0.2,0.2C33,34.5,33,34.8,33,35c-0.1,1.1,0.5,2.2,1.6,2.7c0.3,0.1,0.6,0.3,0.8,0.5
	c0.2,0.2,0.5,0.2,0.7,0.1c1-0.6,2.4-0.2,3,0.8c0,0,0,0,0,0.1c0.1,0.1,0.2,0.3,0.4,0.4c0.2,0.2,0.3,0.6,0.3,0.9
	c-0.2,1-0.4,2.1-0.6,3.1c-0.2,1.1-0.2,1.1,0.8,1.6c0.5,0.2,1,0.5,0.9,1.1c1.4-1.9,2.3-4.2,2.6-6.6C43.5,38.4,43.5,36.9,43.2,35.4z"
	/>
<path class="st1" d="M19.6,36.4c0.6,0.4,1.2,0.8,1.8,1.2c0.2,0.2,0.5,0.2,0.8,0c1.2-0.7,2.5-1.4,3.7-2.1c0.7-0.4,1.6-0.6,1.9-1.2
	c0.3-0.6,0.1-1.5,0.1-2.2c0-0.4,0.2-0.9,0.6-1.1c0.5-0.3,1-0.7,1.6-1.1c-1.2-0.6-2.2-1.1-3.3-1.7c-0.2-0.1-0.4-0.1-0.6,0
	c-3.2,1.5-5.7,4.1-6.9,7.4C19.3,36,19.4,36.3,19.6,36.4C19.6,36.4,19.6,36.4,19.6,36.4z"/>
<path class="st1" d="M43.9,35.6c-0.1-0.4-0.3-0.5-0.6-0.2c0.3,0.6,0.4,1.2,0.4,1.8c0.2,3.1-0.6,6.2-2.4,8.8
	c-0.1,0.2-0.2,0.4-0.5,0.4c0,0.5,0,1,0,1.5c0,0.5,0.4,0.5,0.6,0.7c0.3,0.2,0.4-0.1,0.5-0.3C44.8,44.7,45.5,39.9,43.9,35.6z"/>
<path class="st1" d="M41.3,46c1.8-2.6,2.6-5.7,2.4-8.8c0-0.6-0.1-1.3-0.4-1.8c0.2,1.4,0.3,2.9,0.2,4.4c-0.3,2.4-1.2,4.6-2.6,6.6
	C41.1,46.4,41.2,46.2,41.3,46z"/>
<path class="st1" d="M25.5,51.3c0.4,0.3,0.9,0.4,1.4,0.4c-0.2,0.2-0.3,0.6-0.6,0.5C26,52,25.5,51.9,25.5,51.3z"/>
<path class="st2" d="M143.7,61.2c-0.3-1.7-0.4-3.4-0.5-5.1c-0.1-1.9-0.3-3.9-0.6-5.8c-1-4.1-5.1-6.6-9.1-5.6
	c-3.1,0.7-5.3,3.3-5.8,6.4c-0.2,1.9-0.4,3.8-0.5,5.7c-0.4,2.6-0.5,5.2-0.6,7.8c0,0.8,0.2,1.1,1.1,1.1c2.5,0,5,0,7.6,0h0.4
	c2.4,0,4.8,0,7.2,0c0.5,0,1-0.1,1-0.7C143.8,63.7,143.8,62.5,143.7,61.2z M129.2,50.9c0.7-3.3,3.9-5.5,7.2-4.8
	c2.5,0.5,4.5,2.6,4.8,5.1c0.3,2.1,0.4,4.2,0.6,6.4c-0.6-0.5-1.4-0.9-2.1-1.1c-0.3-0.1-0.2-0.2-0.1-0.4c0.6-1.2,0.9-2.6,0.7-4
	c0-0.4-0.2-0.8-0.6-0.8c-0.1,0-0.1,0-0.2,0c-1.1,0-2.2-0.5-2.7-1.5c-0.2-0.4-0.6-0.6-1-0.4c-0.2,0.1-0.3,0.2-0.4,0.4
	c-0.6,1-1.7,1.6-2.8,1.5c-0.6,0-1.2,0-1.8,0c-0.4,0-0.8,0.2-0.8,0.7c0,0.1,0,0.1,0,0.2c-0.2,1.4,0.1,2.8,0.7,4
	c0.1,0.2,0.1,0.3-0.1,0.3c-0.8,0.2-1.5,0.6-2.1,1.1C128.7,55.3,128.8,53.1,129.2,50.9z M138.8,53.4c0.1,2-1.5,3.8-3.6,3.8
	s-3.8-1.5-3.8-3.6c0-0.2,0-0.4,0-0.5c0-0.3,0.1-0.4,0.4-0.3c0.4,0,0.8,0,1.2,0c1,0,2-0.4,2.8-1.1c0.3-0.3,0.4-0.3,0.7,0
	c0.5,0.5,1.1,0.8,1.8,0.9C138.8,52.8,138.9,53,138.8,53.4z M141.8,64.2c-2.2,0-4.4,0-6.6,0c-2.2,0-4.4,0-6.6,0
	c-0.4,0-0.6-0.1-0.5-0.5c0-0.9,0-1.7,0.1-2.6c0.4-1.8,1.8-3.1,3.6-3.3c0.2,0,0.5,0,0.7,0.2c1.6,1.1,3.8,1.1,5.4,0
	c0.2-0.1,0.5-0.2,0.7-0.2c2.1,0.3,3.7,2,3.7,4.1c0,0.6,0,1.2,0,1.8C142.3,64.1,142.2,64.2,141.8,64.2z"/>
<path class="st0" d="M16.2,58.9c0-2.1-1.6-3.9-3.7-4.1c-0.3,0-0.5,0-0.8,0.2C10.1,56,8,56,6.3,55c-0.2-0.1-0.4-0.2-0.7-0.2
	C3.9,55,2.4,56.3,2,58c-0.1,0.9-0.2,1.8-0.1,2.6c0,0.4,0.1,0.6,0.5,0.5c2.2,0,4.4,0,6.6,0c2.2,0,4.5,0,6.7,0c0.4,0,0.5-0.1,0.5-0.5
	C16.1,60.1,16.2,59.5,16.2,58.9z"/>
<path class="st2" d="M136.1,105.5c-0.4-0.1-0.3-0.2-0.2-0.5c0.3-0.5,0.5-1.1,0.6-1.7c0.1-1.3,0.1-2.7,0-4.1
	c-0.1-2.3-1.8-4.3-4.1-4.7c-2-0.2-4-0.2-6-0.1c-0.3,0-0.6,0.3-0.7,0.6c-0.1,0.5-0.3,1-0.4,1.5c-0.4,1.4-0.2,3,0.6,4.3
	c0.2,0.3,0.3,0.7,0.3,1.1c-0.1,1.1,0.1,2.2,0.7,3.1c0.2,0.3,0.1,0.4-0.2,0.5c-2,0.6-3.5,2.4-3.8,4.6c-0.1,1.1-0.1,2.3-0.1,3.4
	c0,0.8,0.2,1.1,1,1.1c2.5,0,5,0,7.6,0c2.5,0,5.1,0,7.6,0c0.8,0,1-0.2,1-1c0-0.8,0-1.7,0-2.5C140.1,108.6,138.5,106.3,136.1,105.5z
	 M127,99.6c-0.4-1.1-0.4-2.3,0-3.4c0.1-0.2,0.2-0.3,0.4-0.3c1.4,0,2.9-0.1,4.3,0c2,0.2,3.6,1.9,3.4,4c0,0.1,0,0.2,0,0.4
	c-0.8-0.1-1.5-0.6-1.9-1.3c-0.5-0.8-1.1-0.8-1.6,0c-0.5,0.9-1.5,1.4-2.5,1.3c-0.3,0-0.7,0-1,0C127.5,100.4,127.2,100.1,127,99.6z
	 M135.1,102.4c0.1,2-1.5,3.8-3.5,3.9s-3.8-1.5-3.9-3.5c0-0.2,0-0.3,0-0.5c0-0.3,0.1-0.4,0.4-0.4c0.5,0,1.1,0,1.6,0
	c0.9-0.1,1.8-0.5,2.4-1.1c0.2-0.2,0.4-0.2,0.6,0c0.5,0.5,1.1,0.8,1.8,0.9C135.1,101.7,135.3,101.9,135.1,102.4z M138.1,113.1
	c-2.2,0-4.5,0-6.7,0c-2.2,0-4.4,0-6.6,0c-0.4,0-0.6-0.1-0.5-0.5c0-0.9,0-1.8,0.1-2.6c0.4-1.7,1.9-3,3.6-3.2c0.2,0,0.5,0,0.7,0.2
	c1.6,1.1,3.8,1.1,5.4,0c0.2-0.1,0.5-0.2,0.8-0.2c2.1,0.3,3.6,2,3.7,4.1c0,0.6,0,1.2,0,1.8C138.6,113,138.5,113.1,138.1,113.1z"/>
<path class="st2" d="M124.5,77.7c-0.4-0.1-0.3-0.2-0.2-0.5c0.3-0.5,0.5-1.2,0.6-1.8c0.1-1.3,0.1-2.7,0-4.1c-0.2-2.8-2.7-5-5.5-4.8
	c-2.3,0.2-4.3,1.9-4.7,4.2c-0.1,1.3-0.2,2.6-0.1,3.9c0,0.9,0.2,1.8,0.6,2.5c0.2,0.4,0.1,0.5-0.3,0.6c-2,0.6-3.4,2.3-3.7,4.4
	c-0.1,1.2-0.2,2.4-0.1,3.6c0,0.8,0.2,1.1,1,1.1c2.5,0,5,0,7.5,0c2.6,0,5.1,0,7.7,0c0.8,0,1-0.2,1-1c0-0.8,0-1.7,0-2.5
	C128.6,80.8,126.9,78.5,124.5,77.7z M116.2,71.4c0.2-2,2-3.5,4-3.3c2,0.2,3.5,2,3.4,4c0,0.3-0.2,0.3-0.4,0.2
	c-0.6-0.2-1.2-0.6-1.6-1.2c-0.5-0.8-1-0.8-1.5,0c-0.6,1-1.7,1.5-2.8,1.4C116.1,72.5,116.1,72.5,116.2,71.4z M116.9,74
	c1.4,0.2,2.8-0.3,3.8-1.2c0.2-0.2,0.3-0.1,0.4,0c0.6,0.6,1.4,1,2.2,1.1c0.2,0,0.3,0.1,0.3,0.3c0.2,2.1-1.3,4-3.3,4.2c0,0,0,0-0.1,0
	c-2,0.2-3.8-1.4-4-3.4c0-0.1,0-0.2,0-0.4C116,74.1,116.3,73.9,116.9,74L116.9,74z M126.5,85.3c-2.2,0-4.5,0-6.7,0
	c-2.2,0-4.3,0-6.5,0c-0.5,0-0.6-0.1-0.6-0.6c0-0.9,0-1.7,0.1-2.6c0.4-1.7,1.9-3,3.6-3.2c0.2,0,0.5,0,0.7,0.2c1.6,1.1,3.8,1.1,5.4,0
	c0.2-0.2,0.5-0.2,0.8-0.2c2.1,0.3,3.7,2.1,3.6,4.2c0,0.6,0,1.1,0,1.7C127,85.2,126.9,85.3,126.5,85.3L126.5,85.3z"/>
<path d="M-55.6,59c0,0.5-0.4,1-1,1c-0.5,0-1-0.4-1-1c0-0.5,0.4-1,1-1c0,0,0,0,0,0C-56,58-55.6,58.5-55.6,59z"/>
<path d="M-66.4,56.1c0,0.5-0.5,1-1,1c-0.5,0-1-0.5-1-1c0-0.5,0.5-1,1-0.9C-66.8,55.1-66.4,55.6-66.4,56.1z"/>
<path d="M-44.7,56.1c0,0.5-0.5,1-1,0.9c-0.5,0-1-0.5-0.9-1c0,0,0,0,0,0c0-0.5,0.5-1,1-0.9C-45.1,55.1-44.7,55.6-44.7,56.1z"/>
<path d="M-62.1,57.3c0.5,0,1,0.5,0.9,1c0,0.5-0.4,0.9-1,0.9c-0.5,0-1-0.4-1-1C-63.1,57.7-62.7,57.3-62.1,57.3
	C-62.1,57.3-62.1,57.3-62.1,57.3z"/>
<path d="M-50,58.3c0,0.5-0.4,1-1,1c-0.5,0-1-0.4-1-1c0-0.5,0.4-1,1-1c0,0,0,0,0,0C-50.4,57.3-50,57.7-50,58.3z"/>
<path d="M-42.4,20.2c0,0.5-0.4,1-1,1c0,0,0,0,0,0c-0.5,0-1-0.4-1-0.9c0-0.6,0.5-1,1-1C-42.8,19.2-42.4,19.6-42.4,20.2z"/>
<path d="M-38.4,24.1c0,0.5-0.4,1-1,1c-0.5,0-1-0.4-1-1c0,0,0,0,0,0c0-0.5,0.4-1,1-0.9c0,0,0,0,0,0C-38.8,23.2-38.4,23.6-38.4,24.1z"
	/>
<path d="M-35.6,29c0,0.5-0.4,1-1,1c-0.5,0-1-0.4-1-0.9c0-0.5,0.4-1,0.9-1c0,0,0.1,0,0.1,0C-36,28.1-35.6,28.5-35.6,29z"/>
<path d="M-34.1,34.5c0,0.5-0.4,1-1,1c-0.5,0-1-0.4-1-1c0-0.5,0.4-1,1-1c0,0,0,0,0,0C-34.5,33.5-34.1,34-34.1,34.5z"/>
<path d="M-69.7,19.2c0.5,0,1,0.4,1,1c0,0.5-0.4,1-1,1c0,0,0,0,0,0c-0.5,0-1-0.4-1-1c0,0,0,0,0,0C-70.7,19.6-70.3,19.2-69.7,19.2z"/>
<path d="M-73.7,23.2c0.5,0,1,0.4,1,1c0,0,0,0,0,0c0,0.5-0.4,1-1,1c-0.6,0-1-0.5-1-1C-74.7,23.6-74.3,23.2-73.7,23.2z"/>
<path d="M-75.6,29c0,0.5-0.4,1-1,1c-0.6,0-1-0.5-1-1c0,0,0,0,0,0c0-0.5,0.5-1,1-0.9c0,0,0,0,0,0C-76,28.1-75.6,28.5-75.6,29
	C-75.6,29-75.6,29-75.6,29z"/>
<path d="M-77,34.5c0,0.5-0.4,1-1,1c-0.5,0-1-0.4-1-1c0-0.5,0.4-1,1-1c0,0,0,0,0,0C-77.5,33.5-77.1,33.9-77,34.5z"/>
<path class="st0" d="M-64.5,43.1c-0.7,0-1.2-0.5-1.3-1.1c-0.1-0.2-0.1-0.4-0.3-0.6c-0.8-1.4-1.2-3.1-1.1-4.8c0-0.2,0-0.4-0.2-0.5
	c-0.7-0.4-1.3-0.8-2-1.3c-1,4.9,0.9,9.9,4.9,12.8c-0.3-1.3-0.2-2.6,0.3-3.8C-63.9,43.4-64,43.2-64.5,43.1z"/>
<path d="M-56.5,22.8c-8,0-14.5,6.5-14.5,14.5s6.5,14.5,14.5,14.5c8,0,14.5-6.5,14.5-14.5C-42,29.3-48.5,22.8-56.5,22.8
	C-56.5,22.8-56.5,22.8-56.5,22.8z M-68.8,32.9c1.2-3.3,3.7-6,6.9-7.4c0.2-0.1,0.4-0.1,0.6,0c1.1,0.5,2.2,1.1,3.3,1.7
	c-0.6,0.4-1.1,0.8-1.6,1.1c-0.4,0.2-0.6,0.6-0.6,1.1c0,0.8,0.2,1.7-0.1,2.2c-0.3,0.6-1.2,0.8-1.9,1.2c-1.2,0.7-2.5,1.4-3.7,2.1
	c-0.2,0.2-0.5,0.2-0.8,0c-0.6-0.4-1.2-0.8-1.8-1.2C-68.8,33.4-68.9,33.2-68.8,32.9C-68.8,32.9-68.8,32.9-68.8,32.9z M-64.1,43.9
	c-0.5,1.2-0.6,2.5-0.3,3.8c-4-2.9-5.9-8-4.9-12.8c0.7,0.4,1.3,0.9,2,1.3c0.2,0.1,0.2,0.3,0.2,0.5c-0.1,1.7,0.2,3.3,1.1,4.8
	c0.1,0.2,0.2,0.4,0.3,0.6c0.1,0.7,0.7,1.1,1.3,1.1C-64,43.2-63.9,43.4-64.1,43.9z M-62.7,48.4c-0.1-0.6-0.2-1.2-0.4-1.7
	c-0.1-0.5-0.1-1,0.1-1.5c0.2-0.7,0.5-1.4,0.7-2.1c0.2-0.6,0-1-0.6-1c-1.3-0.1-1.8-0.9-2.2-2c-0.4-0.9-0.6-1.9-0.6-3
	c0-0.4,0.1-0.5,0.5-0.5c1.1,0,2.1,0,3.2,0c0.9,0.1,1.9,0.4,2.8,0.8c0.1,0,0.1,0.1,0.2,0.2c0.1,0.1,0.1,0.2,0.1,0.3
	c0.3,1.4,1.1,2.4,2.7,2.4c0.3,0,0.4,0.1,0.4,0.4c0.1,1.5,0.1,1.5-1.2,2.2c-2,1-1.7,0.5-1.7,2.7c0,0.2-0.1,0.4-0.2,0.6
	c-0.8,0.9-1.5,1.7-2.3,2.6C-61.7,49-62.4,48.9-62.7,48.4z M-60.1,49.8c0.1-0.3,0.3-0.5,0.6-0.7c0.5-0.6,0.9-1.2,1.5-1.7
	c0.6-0.5,0.9-1.3,0.8-2.1c-0.1-0.4,0.1-0.7,0.5-0.8c0.6-0.3,1.2-0.6,1.9-0.9c0.4-0.2,0.6-0.6,0.6-1c0-0.9,0-1.7,0-2.6
	c0-0.5-0.2-0.9-0.7-0.9c-1.4,0.1-2.6-0.9-2.7-2.3c-0.1-0.4-0.4-0.6-0.8-0.7c-1.6-0.5-3.1-1.3-4.9-0.9l0-0.2c0.6-0.4,1.2-0.7,1.9-1.1
	c0.7-0.4,1.4-0.8,2.2-1.2c0.4-0.2,0.7-0.6,0.6-1.1c0-0.6,0-1.1,0-1.7c0-0.4,0.1-0.7,0.5-0.9c0.7-0.4,1.3-0.9,2-1.3
	c0.7-0.5,0.6-1.1-0.1-1.5c-1-0.5-2-1-3-1.5c0.2-0.2,0.4-0.2,0.6-0.2c5.2-1,10.5,1.4,13.3,5.9c0.3,0.5,0.2,0.6-0.3,0.8
	c-0.5,0.3-1.2,0.2-1.6-0.2c-0.8-0.7-1.6-1.2-2.4-1.8c-0.1-0.1-0.2-0.2-0.3-0.3c-1.4-0.4-2.8-0.4-4.2,0.1c-0.7,0.5-1.4,1.1-2.1,1.6
	c-0.3,0.2-0.5,0.6-0.4,1c0.2,0.9,0.3,1.7,0.4,2.6c0,0.3,0.2,0.6,0.5,0.8c0.7,0.5,1.4,0.9,2.1,1.4c0.6,0.5,1.4,0.7,2.1,0.4
	c0.5-0.2,1-0.1,1.3,0.4c0.2,0.2,0.3,0.6,0.2,0.9c-0.3,1.3-0.5,2.5-0.8,3.8c-0.2,0.4,0.1,0.9,0.5,1.1c0,0,0,0,0.1,0c0,0,0,0,0.1,0
	c1.3,0.3,1.5,1.2,1.3,2.3l0,0l0,0c0.1,0.7,0.1,0.7,1.2,1.5C-51,50-55.8,51.1-60.1,49.8z M-46.3,45.4c-0.1,0.2-0.2,0.5-0.5,0.3
	c-0.3-0.2-0.7-0.2-0.6-0.7c0-0.5,0-1,0-1.5c0-0.7-0.4-0.9-0.9-1.1c-1-0.5-1-0.5-0.8-1.6c0.2-1,0.4-2.1,0.6-3.1
	c0.1-0.3,0-0.7-0.3-0.9c-0.1-0.1-0.3-0.3-0.4-0.4c-0.6-1.1-1.9-1.5-2.9-0.9c0,0,0,0-0.1,0c-0.2,0.1-0.5,0.1-0.7-0.1
	c-0.2-0.2-0.5-0.4-0.8-0.5c-1.1-0.5-1.7-1.5-1.6-2.7c0-0.3,0-0.5,0.2-0.6c0.1,0,0.1-0.1,0.2-0.2c0.9-1,2.3-1.4,3.6-1.1
	c0.2,0,0.4,0.1,0.6,0.3c1,0.8,2,1.5,3,2.3c0.4,0.4,1,0.5,1.5,0.2c0.3-0.2,0.7-0.3,1-0.4c0.3-0.3,0.5-0.2,0.6,0.2
	C-42.7,37-43.5,41.8-46.3,45.4z"/>
<path class="st2" d="M-58.8,45.6c0-2.1-0.3-1.6,1.7-2.7c1.3-0.7,1.3-0.7,1.2-2.2c0-0.3-0.1-0.4-0.4-0.4c-1.6,0-2.3-0.9-2.7-2.4
	c0-0.1-0.1-0.2-0.1-0.3c0-0.1-0.1-0.2-0.2-0.2c-0.9-0.4-1.8-0.7-2.8-0.8c-1.1,0-2.1,0-3.2,0c-0.4,0-0.5,0.1-0.5,0.5c0,1,0.2,2,0.6,3
	c0.4,1.1,0.9,1.9,2.2,2c0.6,0,0.8,0.5,0.6,1c-0.2,0.7-0.4,1.4-0.7,2.1c-0.2,0.5-0.2,1-0.1,1.5c0.1,0.6,0.2,1.2,0.4,1.7
	c0.3,0.5,0.9,0.6,1.4,0.4c0.8-0.9,1.5-1.7,2.3-2.6C-58.8,46-58.8,45.8-58.8,45.6z"/>
<path class="st2" d="M-45,32.5c-0.3,0.1-0.7,0.2-1,0.4c-0.5,0.3-1.1,0.2-1.5-0.2c-1-0.8-2-1.5-3-2.3c-0.2-0.1-0.4-0.2-0.6-0.3
	c-1.3-0.3-2.7,0.2-3.6,1.1c-0.1,0.1-0.1,0.1-0.2,0.2c-0.3,0.1-0.3,0.4-0.2,0.6c-0.1,1.1,0.5,2.2,1.6,2.7c0.3,0.1,0.6,0.3,0.8,0.5
	c0.2,0.2,0.5,0.2,0.7,0.1c1-0.6,2.4-0.2,3,0.8c0,0,0,0,0,0.1c0.1,0.1,0.2,0.3,0.4,0.4c0.2,0.2,0.3,0.6,0.3,0.9
	c-0.2,1-0.4,2.1-0.6,3.1c-0.2,1.1-0.2,1.1,0.8,1.6c0.5,0.2,1,0.5,0.9,1.1c1.4-1.9,2.3-4.2,2.6-6.6C-44.7,35.4-44.8,34-45,32.5z"/>
<path class="st2" d="M-68.6,33.5c0.6,0.4,1.2,0.8,1.8,1.2c0.2,0.2,0.5,0.2,0.8,0c1.2-0.7,2.5-1.4,3.7-2.1c0.7-0.4,1.6-0.6,1.9-1.2
	c0.3-0.6,0.1-1.5,0.1-2.2c0-0.4,0.2-0.9,0.6-1.1c0.5-0.3,1-0.7,1.6-1.1c-1.2-0.6-2.2-1.1-3.3-1.7c-0.2-0.1-0.4-0.1-0.6,0
	c-3.2,1.5-5.7,4.1-6.9,7.4C-68.9,33.1-68.9,33.4-68.6,33.5C-68.6,33.5-68.6,33.5-68.6,33.5z"/>
<path class="st2" d="M-44.4,32.7c-0.1-0.4-0.3-0.5-0.6-0.2c0.3,0.6,0.4,1.2,0.4,1.8c0.2,3.1-0.6,6.2-2.4,8.8
	c-0.1,0.2-0.2,0.4-0.5,0.4c0,0.5,0,1,0,1.5c0,0.5,0.4,0.5,0.6,0.7c0.3,0.2,0.4-0.1,0.5-0.3C-43.5,41.8-42.7,37-44.4,32.7z"/>
<path class="st2" d="M-47,43.1c1.8-2.6,2.6-5.7,2.4-8.8c0-0.6-0.1-1.3-0.4-1.8c0.2,1.4,0.3,2.9,0.2,4.4c-0.3,2.4-1.2,4.6-2.6,6.6
	C-47.2,43.5-47.1,43.3-47,43.1z"/>
<path class="st2" d="M-62.7,48.4c0.4,0.3,0.9,0.4,1.4,0.4c-0.2,0.2-0.3,0.6-0.6,0.5C-62.2,49.1-62.7,49-62.7,48.4z"/>
<path class="st1" d="M-48,14.9c-0.3-1.7-0.4-3.4-0.5-5.1c-0.1-1.9-0.3-3.9-0.6-5.8c-1-4.1-5.1-6.6-9.1-5.6c-3.1,0.7-5.3,3.3-5.8,6.4
	c-0.2,1.9-0.4,3.8-0.5,5.7c-0.4,2.6-0.5,5.2-0.6,7.8c0.1,0.8,0.2,1.1,1.1,1.1c2.5,0,5,0,7.6,0h0.4c2.4,0,4.8,0,7.2,0
	c0.5,0,1-0.1,1-0.7C-47.9,17.4-47.9,16.2-48,14.9z M-62.5,4.6c0.7-3.3,3.9-5.5,7.2-4.8c2.5,0.5,4.5,2.6,4.8,5.1
	c0.3,2.1,0.4,4.2,0.6,6.4c-0.6-0.5-1.4-0.9-2.1-1.1c-0.3-0.1-0.2-0.2-0.1-0.4c0.6-1.2,0.9-2.6,0.7-4c0-0.4-0.2-0.8-0.6-0.8
	c-0.1,0-0.1,0-0.2,0c-1.1,0-2.2-0.5-2.7-1.5c-0.2-0.4-0.6-0.6-1-0.4c-0.2,0.1-0.3,0.2-0.4,0.4c-0.6,1-1.7,1.6-2.8,1.5
	c-0.6,0-1.2,0-1.8,0c-0.4,0-0.8,0.2-0.8,0.7c0,0.1,0,0.1,0,0.2c-0.2,1.4,0.1,2.8,0.7,4c0.1,0.2,0.1,0.3-0.1,0.3
	c-0.8,0.2-1.5,0.6-2.1,1.1C-63,9-62.9,6.8-62.5,4.6z M-52.9,7.1c0.1,2-1.5,3.8-3.6,3.8c-2,0.1-3.8-1.5-3.8-3.6c0-0.2,0-0.4,0-0.5
	c0-0.3,0.1-0.4,0.4-0.3c0.4,0,0.8,0,1.2,0c1,0,2-0.4,2.8-1.1c0.3-0.3,0.4-0.3,0.7,0c0.5,0.5,1.1,0.8,1.8,0.9
	C-52.9,6.5-52.8,6.8-52.9,7.1z M-49.9,17.9c-2.2,0-4.4,0-6.6,0c-2.2,0-4.4,0-6.6,0c-0.4,0-0.6-0.1-0.5-0.5c0-0.9,0-1.7,0.1-2.6
	c0.4-1.8,1.8-3.1,3.6-3.3c0.2,0,0.5,0,0.7,0.2c1.6,1.1,3.8,1.1,5.4,0c0.2-0.1,0.5-0.2,0.7-0.2c2.1,0.3,3.7,2,3.7,4.1
	c0,0.6,0,1.2,0,1.8C-49.4,17.8-49.5,17.9-49.9,17.9z"/>
<path class="st0" d="M-72.1,56c0-2.1-1.6-3.9-3.7-4.1c-0.3,0-0.5,0-0.8,0.2c-1.6,1.1-3.8,1.1-5.4,0c-0.2-0.1-0.4-0.2-0.7-0.2
	c-1.8,0.2-3.2,1.5-3.6,3.2c-0.1,0.9-0.2,1.8-0.1,2.6c0,0.4,0.1,0.6,0.5,0.5c2.2,0,4.4,0,6.6,0c2.2,0,4.5,0,6.7,0
	c0.4,0,0.5-0.1,0.5-0.5C-72.1,57.2-72,56.6-72.1,56z"/>
<path class="st1" d="M-74.5,50.7c-0.4-0.1-0.3-0.2-0.2-0.5c0.3-0.5,0.5-1.1,0.6-1.7c0.1-1.3,0.1-2.7,0-4.1c-0.1-2.3-1.8-4.3-4.1-4.7
	c-2-0.2-4-0.2-6-0.1c-0.3,0-0.6,0.3-0.7,0.6c-0.1,0.5-0.3,1-0.4,1.5c-0.4,1.4-0.2,3,0.6,4.3c0.2,0.3,0.3,0.7,0.3,1.1
	c-0.1,1.1,0.1,2.2,0.7,3.1c0.2,0.3,0.1,0.4-0.2,0.5c-2,0.6-3.5,2.4-3.8,4.6c-0.1,1.1-0.1,2.3-0.1,3.4c0,0.8,0.2,1.1,1,1.1
	c2.5,0,5,0,7.6,0c2.5,0,5.1,0,7.6,0c0.8,0,1-0.2,1-1c0-0.8,0-1.7,0-2.5C-70.5,53.7-72.1,51.4-74.5,50.7z M-83.6,44.7
	c-0.4-1.1-0.4-2.3,0-3.4c0.1-0.2,0.2-0.3,0.4-0.3c1.4,0,2.9-0.1,4.3,0c2,0.2,3.6,1.9,3.4,4c0,0.1,0,0.2,0,0.4
	c-0.8-0.1-1.5-0.6-1.9-1.3c-0.5-0.8-1.1-0.8-1.6,0c-0.5,0.9-1.5,1.4-2.5,1.3c-0.3,0-0.7,0-1,0C-83.1,45.6-83.4,45.3-83.6,44.7z
	 M-75.5,47.5c0.1,2-1.5,3.8-3.5,3.9c-2,0.1-3.8-1.5-3.9-3.5c0-0.2,0-0.3,0-0.5c0-0.3,0.1-0.4,0.4-0.4c0.5,0,1.1,0,1.6,0
	c0.9-0.1,1.8-0.5,2.4-1.1c0.2-0.2,0.4-0.2,0.6,0c0.5,0.5,1.1,0.8,1.8,0.9C-75.6,46.8-75.3,47-75.5,47.5z M-72.5,58.3
	c-2.2,0-4.5,0-6.7,0c-2.2,0-4.4,0-6.6,0c-0.4,0-0.6-0.1-0.5-0.5c0-0.9,0-1.8,0.1-2.6c0.4-1.7,1.9-3,3.6-3.2c0.2,0,0.5,0,0.7,0.2
	c1.6,1.1,3.8,1.1,5.4,0c0.2-0.1,0.5-0.2,0.8-0.2c2.1,0.3,3.6,2,3.7,4.1c0,0.6,0,1.2,0,1.8C-72,58.2-72.1,58.3-72.5,58.3z"/>
<path class="st1" d="M-29.2,50.7c-0.4-0.1-0.3-0.2-0.2-0.5c0.3-0.5,0.5-1.2,0.6-1.8c0.1-1.3,0.1-2.7,0-4.1c-0.2-2.8-2.7-5-5.5-4.8
	c-2.3,0.2-4.3,1.9-4.7,4.2c-0.1,1.3-0.2,2.6-0.1,3.9c0,0.9,0.2,1.8,0.6,2.5c0.2,0.4,0.1,0.5-0.3,0.6c-2,0.6-3.4,2.3-3.7,4.4
	c-0.1,1.2-0.2,2.4-0.1,3.6c0,0.8,0.2,1.1,1,1.1c2.5,0,5,0,7.5,0c2.6,0,5.1,0,7.7,0c0.8,0,1-0.2,1-1c0-0.8,0-1.7,0-2.5
	C-25.2,53.7-26.8,51.4-29.2,50.7z M-37.6,44.4c0.2-2,2-3.5,4-3.3c2,0.2,3.5,2,3.4,4c0,0.3-0.2,0.3-0.4,0.2c-0.6-0.2-1.2-0.6-1.6-1.2
	c-0.5-0.8-1-0.8-1.5,0c-0.6,1-1.7,1.5-2.8,1.4C-37.7,45.5-37.7,45.5-37.6,44.4z M-36.9,46.9c1.4,0.2,2.8-0.3,3.8-1.2
	c0.2-0.2,0.3-0.1,0.4,0c0.6,0.6,1.4,1,2.2,1.1c0.2,0,0.3,0.1,0.3,0.3c0.2,2.1-1.3,4-3.3,4.2c0,0,0,0-0.1,0c-2,0.2-3.8-1.4-4-3.4
	c0-0.1,0-0.2,0-0.4C-37.8,47-37.5,46.9-36.9,46.9L-36.9,46.9z M-27.2,58.3c-2.2,0-4.5,0-6.7,0c-2.2,0-4.3,0-6.5,0
	c-0.5,0-0.6-0.1-0.6-0.6c0-0.9,0-1.7,0.1-2.6c0.4-1.7,1.9-3,3.6-3.2c0.2,0,0.5,0,0.7,0.2c1.6,1.1,3.8,1.1,5.4,0
	c0.2-0.2,0.5-0.2,0.8-0.2c2.1,0.3,3.7,2.1,3.6,4.2c0,0.6,0,1.1,0,1.7C-26.7,58.2-26.9,58.3-27.2,58.3L-27.2,58.3z"/>
<g>
	<path class="st2" d="M30,20.9c0,0.6,0,0.6-0.7,0.6c-2.2,0-4.3,0-6.5,0c-0.3,0-0.5-0.1-0.4-0.4c0-0.8,0-0.9,0.8-0.8
		c0.4,0,0.5-0.1,0.5-0.5c-0.1-1.1,0-2.1,0-3.2c0.1-1.2,1-2.3,2.2-2.6c1.3-0.4,2.6-0.8,3.9-1.1c0.3-0.1,0.4-0.2,0.4-0.5
		c0.1-0.7-0.2-1.5-0.7-2c-0.7-0.6-1.1-1.5-1.2-2.5c-0.1-1.1-0.1-2.3,0.1-3.4c0.6-2.4,3-3.8,5.3-3.3c1.9,0.5,3.2,2.1,3.4,4
		c0.1,0.8,0.1,1.7,0,2.5c-0.1,1.2-0.7,2.3-1.6,3.1c-0.2,0.1-0.3,0.4-0.3,0.7c0,0.4-0.2,0.9,0.1,1.2c0.2,0.3,0.7,0.3,1.1,0.4
		c0.3,0.1,0.6,0.2,0.8,0.2c0.4,0.1,0.6,0.2,0.4,0.7c0,0.1,0,0.2,0,0.3c0,0.4-0.2,0.5-0.6,0.4c-0.6-0.1-1.1-0.3-1.7-0.5
		c-0.3-0.1-0.7-0.1-0.9,0.2c-1,0.8-2.5,0.8-3.5,0c-0.3-0.2-0.6-0.3-1-0.2c-1.2,0.4-2.3,0.7-3.5,1c-0.9,0.2-1.5,0.9-1.5,1.8
		c0,0.9,0,1.7,0,2.6c0,0.3,0.1,0.4,0.4,0.4c0.4,0,0.8,0,1.2,0c0.3,0,0.4-0.1,0.4-0.4c0-0.3,0-0.6,0-0.9c0-0.2,0.1-0.4,0.3-0.5
		c0,0,0.1,0,0.1,0c1.2,0,1.1,0,1.1,1c0,0.8,0,0.8,0.8,0.8c0.1,0,0.2,0,0.3,0C30.1,20.2,30.2,20.4,30,20.9z"/>
	<path class="st2" d="M31.2,21c0-0.7,0-0.7,0.8-0.7c1.5,0,3,0,4.5,0c0.3,0,0.5-0.1,0.4-0.4c0-0.2,0-0.4,0-0.7c0-0.6,0-0.6,0.6-0.6
		c0.6,0,0.6,0,0.6,0.7c0,1,0,1,1,1c0.4,0,0.9,0.2,1.2-0.1c0.2-0.2,0.1-0.8,0.1-1.2c0-0.6,0-1.2,0-1.8c0.1-1-0.6-1.8-1.5-2
		c-0.3-0.1-0.4-0.2-0.3-0.5c0-0.1,0.1-0.2,0.1-0.4c0.2-0.5,0.2-0.5,0.7-0.4c1.4,0.4,2.3,1.7,2.2,3.1c0,0.9,0,1.8,0,2.7
		c0,0.3,0.1,0.4,0.4,0.4c1,0,0.9,0,0.9,1c0,0.3-0.1,0.3-0.3,0.3c-1.8,0-3.6,0-5.4,0h-5.5C31.2,21.5,31.2,21.5,31.2,21z"/>
	<path class="st3" d="M31.7,5.9c0.6,0,1.2,0,1.8,0c0.2,0,0.4,0.1,0.5,0.2c0.5,0.7,1,1.3,1.5,2c0.1,0.1,0.2,0.4,0.1,0.5
		c-0.6,1.6-2.4,2.5-4.1,1.8c-1.1-0.4-1.9-1.4-2-2.5c-0.1-0.6,0-1.2,0-1.8c0-0.2,0.1-0.3,0.3-0.3C30.4,5.9,31.1,5.9,31.7,5.9z"/>
	<path class="st4" d="M35.8,6.3c-0.4-0.6-0.8-1-1.1-1.5c-0.1-0.2-0.3-0.3-0.6-0.3c-1.3,0-2.7,0-4,0c-0.5,0-0.5,0-0.3-0.4
		c0.7-1.2,2.1-1.9,3.5-1.6c1.4,0.3,2.4,1.5,2.4,2.9C35.8,5.7,35.8,6,35.8,6.3z"/>
	<path class="st5" d="M33.9,12.5c0,0.7-0.2,1-0.8,1.1c-0.6,0.2-1.2,0-1.6-0.4c-0.1-0.4-0.2-0.9-0.1-1.3c0-0.1,0.2-0.1,0.2-0.1
		c0.6,0.1,1.3,0.1,1.9,0c0.2,0,0.3,0,0.3,0.2C33.9,12.2,33.9,12.3,33.9,12.5z"/>
	<path class="st6" d="M36.3,16c-0.1,0.3-0.1,0.7-0.3,0.9c-0.2,0.2-0.5-0.1-0.8-0.1c-0.1,0-0.1,0-0.2,0c-0.8-0.2-0.7-0.2-0.6-1
		c0.1-0.4,0.2-0.5,0.6-0.3c0.3,0.1,0.7,0.2,1,0.3C36.2,15.8,36.3,15.8,36.3,16z"/>
	<path class="st7" d="M37.7,16.2c0.3,0.1,0.6,0.2,0.9,0.2c0.1,0,0.2,0.2,0.1,0.3c-0.1,0.3-0.2,0.6-0.2,0.8c0,0.1-0.1,0.2-0.2,0.1
		c-0.3-0.1-0.6-0.2-0.9-0.3c0,0,0,0,0,0c-0.2-0.3,0.1-0.5,0.1-0.8C37.4,16.5,37.5,16.2,37.7,16.2z"/>
</g>
<g>
	<path class="st2" d="M7.3,57.8c0,0.6,0,0.6-0.6,0.6c-1.9,0-3.9,0-5.8,0c-0.3,0-0.4-0.1-0.4-0.4c0-0.8,0-0.8,0.8-0.7
		c0.3,0,0.4-0.1,0.4-0.4c-0.1-0.9,0-1.9,0-2.8c0.1-1.1,0.9-2,2-2.3c1.2-0.3,2.3-0.7,3.5-1c0.3-0.1,0.3-0.2,0.3-0.5
		c0.1-0.7-0.1-1.3-0.7-1.7c-0.6-0.6-1-1.4-1-2.2c-0.1-1-0.1-2,0.1-3c0.5-2.1,2.6-3.4,4.7-2.9c1.7,0.4,2.9,1.8,3,3.5
		c0.1,0.7,0.1,1.5,0,2.2c-0.1,1.1-0.6,2.1-1.4,2.7c-0.2,0.1-0.3,0.4-0.3,0.6c0,0.4-0.1,0.8,0.1,1.1c0.2,0.2,0.7,0.2,1,0.3
		c0.2,0.1,0.5,0.2,0.8,0.2c0.4,0.1,0.5,0.2,0.4,0.6c0,0.1,0,0.2,0,0.3c0,0.3-0.2,0.5-0.5,0.4c-0.5-0.1-1-0.3-1.5-0.4
		c-0.3-0.1-0.6,0-0.8,0.1c-0.9,0.7-2.2,0.7-3.1,0c-0.2-0.2-0.6-0.3-0.9-0.1c-1,0.3-2.1,0.6-3.1,0.9c-0.8,0.2-1.3,0.8-1.3,1.6
		c0,0.8,0,1.5,0,2.3c0,0.3,0.1,0.4,0.4,0.4c0.4,0,0.7,0,1.1,0c0.2,0,0.3-0.1,0.3-0.3c0-0.3,0-0.5,0-0.8c0-0.2,0.1-0.4,0.3-0.4
		c0,0,0.1,0,0.1,0c1.1,0,0.9,0,0.9,0.8c0,0.7,0,0.7,0.7,0.7c0.1,0,0.1,0,0.2,0C7.4,57.2,7.5,57.4,7.3,57.8z"/>
	<path class="st2" d="M8.4,57.9c0-0.6,0-0.6,0.7-0.6c1.3,0,2.7,0,4,0c0.3,0,0.4-0.1,0.4-0.4c0-0.2,0-0.4,0-0.6c0-0.6,0-0.6,0.6-0.6
		c0.6,0,0.6,0,0.6,0.6c0,0.9,0,0.9,0.9,0.9c0.4,0,0.8,0.2,1.1-0.1c0.2-0.2,0.1-0.7,0.1-1c0-0.5,0-1,0-1.6c0.1-0.8-0.5-1.6-1.3-1.8
		c-0.2-0.1-0.4-0.1-0.2-0.4c0-0.1,0.1-0.2,0.1-0.3c0.2-0.5,0.2-0.5,0.6-0.3c1.2,0.4,2,1.5,2,2.8c0,0.8,0,1.6,0,2.4
		c0,0.3,0.1,0.3,0.3,0.3c0.9,0,0.8,0,0.8,0.8c0,0.3-0.1,0.3-0.3,0.3c-1.6,0-3.2,0-4.8,0H9C8.4,58.4,8.4,58.4,8.4,57.9z"/>
	<path class="st3" d="M8.9,44.4c0.5,0,1.1,0,1.6,0c0.2,0,0.3,0.1,0.4,0.2c0.4,0.6,0.9,1.2,1.4,1.8c0.1,0.1,0.1,0.3,0.1,0.5
		c-0.5,1.4-2.2,2.2-3.6,1.6c-1-0.4-1.6-1.2-1.8-2.2c-0.1-0.5,0-1.1,0-1.6c0-0.2,0.1-0.2,0.3-0.2C7.7,44.4,8.3,44.4,8.9,44.4z"/>
	<path class="st4" d="M12.5,44.9c-0.4-0.5-0.7-0.9-1-1.3c-0.1-0.2-0.3-0.3-0.5-0.2c-1.2,0-2.4,0-3.5,0c-0.4,0-0.4,0-0.2-0.4
		c0.6-1.1,1.9-1.7,3.1-1.4c1.2,0.3,2.1,1.3,2.1,2.6C12.5,44.3,12.5,44.5,12.5,44.9z"/>
	<path class="st5" d="M10.8,50.3c0,0.6-0.1,0.9-0.7,1c-0.5,0.2-1.1,0-1.4-0.4c-0.1-0.4-0.1-0.8-0.1-1.2c0-0.1,0.1-0.1,0.2,0
		c0.6,0.1,1.1,0.1,1.7,0c0.2,0,0.3,0,0.2,0.2C10.8,50.1,10.8,50.2,10.8,50.3z"/>
	<path class="st6" d="M12.9,53.5c-0.1,0.3-0.1,0.6-0.3,0.8c-0.2,0.2-0.5-0.1-0.7-0.1c-0.1,0-0.1,0-0.2,0c-0.7-0.2-0.7-0.2-0.5-0.9
		c0.1-0.3,0.2-0.4,0.5-0.3c0.3,0.1,0.6,0.2,0.9,0.3C12.8,53.2,12.9,53.3,12.9,53.5z"/>
	<path class="st7" d="M14.2,53.6c0.3,0.1,0.5,0.1,0.8,0.2c0.1,0,0.1,0.1,0.1,0.2c-0.1,0.3-0.1,0.5-0.2,0.8c0,0.1-0.1,0.1-0.2,0.1
		c-0.3-0.1-0.5-0.2-0.8-0.2c0,0,0,0,0,0c-0.2-0.3,0.1-0.5,0.1-0.7C13.9,53.9,13.9,53.7,14.2,53.6z"/>
</g>
<g>
	<path class="st2" d="M50.3,57.3c0,0.6,0,0.6-0.6,0.6c-1.9,0-3.9,0-5.8,0c-0.3,0-0.4-0.1-0.4-0.4c0-0.8,0-0.8,0.8-0.7
		c0.3,0,0.4-0.1,0.4-0.4c-0.1-0.9,0-1.9,0-2.8c0.1-1.1,0.9-2,2-2.3c1.2-0.3,2.3-0.7,3.5-1c0.3-0.1,0.3-0.2,0.3-0.5
		c0.1-0.7-0.1-1.3-0.7-1.7c-0.6-0.6-1-1.4-1-2.2c-0.1-1-0.1-2,0.1-3c0.5-2.1,2.6-3.4,4.7-2.9c1.7,0.4,2.9,1.8,3,3.5
		c0.1,0.7,0.1,1.5,0,2.2c-0.1,1.1-0.6,2.1-1.4,2.7c-0.2,0.1-0.3,0.4-0.3,0.6c0,0.4-0.1,0.8,0.1,1.1c0.2,0.2,0.7,0.2,1,0.3
		c0.2,0.1,0.5,0.2,0.8,0.2c0.4,0.1,0.5,0.2,0.4,0.6c0,0.1,0,0.2,0,0.3c0,0.3-0.2,0.5-0.5,0.4c-0.5-0.1-1-0.3-1.5-0.4
		c-0.3-0.1-0.6,0-0.8,0.1c-0.9,0.7-2.2,0.7-3.1,0c-0.2-0.2-0.6-0.3-0.9-0.1c-1,0.3-2.1,0.6-3.1,0.9c-0.8,0.2-1.3,0.8-1.3,1.6
		c0,0.8,0,1.5,0,2.3c0,0.3,0.1,0.4,0.4,0.4c0.4,0,0.7,0,1.1,0c0.2,0,0.3-0.1,0.3-0.3c0-0.3,0-0.5,0-0.8c0-0.2,0.1-0.4,0.3-0.4
		c0,0,0.1,0,0.1,0c1.1,0,0.9,0,0.9,0.8c0,0.7,0,0.7,0.7,0.7c0.1,0,0.1,0,0.2,0C50.4,56.7,50.5,56.9,50.3,57.3z"/>
	<path class="st2" d="M51.4,57.4c0-0.6,0-0.6,0.7-0.6c1.3,0,2.7,0,4,0c0.3,0,0.4-0.1,0.4-0.4c0-0.2,0-0.4,0-0.6c0-0.6,0-0.6,0.6-0.6
		c0.6,0,0.6,0,0.6,0.6c0,0.9,0,0.9,0.9,0.9c0.4,0,0.8,0.2,1.1-0.1c0.2-0.2,0.1-0.7,0.1-1c0-0.5,0-1,0-1.6c0.1-0.8-0.5-1.6-1.3-1.8
		c-0.2-0.1-0.4-0.1-0.2-0.4c0-0.1,0.1-0.2,0.1-0.3c0.2-0.5,0.2-0.5,0.6-0.3c1.2,0.4,2,1.5,2,2.8c0,0.8,0,1.6,0,2.4
		c0,0.3,0.1,0.3,0.3,0.3c0.9,0,0.8,0,0.8,0.8c0,0.3-0.1,0.3-0.3,0.3c-1.6,0-3.2,0-4.8,0h-4.9C51.4,57.9,51.4,57.9,51.4,57.4z"/>
	<path class="st3" d="M51.8,44c0.5,0,1.1,0,1.6,0c0.2,0,0.3,0.1,0.4,0.2c0.4,0.6,0.9,1.2,1.4,1.8c0.1,0.1,0.1,0.3,0.1,0.5
		c-0.5,1.4-2.2,2.2-3.6,1.6c-1-0.4-1.6-1.2-1.8-2.2c-0.1-0.5,0-1.1,0-1.6c0-0.2,0.1-0.2,0.3-0.2C50.7,44,51.3,44,51.8,44z"/>
	<path class="st4" d="M55.5,44.4c-0.4-0.5-0.7-0.9-1-1.3c-0.1-0.2-0.3-0.3-0.5-0.2c-1.2,0-2.4,0-3.5,0c-0.4,0-0.4,0-0.2-0.4
		c0.6-1.1,1.9-1.7,3.1-1.4c1.2,0.3,2.1,1.3,2.1,2.6C55.5,43.9,55.5,44.1,55.5,44.4z"/>
	<path class="st5" d="M53.7,49.9c0,0.6-0.1,0.9-0.7,1c-0.5,0.2-1.1,0-1.4-0.4c-0.1-0.4-0.1-0.8-0.1-1.2c0-0.1,0.1-0.1,0.2,0
		c0.6,0.1,1.1,0.1,1.7,0c0.2,0,0.3,0,0.2,0.2C53.7,49.6,53.7,49.7,53.7,49.9z"/>
	<path class="st6" d="M55.9,53c-0.1,0.3-0.1,0.6-0.3,0.8c-0.2,0.2-0.5-0.1-0.7-0.1c-0.1,0-0.1,0-0.2,0c-0.7-0.2-0.7-0.2-0.5-0.9
		c0.1-0.3,0.2-0.4,0.5-0.3c0.3,0.1,0.6,0.2,0.9,0.3C55.8,52.8,55.9,52.9,55.9,53z"/>
	<path class="st7" d="M57.1,53.2c0.3,0.1,0.5,0.1,0.8,0.2c0.1,0,0.1,0.1,0.1,0.2c-0.1,0.3-0.1,0.5-0.2,0.8c0,0.1-0.1,0.1-0.2,0.1
		c-0.3-0.1-0.5-0.2-0.8-0.2c0,0,0,0,0,0c-0.2-0.3,0.1-0.5,0.1-0.7C56.9,53.4,56.9,53.2,57.1,53.2z"/>
</g>
</svg>
