<svg xmlns="http://www.w3.org/2000/svg" viewBox="0 0 64 53.27127"><defs><style>.cls-1{fill:#222;}.cls-2{fill:#3d3d3d;}.cls-3{fill:#737373;}.cls-4{fill:#474747;}.cls-5{fill:none;}.cls-6{fill:#488aff;}.cls-7{fill:#fff;}.cls-8{fill:#689f38;}.cls-9{fill:#feddd3;}.cls-10{fill:#747474;}.cls-11{fill:#fdc7b7;}.cls-12{fill:#fefefe;}.cls-13{fill:#fdfefe;}</style></defs><title>experience</title><g id="OBJECTS"><path class="cls-1" d="M19.34358.70886a1.79573,1.79573,0,0,1-1.30836,0Z"/><path class="cls-2" d="M43.59863.70886c-.10064.12307-.20129.14926-.30193,0Z"/><path class="cls-3" d="M19.8468.70886c-.0671.145-.13419.12711-.20129,0Z"/><path class="cls-4" d="M45.51085.70886c-.06709.12322-.13419.10892-.20128,0Z"/><path class="cls-5" d="M9.24324,21.871a4.35762,4.35762,0,0,1,2.2842-.07378.478.478,0,0,0,.60084-.26183A53.71536,53.71536,0,0,1,29.82959,5.05227,27.25005,27.25005,0,0,0,27.023,3.87249,22.3669,22.3669,0,0,0,16.19109,2.40786a10.03249,10.03249,0,0,0-8.73248,8.62638A22.07723,22.07723,0,0,0,8.80415,21.684C8.896,21.95171,9.00885,21.93967,9.24324,21.871Z"/><path class="cls-5" d="M12.13321,31.41362a.50986.50986,0,0,0-.64977-.25546,3.5906,3.5906,0,0,1-1.9881-.03693c-.47838-.16253-.63616-.02957-.78839.42409a21.77741,21.77741,0,0,0-1.24711,10.371,9.87122,9.87122,0,0,0,7.81282,8.42478,17.77557,17.77557,0,0,0,7.58021-.08094,31.15974,31.15974,0,0,0,6.99752-2.3736,50.75581,50.75581,0,0,1-9.37936-6.8349A53.08476,53.08476,0,0,1,12.13321,31.41362Z"/><path class="cls-5" d="M9.24324,21.871a4.35762,4.35762,0,0,1,2.2842-.07378.478.478,0,0,0,.60084-.26183A53.71536,53.71536,0,0,1,29.82959,5.05227,27.25005,27.25005,0,0,0,27.023,3.87249,22.3669,22.3669,0,0,0,16.19109,2.40786a10.03249,10.03249,0,0,0-8.73248,8.62638A22.07723,22.07723,0,0,0,8.80415,21.684C8.896,21.95171,9.00885,21.93967,9.24324,21.871Z"/><path class="cls-5" d="M9.24324,21.871a4.35762,4.35762,0,0,1,2.2842-.07378.478.478,0,0,0,.60084-.26183A53.71536,53.71536,0,0,1,29.82959,5.05227,27.25005,27.25005,0,0,0,27.023,3.87249,22.3669,22.3669,0,0,0,16.19109,2.40786a10.03249,10.03249,0,0,0-8.73248,8.62638A22.07723,22.07723,0,0,0,8.80415,21.684C8.896,21.95171,9.00885,21.93967,9.24324,21.871Z"/><path class="cls-5" d="M40.61122,10.20642c.22053.1873.34595.12385.55173-.00911a4.69175,4.69175,0,0,1,4.27118-.52753c.8364.28864.83383.29605.46246,1.04184a2.81417,2.81417,0,0,0,1.062.97849,1.45319,1.45319,0,0,0,.17256-.09594c.49853-.3705.50969-.37761.80666.15921a4.62234,4.62234,0,0,1-.11272,4.99315.53252.53252,0,0,0,.06353.76066c.78181.91922,1.50728,1.8831,2.20994,2.86389a50.06293,50.06293,0,0,1,2.82006,4.43213,27.974,27.974,0,0,0,1.30019-3.14189,21.58087,21.58087,0,0,0,1.35526-10.49983,9.79166,9.79166,0,0,0-5.194-7.61763A12.26549,12.26549,0,0,0,44.662,2.22545a24.874,24.874,0,0,0-9.14762,1.8407,19.17042,19.17042,0,0,0-2.31962,1.011c1.33468.75311,2.59814,1.53937,3.82179,2.3879C38.25594,8.32455,39.46153,9.23007,40.61122,10.20642Z"/><path class="cls-5" d="M12.13321,31.41362a.50986.50986,0,0,0-.64977-.25546,3.5906,3.5906,0,0,1-1.9881-.03693c-.47838-.16253-.63616-.02957-.78839.42409a21.77741,21.77741,0,0,0-1.24711,10.371,9.87122,9.87122,0,0,0,7.81282,8.42478,17.77557,17.77557,0,0,0,7.58021-.08094,31.15974,31.15974,0,0,0,6.99752-2.3736,50.75581,50.75581,0,0,1-9.37936-6.8349A53.08476,53.08476,0,0,1,12.13321,31.41362Z"/><path class="cls-5" d="M34.52089,44.81855a4.55342,4.55342,0,0,1-.00938-3.42678c.28568-.75229.289-.75107.98485-.35131a3.70366,3.70366,0,0,0,.98332-1.09714.63629.63629,0,0,0-.09925-.17094c-.3855-.34154-.28415-.55592.13981-.78286a4.74068,4.74068,0,0,1,5.25672.2514c.20906.14238.31655.18739.52622-.0126a50.33065,50.33065,0,0,0,9.60783-12.38.62882.62882,0,0,0,.03728-.68979,49.7347,49.7347,0,0,0-5.23609-7.72347c-.19781-.24107-.325-.22363-.57092-.09075a4.772,4.772,0,0,1-6.485-6.51635c.149-.27185.09537-.38545-.12193-.56425a49.369,49.369,0,0,0-7.67925-5.21123.63462.63462,0,0,0-.69176.00763,46.11558,46.11558,0,0,0-4.80777,3.00662A52.85946,52.85946,0,0,0,13.47556,22.22653c-.14967.21874-.18665.34163.05848.512a3.7924,3.7924,0,0,1,.84155.85991c.50437.6707.5028.67188-.19619,1.078a.64829.64829,0,0,0,.03253.44144c.16536.30474.08054.70676.37568.96087a.769.769,0,0,0,.19929.00484c.43674-.10462.56874.05054.54772.50272a4.71577,4.71577,0,0,1-1.76138,3.57566c-.2596.21407-.25149.33247-.07819.58692A52.48878,52.48878,0,0,0,21.752,40.17575a48.45959,48.45959,0,0,0,9.33261,6.66771.75525.75525,0,0,0,.86524-.00955c.76837-.47267,1.55088-.92366,2.341-1.35918C34.59223,45.30858,34.65847,45.15853,34.52089,44.81855Z"/><path class="cls-6" d="M57.11784,36.16832a25.71033,25.71033,0,0,0-2.51023-8.29369c-.64265-1.387-.65081-1.36188-.02136-2.74915a24.80016,24.80016,0,0,0,2.654-11.65114c-.04954-.93562.04483-1.87851-.08146-2.81151A11.56347,11.56347,0,0,0,47.3515.83744C46.874.76967,46.388.80447,45.91343.70884h-.4026a.13035.13035,0,0,1-.20125,0h-1.711a.22965.22965,0,0,1-.3019,0h-.60389c-.75652.12677-1.52847.09663-2.28473.24272a29.718,29.718,0,0,0-7.718,2.54328,2.54141,2.54141,0,0,1-2.52174-.07623A31.41905,31.41905,0,0,0,23.228,1.06568C22.20982.83944,21.174.83539,20.14872.70884h-.30194a.13036.13036,0,0,1-.20126,0h-.30194a3.44455,3.44455,0,0,1-1.30838,0h-.90579a16.52581,16.52581,0,0,0-2.91186.45505,11.12725,11.12725,0,0,0-7.50512,6.603,12.08,12.08,0,0,0-.97159,4.39162,27.14464,27.14464,0,0,0,.17535,4.91169,25.86834,25.86834,0,0,0,1.2895,4.95879.89122.89122,0,0,1-.21948,1.07691,4.22936,4.22936,0,0,0-1.27158,2.71771,4.80323,4.80323,0,0,0,1.3761,4.13651.72325.72325,0,0,1,.141.86863,23.6191,23.6191,0,0,0-1.492,7.05592,20.25123,20.25123,0,0,0,.29087,5.20112,11.31966,11.31966,0,0,0,5.42069,7.53534A11.85522,11.85522,0,0,0,17.0449,52.2447a25.12172,25.12172,0,0,0,5.95367-.3234,33.5152,33.5152,0,0,0,7.88-2.69844,1.37313,1.37313,0,0,1,1.32041.0232,32.59917,32.59917,0,0,0,8.47842,2.79455,25.07906,25.07906,0,0,0,5.41162.20012,11.85612,11.85612,0,0,0,5.18651-1.44779,11.11081,11.11081,0,0,0,5.651-7.472A21.43222,21.43222,0,0,0,57.11784,36.16832ZM35.51433,4.06615A24.874,24.874,0,0,1,44.662,2.22545a12.26549,12.26549,0,0,1,5.71814,1.31841,9.79166,9.79166,0,0,1,5.194,7.61763,21.58087,21.58087,0,0,1-1.35526,10.49983,27.974,27.974,0,0,1-1.30019,3.14189,50.06293,50.06293,0,0,0-2.82006-4.43213c-.70266-.98079-1.42813-1.94467-2.20994-2.86389a.53252.53252,0,0,1-.06353-.76066,4.62234,4.62234,0,0,0,.11272-4.99315c-.297-.53682-.30813-.52971-.80666-.15921a1.45319,1.45319,0,0,1-.17256.09594,2.81417,2.81417,0,0,1-1.062-.97849c.37137-.74579.37394-.7532-.46246-1.04184a4.69175,4.69175,0,0,0-4.27118.52753c-.20578.133-.3312.19641-.55173.00911-1.14969-.97635-2.35528-1.88187-3.59472-2.74135-1.22365-.84853-2.48711-1.63479-3.82179-2.3879A19.17042,19.17042,0,0,1,35.51433,4.06615ZM7.45861,11.03424a10.03249,10.03249,0,0,1,8.73248-8.62638A22.3669,22.3669,0,0,1,27.023,3.87249a27.25005,27.25005,0,0,1,2.80663,1.17978A53.71536,53.71536,0,0,0,12.12828,21.53542a.478.478,0,0,1-.60084.26183,4.35762,4.35762,0,0,0-2.2842.07378c-.23439.06864-.34725.08068-.43909-.187A22.07723,22.07723,0,0,1,7.45861,11.03424ZM22.85287,50.26013a17.77557,17.77557,0,0,1-7.58021.08094,9.87122,9.87122,0,0,1-7.81282-8.42478A21.77741,21.77741,0,0,1,8.707,31.54532c.15223-.45366.31-.58662.78839-.42409a3.5906,3.5906,0,0,0,1.9881.03693.50986.50986,0,0,1,.64977.25546,53.08476,53.08476,0,0,0,8.33782,9.638,50.75581,50.75581,0,0,0,9.37936,6.8349A31.15974,31.15974,0,0,1,22.85287,50.26013Zm9.097-3.42622a.75525.75525,0,0,1-.86524.00955A48.45959,48.45959,0,0,1,21.752,40.17575a52.48878,52.48878,0,0,1-8.25693-9.42694c-.1733-.25445-.18141-.37285.07819-.58692a4.71577,4.71577,0,0,0,1.76138-3.57566c.021-.45218-.111-.60734-.54772-.50272a.769.769,0,0,1-.19929-.00484c-.29514-.25411-.21032-.65613-.37568-.96087a.64829.64829,0,0,1-.03253-.44144c.699-.40608.70056-.40726.19619-1.078a3.7924,3.7924,0,0,0-.84155-.85991c-.24513-.17033-.20815-.29322-.05848-.512A52.85946,52.85946,0,0,1,26.35562,9.06672,46.11558,46.11558,0,0,1,31.16339,6.0601a.63462.63462,0,0,1,.69176-.00763A49.369,49.369,0,0,1,39.5344,11.2637c.2173.1788.2709.2924.12193.56425a4.772,4.772,0,0,0,6.485,6.51635c.246-.13288.37311-.15032.57092.09075a49.7347,49.7347,0,0,1,5.23609,7.72347.62882.62882,0,0,1-.03728.68979,50.33065,50.33065,0,0,1-9.60783,12.38c-.20967.2-.31716.155-.52622.0126a4.74068,4.74068,0,0,0-5.25672-.2514c-.424.22694-.52531.44132-.13981.78286a.63629.63629,0,0,1,.09925.17094,3.70366,3.70366,0,0,1-.98332,1.09714c-.69581-.39976-.69917-.401-.98485.35131a4.55342,4.55342,0,0,0,.00938,3.42678c.13758.34.07134.49-.23.65618C33.50071,45.91025,32.7182,46.36124,31.94983,46.83391Zm23.43532-4.08562a9.91452,9.91452,0,0,1-8.504,7.78845A22.19806,22.19806,0,0,1,36.32793,49.179a27.04859,27.04859,0,0,1-3.125-1.29351c.73663-.44633,1.44287-.85634,2.12813-1.29887.2535-.16371.35414.00261.50328.12842a4.77929,4.77929,0,0,0,7.70136-2.17575,4.62339,4.62339,0,0,0-.30294-3.6054c-.10327-.20374-.17492-.33849.037-.55444,5.12541-5.22192,5.92955-6.24357,9.66835-12.22838a30.87592,30.87592,0,0,1,2.44569,7.364A17.54766,17.54766,0,0,1,55.38515,42.74829Z"/><path class="cls-7" d="M45.89657,10.71165a3.8823,3.8823,0,0,1,1.06188.97848c-.47976.29293-.56084.62332-.19265,1.09734a1.31621,1.31621,0,0,1,.25267.90241,1.7291,1.7291,0,0,1-.68587.778,4.21113,4.21113,0,0,1-5.43216-.33.66856.66856,0,0,1-.22914-.76009,3.1601,3.1601,0,0,1,4.13529-2.2896C45.38155,11.2989,45.667,11.23056,45.89657,10.71165Z"/><path class="cls-7" d="M35.49636,41.04049a4.59,4.59,0,0,1,.98332-1.09711,1.10637,1.10637,0,0,1,.20174.21595c.17645.33551.35528.30257.66641.11936a3.23465,3.23465,0,0,1,4.83076,2.299,3.0362,3.0362,0,0,1-1.95147,1.4668,3.99083,3.99083,0,0,1-4.1265-.97747.69943.69943,0,0,1-.25786-.79882c.00833-.06458-.00529-.14516.02833-.1913C36.26089,41.5421,36.00629,41.24647,35.49636,41.04049Z"/><path class="cls-7" d="M14.17941,24.67636l.12646.39052A3.5319,3.5319,0,0,1,12.15139,27.288a4.05093,4.05093,0,0,1-4.5583-.956.82262.82262,0,0,1-.24722-.36974,3.15225,3.15225,0,0,1,2.24882-2.61858,3.11882,3.11882,0,0,1,3.463,1.06741C13.42288,24.92092,13.70814,24.99226,14.17941,24.67636Z"/><path class="cls-8" d="M7.34587,25.96219a7.41442,7.41442,0,0,0,1.73467,1.247,4.07941,4.07941,0,0,0,5.03382-1.85338c.0551-.10106.12728-.19281.19151-.28889a3.52827,3.52827,0,0,1,.28185,1.01184c-.58225,0-.76106.24694-.82659.867a3.19763,3.19763,0,0,1-3.66565,2.76163,3.2718,3.2718,0,0,1-2.81656-3.50927A1.22321,1.22321,0,0,1,7.34587,25.96219Z"/><path class="cls-8" d="M35.84276,42.26824c-.04637.55214.40241.79526.73577,1.05307a3.96314,3.96314,0,0,0,5.19436-.37531c.12924-.12878.27019-.24579.4057-.36827a3.18615,3.18615,0,0,1-1.52344,3.33344,3.23449,3.23449,0,0,1-3.71058-.238A3.18789,3.18789,0,0,1,35.84276,42.26824Z"/><path class="cls-8" d="M40.6713,13.37787c-.04755.34964.17351.55314.40668.75157a4.05192,4.05192,0,0,0,5.74429-.28713,1.46576,1.46576,0,0,1,.19621-.15241,3.18729,3.18729,0,0,1-2.49457,3.67085,3.10132,3.10132,0,0,1-3.10528-.96917A3.03719,3.03719,0,0,1,40.6713,13.37787Z"/><path d="M28.31338,35.03153c-.04732.77673-.04732.77673-.8671.77673-2.5995,0-5.19907-.00946-7.79842.00988-.40444.003-.54832-.07648-.53547-.51016.03008-1.01575.00772-1.03958,1.01313-1.007.43385.01408.56079-.08661.55747-.543a25.49594,25.49594,0,0,1,.05457-3.818,3.56219,3.56219,0,0,1,2.66425-3.07791c1.55111-.47074,3.11547-.89935,4.68169-1.31772.36172-.09663.43941-.26.46466-.61694a2.47388,2.47388,0,0,0-.89135-2.35081,4.124,4.124,0,0,1-1.38511-2.97913,13.68545,13.68545,0,0,1,.11695-4.05579,5.27334,5.27334,0,0,1,10.38782.87267,22.47487,22.47487,0,0,1-.00016,3.01631,5.03217,5.03217,0,0,1-1.92484,3.67051.82764.82764,0,0,0-.36847.80121c.05287.49475-.2,1.12074.10811,1.45529.28034.30444.89019.30574,1.355.4399a9.24953,9.24953,0,0,0,1.01363.28256c.48668.08173.70521.28253.47558.77989-.05222.11449.00241.23188-.00934.34731-.04586.45041-.26625.62931-.71362.52676-.66952-.15346-1.32761-.35466-1.982-.56227a1.13975,1.13975,0,0,0-1.12073.193,3.479,3.479,0,0,1-4.17292.01847,1.192,1.192,0,0,0-1.16278-.19917c-1.39287.42948-2.8066.78807-4.20524,1.19861a2.17449,2.17449,0,0,0-1.74762,2.17744c-.05164,1.0371-.01039,2.07723-.01518,3.116-.00169.36565.17264.50947.52478.50454.48576-.00682.97186-.006,1.45764-.00028.32323.00381.4495-.14894.44732-.45989-.00258-.36845-.00379-.73711.006-1.10573a.47966.47966,0,0,1,.51635-.54117c1.41537-.04754,1.26868.0375,1.27331,1.14235.004.95984.00151.95986.965.96441.10053.00047.20115-.00158.30156.00331C28.41358,34.21374,28.54371,34.42811,28.31338,35.03153Z"/><path class="cls-6" d="M28.31338,35.03153c-.04545-.741-.04545-.741-.80039-.74106-1.09766,0-1.09766,0-1.09766-1.09256,0-.98614-.00056-.96611-.98859-.9938-.40235-.01127-.55645.06974-.53719.51029.02226.50917.23262,1.17592-.094,1.49333-.30112.29262-.95764.0747-1.45717.07933-1.15743.01074-1.15751.00341-1.1575-1.17853,0-.838-.00661-1.6761.00169-2.514a2.2866,2.2866,0,0,1,1.76831-2.32438c1.57416-.45175,3.15275-.88812,4.72539-1.34506a.53615.53615,0,0,1,.5774.13631,3.35757,3.35757,0,0,0,4.5298-.00674.53252.53252,0,0,1,.57946-.12585c.75145.22876,1.52032.40382,2.26271.65744.445.152.64889.05876.70154-.40272a1.59982,1.59982,0,0,1,.10822-.32358,1.80886,1.80886,0,0,0,1.41412.42907c-.06417.68154.41378.86529.91828,1.124a2.41679,2.41679,0,0,1,1.24456,2.16542c.06266,1.06954.033,2.14333.01023,3.21485-.01021.47965-.17228.64348-.63395.66914-.60189.03346-1.20545.01874-1.80832.00516a.50977.50977,0,0,1-.56214-.56007c-.01157-.36846-.0095-.737-.00872-1.10527.00087-.41213-.26622-.44334-.57515-.43869-.30944.00465-.62885-.01828-.62423.43872.00237.23429-.001.46892-.0035.70338-.00906.84936-.11961.967-.95382.96943-1.64144.00471-3.28289.00124-4.92433.00155-.134,0-.26843.00709-.4019-.00043-.32421-.01827-.55823.07439-.60142.44066a.2863.2863,0,0,1-.13446.20353A5.0013,5.0013,0,0,0,28.31338,35.03153Z"/><path d="M29.79065,35.12035c.03621-.83.03621-.83.90334-.83,1.7947,0,3.58954-.01182,5.384.00908.40127.00468.59106-.07725.53617-.51491a6.50578,6.50578,0,0,1-.00609-.80433c0-.76645,0-.76645.75819-.76645.75556,0,.75556,0,.75556.87266,0,1.20395.00013,1.21443,1.19044,1.19893.496-.00646,1.13523.2159,1.44873-.10167.29028-.294.07249-.92582.08174-1.40846.0135-.7042.00849-1.4089.00232-2.11331a2.28081,2.28081,0,0,0-1.80386-2.398c-.30563-.09009-.48747-.18889-.302-.54228a1.88231,1.88231,0,0,0,.11035-.43285c.20227-.61975.20227-.61975.82227-.42272a3.78586,3.78586,0,0,1,2.685,3.71261c.01461,1.089.01576,2.17859-.00478,3.26739-.00649.34395.08124.45635.44126.45325,1.14877-.00991,1.13266.00557,1.12556,1.14326-.00211.33852-.13131.37237-.41318.37108-2.14482-.00981-4.28971-.00537-6.43458-.00537H30.53594C29.82146,35.80832,29.82146,35.80832,29.79065,35.12035Z"/><path class="cls-9" d="M30.40061,17.03823c.7208,0,1.44176.00857,2.16232-.00465a.63134.63134,0,0,1,.59423.27245q.88856,1.21727,1.819,2.40362A.57523.57523,0,0,1,35.051,20.35a3.77513,3.77513,0,0,1-7.2729-.83275c-.09308-.71877-.02281-1.44032-.05555-2.15952-.01312-.28828.12673-.32615.36487-.32314C28.85836,17.04435,29.62952,17.03824,30.40061,17.03823Z"/><path class="cls-10" d="M35.26976,17.59571c-.505-.66393-.92908-1.19461-1.32045-1.74843a.71458.71458,0,0,0-.66735-.33121c-1.59285.01382-3.18588.00714-4.77884.00616-.57444-.00035-.58208-.01565-.30266-.53612A3.77924,3.77924,0,0,1,32.38288,13.117a3.73759,3.73759,0,0,1,2.88534,3.49718C35.27913,16.88967,35.26976,17.166,35.26976,17.59571Z"/><path class="cls-11" d="M32.97244,24.9812c.0001.8585-.19558,1.15045-.91353,1.36318a1.79407,1.79407,0,0,1-1.90886-.53776,3.14823,3.14823,0,0,1-.077-1.56957c.005-.16074.19231-.08431.29274-.0627a5.207,5.207,0,0,0,2.28267-.00266c.232-.05306.34984-.00716.32694.25892C32.95966,24.61288,32.97235,24.79759,32.97244,24.9812Z"/><path class="cls-12" d="M35.84141,29.23419c-.1039.35044-.11139.796-.33786,1.02549-.24328.24649-.629-.0746-.95337-.14366-.08139-.01733-.165-.02582-.245-.04791-.90647-.2505-.88494-.2463-.68113-1.17259.09734-.44244.2645-.58424.706-.4165.40244.15291.82594.25115,1.24185.36745C35.77405,28.903,35.911,28.994,35.84141,29.23419Z"/><path class="cls-13" d="M37.53738,29.40149c.36155.09974.71526.19717,1.06889.29492.17436.04821.18542.18975.15187.32168-.08632.33943-.19236.67381-.288,1.01092-.03191.11241-.09721.1826-.21612.14864-.36893-.10538-.73549-.21907-1.10279-.3301a.08658.08658,0,0,1-.04384-.02354c-.24794-.33756.08655-.61134.11462-.92033C37.23872,29.71925,37.2526,29.451,37.53738,29.40149Z"/></g></svg>