<?xml version="1.0" encoding="utf-8"?>
<!-- Generator: Adobe Illustrator 23.0.5, SVG Export Plug-In . SVG Version: 6.00 Build 0)  -->
<svg version="1.1" id="Layer_1" xmlns="http://www.w3.org/2000/svg" xmlns:xlink="http://www.w3.org/1999/xlink" x="0px" y="0px"
	 viewBox="0 0 64 64" style="enable-background:new 0 0 64 64;" xml:space="preserve">
<style type="text/css">
	.st0{fill:#689F38;}
	.st1{fill:#488AFF;}
	.st2{fill:#FEDDD3;}
	.st3{fill:#747474;}
	.st4{fill:#FDC7B7;}
	.st5{fill:#FEFEFE;}
	.st6{fill:#FDFEFE;}
</style>
<title>member</title>
<path class="st0" d="M16.9,52.6c-3.1,1-6.2,2-9.3,3c-0.2,0-0.4,0.2-0.5,0.4c-0.2,1.4-0.4,2.9-0.6,4.4c1.2-0.6,2.3-1.1,3.4-1.7
	c0.5-0.3,1.1-0.3,1.6,0c1.1,0.6,2.2,1.2,3.3,1.8l0.1-0.2c-0.2-1.2-0.3-2.4-0.5-3.6c-0.1-0.6,0.1-1.2,0.5-1.6
	c0.8-0.8,1.6-1.7,2.5-2.5C17.2,52.4,17,52.5,16.9,52.6z"/>
<path class="st0" d="M38.7,52.4c-0.1,0.2-0.4,0.2-0.6,0.3c-3,1-6,1.9-8.9,2.9c-0.3,0.1-0.5,0.2-0.8,0c0.1,0.3,0.2,0.7,0.1,1.1
	c-0.2,1.2-0.4,2.4-0.6,3.8c1.1-0.6,2.2-1.1,3.3-1.6c0.6-0.4,1.3-0.4,1.9,0c1,0.6,2.1,1.1,3.3,1.6c-0.2-1.3-0.3-2.5-0.5-3.7
	c-0.2-0.6,0-1.3,0.5-1.7c0.8-0.8,1.5-1.6,2.3-2.3C38.7,52.6,38.7,52.6,38.7,52.4z"/>
<path class="st0" d="M59.6,52.4c-0.1,0.2-0.4,0.2-0.5,0.3c-3,1-6,2-9,2.9c-0.3,0.1-0.5,0.2-0.8,0c0.1,0.3,0.2,0.7,0.1,1.1
	c-0.2,1.2-0.4,2.5-0.6,3.8c1.2-0.6,2.2-1.1,3.3-1.6c0.6-0.4,1.3-0.4,1.9,0c1.1,0.6,2.1,1.1,3.3,1.7c-0.2-1.3-0.4-2.5-0.6-3.7
	c-0.1-0.6,0-1.2,0.5-1.6c0.8-0.8,1.6-1.6,2.4-2.4C59.6,52.7,60,52.6,59.6,52.4z"/>
<path class="st1" d="M124-52.6c1.1,0.2,2.3,0.6,3.3,1c5,2.5,7.1,8.5,4.6,13.5c-2.5,5-8.5,7.1-13.5,4.6c-5-2.5-7.1-8.5-4.6-13.5
	c1.5-3,4.4-5.1,7.7-5.6c0.1,0,0.2,0,0.2-0.1L124-52.6z"/>
<path class="st1" d="M129.9-26.6c-2.8-1.5-5.9-2.1-9.1-1.6c-6.2,0.9-11.3,5.4-12.8,11.5c-0.2,0.7-0.3,1.5-0.4,2.2
	c-0.1,0.4,0,0.5,0.4,0.5c0.8,0,1.6,0,2.4,0c0.8,0,1.1,0.3,1.2,1c-0.2,0.8-0.4,1-1.2,1c-1.2,0-2.5,0-3.7,0c-0.9,0-1.2-0.4-1.2-1.3
	c0.3-7.3,3.8-12.7,10.5-15.6c6.6-2.9,12.9-1.7,18.4,3c2.8,2.4,4.7,5.7,5.5,9.4c0.2,1.1,0.4,2.3,0.4,3.5c0.1,0.5-0.3,1-0.9,1.1
	c-0.1,0-0.2,0-0.3,0c-1.3,0-2.7,0-4,0c-6.7,0-19.4,0-26.1,0c-0.9,0-1.2-0.2-1.4-1c0.2-0.8,0.4-1,1.4-1c0.2-0.1,6.5-0.1,6.7,0
	c6.2,0,12.3,0,18.5,0c1.1,0,2.2-0.2,3.3-0.1c0.4,0,0.5-0.2,0.5-0.6c-0.2-2.1-0.9-4.2-2-6c-1.3-2.1-3.1-3.9-5.2-5.2
	C130.4-26.3,130.2-26.5,129.9-26.6z"/>
<path d="M20.2,52.6c0.5-0.3,0.6-1,0.3-1.5c-0.2-0.3-0.6-0.5-0.9-0.5c-1.6-0.3-3.2-0.6-4.8-0.8c-0.4,0-0.7-0.3-0.8-0.6
	c-0.7-1.4-1.5-2.8-2.2-4.2c-0.2-0.5-0.5-0.9-1.1-0.9c-0.6,0-0.8,0.4-1,0.8c-0.7,1.4-1.5,2.8-2.2,4.3c-0.1,0.3-0.4,0.5-0.7,0.6
	c-1.5,0.2-3,0.5-4.5,0.7c-0.2,0-0.4,0.1-0.7,0.2c-0.5,0.1-0.8,0.7-0.7,1.2c0,0.1,0.1,0.3,0.2,0.4c0.1,0.2,0.3,0.3,0.4,0.5
	c1.1,1.1,2.2,2.3,3.3,3.4c0.2,0.2,0.3,0.5,0.3,0.8c-0.3,1.6-0.5,3.2-0.7,4.8c-0.1,0.4,0,0.9,0.4,1.2c0.4,0.3,0.9,0.3,1.3,0
	c1.4-0.7,2.9-1.4,4.3-2.1c0.3-0.2,0.7-0.2,1.1,0c1.3,0.7,2.7,1.3,4,2c0.3,0.2,0.7,0.3,1,0.4c0.2-0.1,0.4-0.1,0.6-0.2
	c0.3-0.4,0.5-0.9,0.3-1.4c-0.3-1.6-0.5-3.1-0.7-4.7c-0.1-0.3,0-0.7,0.3-0.9C17.9,54.9,19,53.7,20.2,52.6z M14.9,55.1
	c-0.5,0.4-0.6,1-0.5,1.6c0.2,1.2,0.4,2.4,0.5,3.6l-0.1,0.2c-1.1-0.6-2.2-1.2-3.3-1.8c-0.5-0.3-1.1-0.3-1.6,0
	c-1.1,0.6-2.2,1.1-3.4,1.7c0.2-1.5,0.4-3,0.6-4.4c-0.1-0.4-0.3-0.7-0.6-0.9c-0.9-0.9-1.7-1.8-2.7-2.7c1.3-0.2,2.4-0.4,3.6-0.6
	c0.7,0,1.3-0.5,1.5-1.1c0.5-1.1,1.1-2.1,1.7-3.3c0.6,1.2,1.2,2.3,1.7,3.3c0.2,0.5,0.7,0.9,1.3,1c1.1,0.2,2.2,0.4,3.3,0.6
	c0.1,0,0.4-0.1,0.3,0.2C16.5,53.4,15.7,54.2,14.9,55.1z"/>
<path class="st0" d="M7.6,55.6c3.1-1,6.2-2,9.3-3c0.2,0,0.3-0.1,0.5,0c-0.3-0.3-0.6-0.1-0.9,0c-2.9,0.9-5.9,1.9-8.8,2.9
	c-0.3,0.1-0.6,0.2-0.6,0.7C7.2,55.8,7.4,55.6,7.6,55.6z"/>
<path class="st2" d="M128-36.4c-4.2,3.8-11.3,1.6-12.8-3.9c-1.2-4.3,1.3-8.7,5.6-9.9c0.7-0.2,1.4-0.3,2.1-0.3c1.4,0,2.9,0.4,4.1,1.1
	c0.2,0.1,0.4,0.3,0.6,0.5c0.9,1,1.4,2.3,1.7,3.6c0.7,2.6,0.5,5.4-0.5,7.9C128.5-37.1,128.3-36.7,128-36.4z"/>
<path class="st2" d="M128-36.4c0.5-1.2,0.9-2.4,1.2-3.6c0.5-2.9,0-5.9-1.5-8.4c-0.1-0.2-0.2-0.3-0.2-0.5c1,0.6,1.8,1.4,2.3,2.4
	C131.8-43.2,131-38.9,128-36.4z"/>
<g>
	<path class="st1" d="M172.2,59.7l-2,0c-0.4-0.7-1.2-1.1-2-0.9c-0.5,0-1,0-1.4,0c-0.6,0-0.7-0.1-0.6-0.7c0.3-3.2,1.6-6.2,3.7-8.6
		c4.5-5.2,11.8-6.8,18-4c0.3,0.1,0.6,0.3,0.8,0.5c2.9,2.9,4.7,6.7,5.2,10.8c0.1,0.4,0.1,0.9,0.1,1.3c0,0.3-0.2,0.6-0.5,0.6
		c0,0-0.1,0-0.1,0c-0.2,0-0.5,0-0.7,0c-6,0-11.9,0-17.9,0c-0.3,0-0.6,0-0.9,0C173.1,58.8,172.5,59.1,172.2,59.7z"/>
	<path class="st1" d="M188.5,46.1c1.1,0.4,2.1,1.1,3,1.9c3,2.6,5,6.3,5.3,10.2c0,0.4-0.1,0.4-0.4,0.4c-1,0-2,0-3,0
		c-6.4,0-12.8,0-19.2,0c-0.2,0-0.3,0-0.5,0c0.2-0.2,0.5-0.1,0.7-0.1c6.2,0,12.4,0,18.6,0c0.6,0,0.8-0.2,0.7-0.8
		c-0.2-2.1-0.7-4.2-1.5-6.2C191.3,49.6,190,47.7,188.5,46.1z"/>
</g>
<path d="M41.5,52.6c0.4-0.3,0.6-0.8,0.4-1.3c-0.2-0.4-0.6-0.7-1.1-0.7c-1.6-0.3-3.1-0.5-4.7-0.8c-0.4,0-0.7-0.3-0.8-0.6
	c-0.7-1.4-1.5-2.8-2.2-4.3c-0.2-0.4-0.5-0.8-1.1-0.8c-0.5,0-0.8,0.4-1,0.8c-0.7,1.4-1.5,2.8-2.2,4.3c-0.2,0.4-0.5,0.6-0.9,0.6
	c-1.7,0.3-3.4,0.6-4.9,0.8c-0.6,0.1-1,0.6-0.9,1.1c0,0.3,0.2,0.5,0.4,0.7c1.2,1.2,2.3,2.4,3.5,3.6c0.2,0.2,0.3,0.5,0.3,0.8
	c-0.3,1.6-0.5,3.2-0.7,4.9c-0.1,0.4,0,0.9,0.4,1.2c0.4,0.3,0.9,0.3,1.3,0c1.4-0.7,2.9-1.4,4.3-2.2c0.3-0.2,0.7-0.2,1,0
	c1.4,0.7,2.9,1.5,4.3,2.2c0.4,0.3,0.9,0.3,1.3,0c0.4-0.3,0.5-0.8,0.4-1.3c-0.2-1.6-0.5-3.2-0.7-4.7c-0.1-0.4,0-0.7,0.3-1
	C39.3,54.9,40.4,53.8,41.5,52.6z M36.3,55.1c-0.5,0.4-0.7,1.1-0.5,1.7c0.2,1.2,0.4,2.4,0.5,3.7c-1.2-0.6-2.2-1.1-3.3-1.6
	c-0.6-0.4-1.3-0.4-1.9,0c-1,0.6-2.1,1.1-3.3,1.6c0.2-1.3,0.4-2.5,0.6-3.8c0.1-0.4,0-0.7-0.1-1.1c-1-1-2-2.1-3.1-3.2
	c1.3-0.2,2.5-0.4,3.7-0.6c0.6,0,1.1-0.4,1.4-1c0.5-1.1,1-2.2,1.6-3.3l0.3,0.1c0.6,1.1,1.1,2.1,1.7,3.2c0.2,0.6,0.8,1,1.5,1.1
	c1.1,0.2,2.3,0.4,3.4,0.6c0.1,0.2,0.1,0.2-0.1,0.4C37.8,53.5,37.1,54.3,36.3,55.1z"/>
<path class="st0" d="M29.1,55.6c3-1,6-1.9,8.9-2.9c0.2-0.1,0.5-0.1,0.6-0.3c-0.6,0.1-1.2,0.3-1.8,0.5c-2.8,0.9-5.7,1.9-8.5,2.7
	C28.6,55.8,28.9,55.7,29.1,55.6z"/>
<path d="M62.4,52.8c0.4-0.4,0.8-0.8,0.6-1.3c-0.2-0.6-0.7-0.7-1.3-0.8c-1.5-0.2-3-0.5-4.5-0.7c-0.4,0-0.7-0.3-0.8-0.6
	c-0.7-1.4-1.5-2.8-2.2-4.3c-0.2-0.4-0.5-0.8-1.1-0.8c-0.5,0-0.8,0.4-1,0.8c-0.7,1.4-1.5,2.7-2.1,4.1c-0.2,0.4-0.6,0.7-1.1,0.8
	c-1.6,0.2-3.3,0.5-4.9,0.8c-0.2,0.1-0.5,0.2-0.6,0.4c-0.3,0.4-0.2,0.9,0.3,1.4c1.2,1.2,2.3,2.4,3.5,3.5c0.2,0.2,0.3,0.5,0.3,0.8
	c-0.3,1.7-0.5,3.3-0.8,5c-0.1,0.4,0,0.9,0.4,1.1c0.4,0.3,0.9,0.3,1.2,0c1.5-0.7,2.9-1.4,4.4-2.2c0.3-0.2,0.7-0.2,1,0
	c1.4,0.7,2.9,1.4,4.3,2.1c0.4,0.3,0.9,0.3,1.3,0c0.4-0.3,0.5-0.8,0.4-1.3c-0.2-1.6-0.5-3.2-0.7-4.7c-0.1-0.3,0-0.7,0.3-0.9
	C60.2,55,61.3,53.9,62.4,52.8z M57.2,55.1c-0.4,0.4-0.6,1-0.5,1.6c0.2,1.2,0.4,2.4,0.6,3.7c-1.2-0.6-2.2-1.1-3.3-1.7
	c-0.6-0.4-1.3-0.4-1.9,0c-1,0.6-2.1,1.1-3.3,1.6c0.2-1.3,0.4-2.5,0.6-3.8c0.1-0.4,0-0.7-0.1-1.1l-3.1-3.2c1.3-0.2,2.5-0.4,3.6-0.6
	c0.6,0,1.2-0.4,1.4-1c0.5-1.1,1-2.2,1.5-3.3l0.3,0.1c0.6,1.1,1.1,2.1,1.7,3.2c0.2,0.6,0.8,1,1.4,1c1.2,0.2,2.3,0.4,3.5,0.6
	c0.4,0.2,0,0.3-0.1,0.4C58.8,53.5,58,54.3,57.2,55.1z"/>
<path class="st0" d="M50,55.6c3-1,6-2,9-2.9c0.2-0.1,0.4-0.1,0.5-0.3c-0.5,0.1-1.1,0.2-1.6,0.4c-2.9,0.9-5.8,2-8.8,2.8
	C49.5,55.8,49.8,55.7,50,55.6z"/>
<path class="st1" d="M123-37.9c-1.2,0-2.4-0.5-3.3-1.3c-0.6-0.6-0.7-1.1-0.2-1.6c0.4-0.4,1-0.4,1.6,0.1c0.9,0.9,2.4,1,3.4,0.2
	c0.2-0.1,0.3-0.3,0.5-0.4c0.4-0.4,1-0.3,1.4,0.1c0.4,0.4,0.4,1,0,1.4C125.5-38.5,124.3-38,123-37.9z"/>
<path class="st1" d="M28.3,39.6c-0.1,1.2-0.1,1.2-1.4,1.2c-4.1,0-8.1,0-12.2,0c-0.6,0-0.9-0.1-0.8-0.8c0-1.6,0-1.6,1.6-1.6
	c0.7,0,0.9-0.1,0.9-0.8c-0.1-2-0.1-4,0.1-6c0.2-2.3,1.9-4.2,4.2-4.8c2.4-0.7,4.9-1.4,7.3-2.1c0.6-0.2,0.7-0.4,0.7-1
	c0.2-1.4-0.3-2.8-1.4-3.7c-1.3-1.2-2.1-2.9-2.2-4.7c-0.3-2.1-0.2-4.2,0.2-6.3c1.1-4.4,5.5-7.1,9.9-6.1c3.5,0.8,6,3.9,6.3,7.4
	c0.1,1.6,0.1,3.1,0,4.7c-0.1,2.3-1.2,4.3-3,5.7c-0.4,0.3-0.6,0.8-0.6,1.3c0.1,0.8-0.3,1.7,0.2,2.3c0.4,0.5,1.4,0.5,2.1,0.7
	c0.5,0.2,1,0.3,1.6,0.4c0.8,0.1,1.1,0.4,0.7,1.2c-0.1,0.2,0,0.4,0,0.5c-0.1,0.7-0.4,1-1.1,0.8c-1-0.2-2.1-0.6-3.1-0.9
	c-0.6-0.2-1.3-0.1-1.7,0.3c-1.9,1.5-4.6,1.5-6.5,0c-0.5-0.4-1.2-0.5-1.8-0.3c-2.2,0.7-4.4,1.2-6.6,1.9c-1.6,0.3-2.8,1.8-2.7,3.4
	c-0.1,1.6,0,3.2,0,4.9c0,0.6,0.3,0.8,0.8,0.8c0.8,0,1.5,0,2.3,0c0.5,0,0.7-0.2,0.7-0.7c0-0.6,0-1.2,0-1.7c-0.1-0.4,0.2-0.8,0.6-0.8
	c0.1,0,0.1,0,0.2,0c2.2-0.1,2,0.1,2,1.8c0,1.5,0,1.5,1.5,1.5c0.2,0,0.3,0,0.5,0C28.4,38.3,28.6,38.6,28.3,39.6z"/>
<path class="st1" d="M125.8,39.6c-0.1-1.2-0.1-1.2-1.2-1.2c-1.7,0-1.7,0-1.7-1.7c0-1.5,0-1.5-1.5-1.6c-0.6,0-0.9,0.1-0.8,0.8
	c0,0.8,0.4,1.8-0.1,2.3c-0.5,0.5-1.5,0.1-2.3,0.1c-1.8,0-1.8,0-1.8-1.8c0-1.3,0-2.6,0-3.9c-0.1-1.7,1.1-3.2,2.8-3.6
	c2.5-0.7,4.9-1.4,7.4-2.1c0.3-0.1,0.7,0,0.9,0.2c2,1.8,5.1,1.8,7.1,0c0.2-0.2,0.6-0.3,0.9-0.2c1.2,0.4,2.4,0.6,3.5,1
	c0.7,0.2,1,0.1,1.1-0.6c0-0.2,0.1-0.3,0.2-0.5c0.6,0.5,1.4,0.8,2.2,0.7c-0.1,1.1,0.6,1.4,1.4,1.8c1.2,0.7,2,2,1.9,3.4
	c0.1,1.7,0.1,3.3,0,5c0,0.7-0.3,1-1,1c-0.9,0.1-1.9,0-2.8,0c-0.4,0-0.8-0.3-0.9-0.7c0-0.1,0-0.1,0-0.2c0-0.6,0-1.2,0-1.7
	c0-0.6-0.4-0.7-0.9-0.7c-0.5,0-1,0-1,0.7c0,0.4,0,0.7,0,1.1c0,1.3-0.2,1.5-1.5,1.5c-2.6,0-5.1,0-7.7,0c-0.2,0-0.4,0-0.6,0
	c-0.5,0-0.9,0.1-0.9,0.7c0,0.1-0.1,0.2-0.2,0.3C127.3,39.5,126.5,39.5,125.8,39.6z"/>
<path class="st1" d="M30.6,39.7c0.1-1.3,0.1-1.3,1.4-1.3c2.8,0,5.6,0,8.4,0c0.6,0,0.9-0.1,0.8-0.8c0-0.4,0-0.8,0-1.3
	c0-1.2,0-1.2,1.2-1.2c1.2,0,1.2,0,1.2,1.4c0,1.9,0,1.9,1.9,1.9c0.8,0,1.8,0.3,2.3-0.2c0.5-0.5,0.1-1.4,0.1-2.2c0-1.1,0-2.2,0-3.3
	C48,31,46.8,29.4,45,29c-0.5-0.1-0.8-0.3-0.5-0.8c0.1-0.2,0.1-0.4,0.2-0.7c0.3-1,0.3-1,1.3-0.7c2.5,0.8,4.3,3.1,4.2,5.8
	c0,1.7,0,3.4,0,5.1c0,0.5,0.1,0.7,0.7,0.7c1.8,0,1.8,0,1.8,1.8c0,0.5-0.2,0.6-0.6,0.6c-3.3,0-6.7,0-10,0H31.8
	C30.6,40.8,30.6,40.8,30.6,39.7z"/>
<path class="st2" d="M31.5,11.5c1.1,0,2.3,0,3.4,0c0.4,0,0.7,0.1,0.9,0.4c0.9,1.3,1.9,2.5,2.8,3.8c0.2,0.3,0.3,0.7,0.1,1
	c-1.2,3-4.6,4.6-7.6,3.4c-2-0.8-3.5-2.6-3.8-4.7c-0.1-1.1,0-2.2-0.1-3.4c0-0.4,0.2-0.5,0.6-0.5C29.1,11.5,30.3,11.5,31.5,11.5z"/>
<path class="st3" d="M39.1,12.3c-0.8-1-1.5-1.9-2.1-2.7c-0.2-0.4-0.6-0.6-1-0.5c-2.5,0-5,0-7.5,0c-0.9,0-0.9,0-0.5-0.8
	c1.3-2.3,3.9-3.5,6.5-2.9c2.6,0.6,4.4,2.8,4.5,5.5C39.2,11.2,39.1,11.7,39.1,12.3z"/>
<path class="st4" d="M35.6,23.9c0,1.3-0.3,1.8-1.4,2.1c-1.1,0.3-2.2,0-3-0.8c-0.2-0.8-0.3-1.6-0.1-2.4c0-0.3,0.3-0.1,0.5-0.1
	c1.2,0.3,2.4,0.3,3.6,0c0.4-0.1,0.5,0,0.5,0.4C35.5,23.3,35.6,23.6,35.6,23.9z"/>
<path class="st5" d="M40,30.5c-0.2,0.5-0.2,1.2-0.5,1.6c-0.4,0.4-1-0.1-1.5-0.2c-0.1,0-0.3,0-0.4-0.1c-1.4-0.4-1.4-0.4-1.1-1.8
	c0.2-0.7,0.4-0.9,1.1-0.7c0.6,0.2,1.3,0.4,1.9,0.6C39.9,30,40.1,30.1,40,30.5z"/>
<path class="st6" d="M42.7,30.8c0.6,0.2,1.1,0.3,1.7,0.5c0.3,0.1,0.3,0.3,0.2,0.5c-0.1,0.5-0.3,1.1-0.4,1.6c0,0.2-0.2,0.3-0.3,0.2
	c-0.6-0.2-1.1-0.3-1.7-0.5c0,0,0,0-0.1,0c-0.4-0.5,0.1-1,0.2-1.4C42.2,31.3,42.2,30.8,42.7,30.8z"/>
</svg>
