<?xml version="1.0" encoding="utf-8"?>
<!-- Generator: Adobe Illustrator 23.0.5, SVG Export Plug-In . SVG Version: 6.00 Build 0)  -->
<svg version="1.1" id="Layer_1" xmlns="http://www.w3.org/2000/svg" xmlns:xlink="http://www.w3.org/1999/xlink" x="0px" y="0px"
	 viewBox="0 0 280 270" style="enable-background:new 0 0 280 270;" xml:space="preserve">
<style type="text/css">
	.st0{opacity:0.9;fill:#FFFFFF;}
	.st1{opacity:0.6;fill:#FFFFFF;}
	.st2{opacity:0.8;fill:#FFFFFF;}
	.st3{fill:#FFFFFF;}
	.st4{fill:#9BA2BD;}
	.st5{fill:#DDDFE6;}
	.st6{fill:#333333;}
	.st7{fill:#585971;}
	.st8{fill:#EBEDF6;}
	.st9{fill:#FDA601;}
	.st10{fill:#444444;}
	.st11{fill:#7E8DA7;}
	.st12{opacity:0.54;}
	.st13{clip-path:url(#SVGID_2_);}
	.st14{clip-path:url(#SVGID_4_);}
	.st15{clip-path:url(#SVGID_6_);}
	.st16{fill:#D35050;}
	.st17{fill:#FBAA78;}
	.st18{fill:#A82D2D;}
	.st19{fill:#191919;}
	.st20{fill:#606060;}
	.st21{fill:#120621;}
	.st22{fill:#FF9E26;}
	.st23{fill:none;stroke:#4C4C4C;stroke-width:6;stroke-miterlimit:10;}
	.st24{fill:#EBECED;}
	.st25{clip-path:url(#SVGID_8_);}
	.st26{clip-path:url(#SVGID_10_);}
	.st27{clip-path:url(#SVGID_12_);}
	.st28{fill:#5267D1;}
	.st29{fill:#F2F2F2;}
	.st30{fill:#6F7184;}
	.st31{fill:#5F98F4;}
	.st32{fill:#A0A0A0;}
	.st33{fill:#FCB697;}
	.st34{fill:#BFBFBF;}
	.st35{fill:#727B8E;}
	.st36{fill:#7BC980;}
	.st37{fill:#4DA34F;}
	.st38{fill:#2F2FA5;}
</style>
<g>
	<path class="st0" d="M265.8,223c-35.9,65.5-189.2,60.1-230.1-8.6c-40.6-68.3,31.2-199.3,108-196.2C220.2,21,301.7,157.5,265.8,223z
		"/>
	<path class="st1" d="M182.5,264.2c-68.5,11.5-152.6-103.6-126-173C83,22.4,220-0.6,261.9,57.3C303.8,114.7,251,252.7,182.5,264.2z"
		/>
	<path class="st2" d="M211.3,230c-52.4,48.7-190-2.6-206.5-77.3C-11.4,78.4,93.4-18.9,162.3,7.1C230.9,32.7,263.7,181.3,211.3,230z"
		/>
</g>
<title>UX</title>
<g>
	<path class="st3" d="M182.8,93.6l-9.4-5.6c-10.4-6.2-23.4-6.3-33.8-0.2l-16.4,9.5l-94.7,54.8c-8.4,4.8-11.2,15.5-6.4,23.9
		c1.5,2.7,3.7,4.9,6.4,6.4l78.8,45c20.3,11.7,45.3,11.8,65.7,0.1l84.9-48.8c10.9-6.3,14.7-20.2,8.4-31.2c-1.9-3.3-4.7-6.1-7.9-8.1
		L182.8,93.6z"/>
	<path class="st4" d="M19.8,165.9c0-0.2,0-0.4,0-0.6C19.8,165.6,19.8,165.8,19.8,165.9"/>
	<path class="st4" d="M257.9,178.6L173,227.4c-20.3,11.7-45.4,11.7-65.7-0.1l-78.8-45c-5-2.9-8.3-8.1-8.7-13.9l0,1.8
		c0,7.1,3.8,13.7,10,17.3l73.4,41.8c25.4,15.2,50.8,13.2,73.7,0.1l82.4-47.4c6.2-3.6,10.1-10.2,10.1-17.4l0-5.3
		C269.2,167.3,264.8,174.7,257.9,178.6"/>
	<path class="st5" d="M181.1,189.1c0,6.8,10.6,12.3,23.8,12.3s23.8-5.5,23.8-12.3s-10.6-12.3-23.8-12.3S181.1,182.3,181.1,189.1"/>
	<path class="st6" d="M187,169.1v17.1c0,0,3.9,1.8,6.6,0.3c0.1-0.6,0.6-17.3,0.6-17.3l0.2,13.4c0,0,3.7,2.6,6.3-0.1
		c0.1-0.3,0.1-6.8-0.1-12.1c0-0.3,6.7-2.8,6.6-3.1c-0.1-3.3-7-3.8-7-3.8s-1.3-0.1-6-0.8c-3.5-0.5-6.7,1.9-7.2,5.4
		C187,168.4,187,168.7,187,169.1"/>
	<path class="st7" d="M188.7,163.1l5.4,3.1c0.3,0.2,0.6,0.2,0.9,0l8.1-4.7c0.1-0.1,0.2-0.2,0.2-0.3v0.3c0,0.1-0.1,0.2-0.2,0.3
		l-8.1,4.7c-0.3,0.2-0.6,0.2-0.9,0l-5.4-3.1c-0.1,0-0.1-0.1-0.1-0.2v-0.3C188.6,163,188.6,163,188.7,163.1"/>
	<path class="st7" d="M197.3,157.2l0-6.6l-0.1-0.1c-0.1,0-0.2,0-0.3,0l-8.5,4.9c-0.2,0.1-0.3,0.3-0.3,0.5v6.4c0,0.1,0.1,0.2,0.1,0.3
		l0.2,0.1l8.5-4.9C197.2,157.6,197.3,157.4,197.3,157.2"/>
	<path class="st8" d="M194.1,166.2l-5.4-3.1c-0.1-0.1-0.2-0.2-0.1-0.3c0,0,0.1-0.1,0.1-0.1l8.4-4.9c0.2-0.1,0.5-0.1,0.7,0l5.4,3.1
		c0.2,0.1,0.2,0.3,0.1,0.5c0,0.1-0.1,0.1-0.1,0.1l-8.1,4.7C194.8,166.4,194.4,166.4,194.1,166.2"/>
	<path class="st6" d="M197.5,157.3v-6.5c0-0.1-0.1-0.2-0.2-0.2c0,0-0.1,0-0.1,0l-8.5,4.9c-0.2,0.1-0.3,0.3-0.3,0.5v6.4
		c0,0.2,0.1,0.3,0.3,0.3c0.1,0,0.1,0,0.2,0l8.4-4.8C197.4,157.7,197.5,157.5,197.5,157.3"/>
	<path class="st9" d="M197.3,157.2V151c0-0.1-0.1-0.2-0.2-0.2c0,0-0.1,0-0.1,0l-8.2,4.8c-0.2,0.1-0.3,0.3-0.3,0.5v6
		c0,0.2,0.1,0.3,0.3,0.3c0.1,0,0.1,0,0.1,0l8.1-4.7C197.2,157.5,197.3,157.4,197.3,157.2"/>
	<path class="st4" d="M200.5,162.4c-0.4-0.2-1.5-0.9-1.9-1.1c-0.1-0.1-0.3-0.1-0.4,0l-3.4,2c0,0-0.1,0.1,0,0.1c0,0,0,0,0,0l2,1.1
		c0.1,0.1,0.2,0.1,0.3,0l3.4-2C200.5,162.6,200.5,162.5,200.5,162.4C200.5,162.4,200.5,162.4,200.5,162.4"/>
	<path class="st5" d="M192.9,164.1c0,0-2.6-1.5-2.6-1.5s-1,0.6-1,0.6l2.6,1.5L192.9,164.1z"/>
	<path class="st5" d="M200.5,159.6c0,0-2.6-1.5-2.6-1.5s-1,0.6-1,0.6l2.6,1.5L200.5,159.6z"/>
	<path class="st10" d="M199,160l0.4,0.2c0,0,0,0,0,0c0,0,0,0,0,0l-0.4,0.2c0,0,0,0,0,0l-0.4-0.2c0,0,0,0,0,0c0,0,0,0,0,0L199,160
		C199,160,199,160,199,160"/>
	<path class="st10" d="M198.6,160.3l0.4,0.2c0,0,0,0,0,0c0,0,0,0,0,0l-0.4,0.2c0,0,0,0,0,0l-0.4-0.2c0,0,0,0,0,0c0,0,0,0,0,0
		L198.6,160.3C198.5,160.3,198.6,160.3,198.6,160.3"/>
	<path class="st10" d="M198.2,160.6l0.4,0.2c0,0,0,0,0,0c0,0,0,0,0,0l-0.3,0.2c0,0,0,0,0,0l-0.4-0.2c0,0,0,0,0,0c0,0,0,0,0,0
		L198.2,160.6C198.1,160.6,198.1,160.6,198.2,160.6"/>
	<path class="st10" d="M197.7,160.8l0.4,0.2c0,0,0,0,0,0c0,0,0,0,0,0l-0.5,0.3c0,0,0,0,0,0l-0.4-0.2c0,0,0,0,0,0c0,0,0,0,0,0
		L197.7,160.8C197.7,160.8,197.7,160.8,197.7,160.8"/>
	<path class="st10" d="M197.2,161.1l0.4,0.2c0,0,0,0,0,0c0,0,0,0,0,0l-2.1,1.2c0,0,0,0,0,0l-0.4-0.2c0,0,0,0,0,0c0,0,0,0,0,0
		L197.2,161.1C197.1,161.1,197.1,161.1,197.2,161.1"/>
	<path class="st10" d="M198.1,160l0.5-0.3c0,0,0,0,0,0l0.4,0.2c0,0,0,0,0,0c0,0,0,0,0,0l-0.5,0.3c0,0,0,0,0,0L198.1,160
		C198,160.1,198,160.1,198.1,160C198,160,198.1,160,198.1,160"/>
	<path class="st10" d="M197,159.6l0.6-0.3c0,0,0,0,0,0l0.4,0.2c0,0,0,0,0,0c0,0,0,0,0,0l-0.6,0.3c0,0,0,0,0,0L197,159.6
		C197,159.6,197,159.6,197,159.6C197,159.6,197,159.6,197,159.6"/>
	<path class="st10" d="M197.4,159.9l0.7-0.4c0,0,0,0,0,0l0.4,0.2c0,0,0,0,0,0c0,0,0,0,0,0l-0.7,0.4c0,0,0,0,0,0L197.4,159.9
		C197.4,159.9,197.4,159.9,197.4,159.9C197.4,159.9,197.4,159.9,197.4,159.9"/>
	<path class="st10" d="M197.1,159.5l-0.4,0.2c0,0,0,0,0,0l-0.4-0.2c0,0,0,0,0,0c0,0,0,0,0,0l0.4-0.2c0,0,0,0,0,0L197.1,159.5
		C197.1,159.4,197.1,159.5,197.1,159.5C197.1,159.5,197.1,159.5,197.1,159.5"/>
	<path class="st10" d="M196.8,159.2l0.4-0.2c0,0,0,0,0,0l0.4,0.2c0,0,0,0,0,0c0,0,0,0,0,0l-0.4,0.2c0,0,0,0,0,0L196.8,159.2
		C196.8,159.2,196.8,159.2,196.8,159.2C196.8,159.2,196.8,159.2,196.8,159.2"/>
	<path class="st10" d="M196.6,159.7l-0.4,0.2c0,0,0,0,0,0l-0.4-0.2c0,0,0,0,0,0c0,0,0,0,0,0l0.4-0.2c0,0,0,0,0,0L196.6,159.7
		C196.6,159.7,196.6,159.7,196.6,159.7C196.6,159.7,196.6,159.7,196.6,159.7"/>
	<path class="st10" d="M196.2,160l-0.4,0.2c0,0,0,0,0,0l-0.4-0.2c0,0,0,0,0,0c0,0,0,0,0,0l0.4-0.2c0,0,0,0,0,0L196.2,160
		C196.2,160,196.2,160,196.2,160C196.2,160,196.2,160,196.2,160"/>
	<path class="st10" d="M195.8,160.2l-0.4,0.2c0,0,0,0,0,0l-0.4-0.2c0,0,0,0,0,0c0,0,0,0,0,0l0.4-0.2c0,0,0,0,0,0L195.8,160.2
		C195.8,160.2,195.8,160.2,195.8,160.2C195.8,160.2,195.8,160.2,195.8,160.2"/>
	<path class="st10" d="M195.3,160.5l-0.4,0.2c0,0,0,0,0,0l-0.4-0.2c0,0,0,0,0,0c0,0,0,0,0,0l0.4-0.2c0,0,0,0,0,0L195.3,160.5
		C195.3,160.5,195.3,160.5,195.3,160.5C195.3,160.5,195.3,160.5,195.3,160.5"/>
	<path class="st10" d="M194.9,160.8l-0.4,0.2c0,0,0,0,0,0l-0.4-0.2c0,0,0,0,0,0c0,0,0,0,0,0l0.4-0.2c0,0,0,0,0,0L194.9,160.8
		C194.9,160.7,194.9,160.7,194.9,160.8C194.9,160.8,194.9,160.8,194.9,160.8"/>
	<path class="st10" d="M194.4,161l-0.3,0.2c0,0,0,0,0,0l-0.4-0.2c0,0,0,0,0,0c0,0,0,0,0,0l0.3-0.2c0,0,0,0,0,0L194.4,161
		C194.4,161,194.4,161,194.4,161C194.4,161,194.4,161,194.4,161"/>
	<path class="st10" d="M194,161.3l-0.3,0.2c0,0,0,0,0,0l-0.4-0.2c0,0,0,0,0,0c0,0,0,0,0,0l0.3-0.2c0,0,0,0,0,0L194,161.3
		C194,161.2,194,161.3,194,161.3C194,161.3,194,161.3,194,161.3"/>
	<path class="st10" d="M193.5,161.5l-0.3,0.2c0,0,0,0,0,0l-0.4-0.2c0,0,0,0,0,0c0,0,0,0,0,0l0.3-0.2c0,0,0,0,0,0L193.5,161.5
		C193.5,161.5,193.5,161.5,193.5,161.5C193.5,161.5,193.5,161.5,193.5,161.5"/>
	<path class="st10" d="M193.1,161.8l-0.3,0.2c0,0,0,0,0,0l-0.4-0.2c0,0,0,0,0,0c0,0,0,0,0,0l0.3-0.2c0,0,0,0,0,0L193.1,161.8
		C193.1,161.8,193.1,161.8,193.1,161.8C193.1,161.8,193.1,161.8,193.1,161.8"/>
	<path class="st10" d="M192.3,161.8l0.4,0.2c0,0,0,0,0,0c0,0,0,0,0,0l-0.4,0.2c0,0,0,0,0,0l-0.4-0.2c0,0,0,0,0,0c0,0,0,0,0,0
		L192.3,161.8C192.2,161.8,192.3,161.8,192.3,161.8"/>
	<path class="st10" d="M191.8,162.1l0.4,0.2c0,0,0,0,0,0c0,0,0,0,0,0l-0.4,0.2c0,0,0,0,0,0l-0.4-0.2c0,0,0,0,0,0c0,0,0,0,0,0
		L191.8,162.1C191.8,162,191.8,162,191.8,162.1"/>
	<path class="st10" d="M196.9,160.1l-0.4-0.2c0,0,0,0,0,0c0,0,0,0,0,0l0.4-0.2c0,0,0,0,0,0l0.4,0.2c0,0,0,0,0,0c0,0,0,0,0,0
		L196.9,160.1C196.9,160.1,196.9,160.1,196.9,160.1"/>
	<path class="st10" d="M196.9,160.1l-0.4,0.2c0,0,0,0,0,0l-0.4-0.2c0,0,0,0,0,0c0,0,0,0,0,0l0.4-0.2c0,0,0,0,0,0L196.9,160.1
		C196.9,160.1,196.9,160.1,196.9,160.1C196.9,160.1,196.9,160.1,196.9,160.1"/>
	<path class="st10" d="M196.5,160.4l-0.4,0.2c0,0,0,0,0,0l-0.4-0.2c0,0,0,0,0,0c0,0,0,0,0,0l0.4-0.2c0,0,0,0,0,0L196.5,160.4
		C196.5,160.4,196.5,160.4,196.5,160.4C196.5,160.4,196.5,160.4,196.5,160.4"/>
	<path class="st10" d="M196,160.6l-0.4,0.2c0,0,0,0,0,0l-0.4-0.2c0,0,0,0,0,0c0,0,0,0,0,0l0.4-0.2c0,0,0,0,0,0L196,160.6
		C196,160.6,196,160.6,196,160.6C196,160.6,196,160.6,196,160.6"/>
	<path class="st10" d="M195.6,160.9l-0.4,0.2c0,0,0,0,0,0l-0.4-0.2c0,0,0,0,0,0c0,0,0,0,0,0l0.4-0.2c0,0,0,0,0,0L195.6,160.9
		C195.6,160.9,195.6,160.9,195.6,160.9C195.6,160.9,195.6,160.9,195.6,160.9"/>
	<path class="st10" d="M195.1,161.2l-0.4,0.2c0,0,0,0,0,0l-0.4-0.2c0,0,0,0,0,0c0,0,0,0,0,0l0.4-0.2c0,0,0,0,0,0L195.1,161.2
		C195.1,161.1,195.1,161.1,195.1,161.2C195.1,161.1,195.1,161.2,195.1,161.2"/>
	<path class="st10" d="M194.7,161.4l-0.3,0.2c0,0,0,0,0,0l-0.4-0.2c0,0,0,0,0,0c0,0,0,0,0,0l0.3-0.2c0,0,0,0,0,0L194.7,161.4
		C194.7,161.4,194.7,161.4,194.7,161.4C194.7,161.4,194.7,161.4,194.7,161.4"/>
	<path class="st10" d="M194.2,161.7l-0.3,0.2c0,0,0,0,0,0l-0.4-0.2c0,0,0,0,0,0c0,0,0,0,0,0l0.3-0.2c0,0,0,0,0,0L194.2,161.7
		C194.2,161.6,194.2,161.7,194.2,161.7C194.2,161.7,194.2,161.7,194.2,161.7"/>
	<path class="st10" d="M193.8,161.9l-0.3,0.2c0,0,0,0,0,0l-0.4-0.2c0,0,0,0,0,0c0,0,0,0,0,0l0.3-0.2c0,0,0,0,0,0L193.8,161.9
		C193.8,161.9,193.8,161.9,193.8,161.9C193.8,161.9,193.8,161.9,193.8,161.9"/>
	<path class="st10" d="M192.6,162.1l0.4-0.2c0,0,0,0,0,0l0.4,0.2c0,0,0,0,0,0c0,0,0,0,0,0l-0.4,0.2c0,0,0,0,0,0L192.6,162.1
		C192.6,162.2,192.6,162.2,192.6,162.1C192.6,162.1,192.6,162.1,192.6,162.1"/>
	<path class="st10" d="M192.1,162.4l0.4-0.2c0,0,0,0,0,0l0.4,0.2c0,0,0,0,0,0c0,0,0,0,0,0l-0.4,0.2c0,0,0,0,0,0L192.1,162.4
		C192.1,162.4,192.1,162.4,192.1,162.4C192.1,162.4,192.1,162.4,192.1,162.4"/>
	<path class="st10" d="M192.1,162.5l0.4,0.2c0,0,0,0,0,0c0,0,0,0,0,0l-0.4,0.2c0,0,0,0,0,0l-0.4-0.2c0,0,0,0,0,0c0,0,0,0,0,0
		L192.1,162.5C192.1,162.4,192.1,162.4,192.1,162.5"/>
	<path class="st10" d="M191.2,162.9l0.4-0.2c0,0,0,0,0,0l0.4,0.2c0,0,0,0,0,0c0,0,0,0,0,0l0,0c0,0,0,0,0,0c0,0,0,0,0,0l0.4,0.2
		c0,0,0,0,0,0c0,0,0,0,0,0l-0.2,0.1c0,0,0,0,0,0L191.2,162.9C191.2,163,191.2,162.9,191.2,162.9
		C191.2,162.9,191.2,162.9,191.2,162.9"/>
	<path class="st10" d="M197.3,160.4l-0.4-0.2c0,0,0,0,0,0c0,0,0,0,0,0l0.4-0.2c0,0,0,0,0,0l0.4,0.2c0,0,0,0,0,0c0,0,0,0,0,0
		L197.3,160.4C197.3,160.4,197.3,160.4,197.3,160.4"/>
	<path class="st10" d="M196.8,160.7l-0.4-0.2c0,0,0,0,0,0c0,0,0,0,0,0l0.4-0.2c0,0,0,0,0,0l0.4,0.2c0,0,0,0,0,0c0,0,0,0,0,0
		L196.8,160.7C196.9,160.7,196.8,160.7,196.8,160.7"/>
	<path class="st10" d="M196.1,160.7l0.4-0.2c0,0,0,0,0,0l0.4,0.2c0,0,0,0,0,0c0,0,0,0,0,0l-0.4,0.2c0,0,0,0,0,0L196.1,160.7
		C196,160.7,196,160.7,196.1,160.7C196.1,160.7,196.1,160.7,196.1,160.7"/>
	<path class="st10" d="M195.6,160.9l0.4-0.2c0,0,0,0,0,0l0.4,0.2c0,0,0,0,0,0c0,0,0,0,0,0l-0.4,0.2c0,0,0,0,0,0L195.6,160.9
		C195.6,161,195.6,160.9,195.6,160.9C195.6,160.9,195.6,160.9,195.6,160.9"/>
	<path class="st10" d="M195.2,161.2l0.4-0.2c0,0,0,0,0,0l0.4,0.2c0,0,0,0,0,0c0,0,0,0,0,0l-0.4,0.2c0,0,0,0,0,0L195.2,161.2
		C195.2,161.2,195.1,161.2,195.2,161.2C195.2,161.2,195.2,161.2,195.2,161.2"/>
	<path class="st10" d="M194.7,161.4l0.4-0.2c0,0,0,0,0,0l0.4,0.2c0,0,0,0,0,0c0,0,0,0,0,0l-0.4,0.2c0,0,0,0,0,0L194.7,161.4
		C194.7,161.5,194.7,161.5,194.7,161.4C194.7,161.4,194.7,161.4,194.7,161.4"/>
	<path class="st10" d="M194.3,161.7l0.3-0.2c0,0,0,0,0,0l0.4,0.2c0,0,0,0,0,0c0,0,0,0,0,0l-0.3,0.2c0,0,0,0,0,0L194.3,161.7
		C194.3,161.7,194.3,161.7,194.3,161.7C194.3,161.7,194.3,161.7,194.3,161.7"/>
	<path class="st10" d="M193.8,162l0.3-0.2c0,0,0,0,0,0l0.4,0.2c0,0,0,0,0,0c0,0,0,0,0,0l-0.3,0.2c0,0,0,0,0,0L193.8,162
		C193.8,162,193.8,162,193.8,162C193.8,162,193.8,162,193.8,162"/>
	<path class="st10" d="M193.4,162.2l0.3-0.2c0,0,0,0,0,0l0.4,0.2c0,0,0,0,0,0c0,0,0,0,0,0l-0.3,0.2c0,0,0,0,0,0L193.4,162.2
		C193.4,162.2,193.4,162.2,193.4,162.2C193.4,162.2,193.4,162.2,193.4,162.2"/>
	<path class="st10" d="M192.9,162.5l0.4-0.2c0,0,0,0,0,0l0.4,0.2c0,0,0,0,0,0c0,0,0,0,0,0l-0.4,0.2c0,0,0,0,0,0L192.9,162.5
		C192.9,162.5,192.9,162.5,192.9,162.5C192.9,162.5,192.9,162.5,192.9,162.5"/>
	<path class="st10" d="M192.5,162.7l0.4-0.2c0,0,0,0,0,0l0.4,0.2c0,0,0,0,0,0c0,0,0,0,0,0l-0.4,0.2c0,0,0,0,0,0L192.5,162.7
		C192.5,162.8,192.5,162.8,192.5,162.7C192.5,162.7,192.5,162.7,192.5,162.7"/>
	<path class="st10" d="M192,163l0.4-0.2c0,0,0,0,0,0l0.4,0.2c0,0,0,0,0,0c0,0,0,0,0,0l-0.4,0.2c0,0,0,0,0,0L192,163
		C192,163,192,163,192,163C192,163,192,163,192,163"/>
	<path class="st10" d="M198.4,160.4l-0.4,0.2c0,0,0,0,0,0l-0.4-0.2c0,0,0,0,0,0c0,0,0,0,0,0l0.4-0.2c0,0,0,0,0,0L198.4,160.4
		C198.4,160.3,198.4,160.3,198.4,160.4C198.4,160.3,198.4,160.3,198.4,160.4"/>
	<path class="st10" d="M197.2,160.6l0.4-0.2c0,0,0,0,0,0l0.4,0.2c0,0,0,0,0,0c0,0,0,0,0,0l-0.4,0.2c0,0,0,0,0,0L197.2,160.6
		C197.2,160.6,197.2,160.6,197.2,160.6C197.2,160.6,197.2,160.6,197.2,160.6"/>
	<path class="st10" d="M196.8,160.8l0.4-0.2c0,0,0,0,0,0l0.4,0.2c0,0,0,0,0,0c0,0,0,0,0,0l-0.4,0.2c0,0,0,0,0,0L196.8,160.8
		C196.7,160.8,196.7,160.8,196.8,160.8C196.7,160.8,196.8,160.8,196.8,160.8"/>
	<path class="st10" d="M196.3,161.1l0.4-0.2c0,0,0,0,0,0l0.4,0.2c0,0,0,0,0,0c0,0,0,0,0,0l-0.4,0.2c0,0,0,0,0,0L196.3,161.1
		C196.3,161.1,196.3,161.1,196.3,161.1C196.3,161.1,196.3,161.1,196.3,161.1"/>
	<path class="st10" d="M195.9,161.3l0.4-0.2c0,0,0,0,0,0l0.4,0.2c0,0,0,0,0,0c0,0,0,0,0,0l-0.4,0.2c0,0,0,0,0,0L195.9,161.3
		C195.8,161.4,195.8,161.3,195.9,161.3C195.9,161.3,195.9,161.3,195.9,161.3"/>
	<path class="st10" d="M195.4,161.6l0.4-0.2c0,0,0,0,0,0l0.4,0.2c0,0,0,0,0,0c0,0,0,0,0,0l-0.4,0.2c0,0,0,0,0,0L195.4,161.6
		C195.4,161.6,195.4,161.6,195.4,161.6C195.4,161.6,195.4,161.6,195.4,161.6"/>
	<path class="st10" d="M195,161.8l0.3-0.2c0,0,0,0,0,0l0.4,0.2c0,0,0,0,0,0c0,0,0,0,0,0l-0.3,0.2c0,0,0,0,0,0L195,161.8
		C195,161.9,195,161.9,195,161.8C195,161.8,195,161.8,195,161.8"/>
	<path class="st10" d="M194.5,162.1l0.3-0.2c0,0,0,0,0,0l0.4,0.2c0,0,0,0,0,0c0,0,0,0,0,0l-0.3,0.2c0,0,0,0,0,0L194.5,162.1
		C194.5,162.1,194.5,162.1,194.5,162.1C194.5,162.1,194.5,162.1,194.5,162.1"/>
	<path class="st10" d="M194.1,162.3l0.3-0.2c0,0,0,0,0,0l0.4,0.2c0,0,0,0,0,0c0,0,0,0,0,0l-0.3,0.2c0,0,0,0,0,0L194.1,162.3
		C194.1,162.4,194.1,162.4,194.1,162.3C194.1,162.4,194.1,162.3,194.1,162.3"/>
	<path class="st10" d="M193.6,162.6l0.4-0.2c0,0,0,0,0,0l0.4,0.2c0,0,0,0,0,0c0,0,0,0,0,0l-0.4,0.2c0,0,0,0,0,0L193.6,162.6
		C193.6,162.6,193.6,162.6,193.6,162.6C193.6,162.6,193.6,162.6,193.6,162.6"/>
	<path class="st10" d="M193.2,162.9l0.4-0.2c0,0,0,0,0,0l0.4,0.2c0,0,0,0,0,0c0,0,0,0,0,0l-0.4,0.2c0,0,0,0,0,0L193.2,162.9
		C193.2,162.9,193.2,162.9,193.2,162.9C193.2,162.9,193.2,162.9,193.2,162.9"/>
	<path class="st10" d="M194.1,163.1l0.2,0.1c0,0,0,0,0,0c0,0,0,0,0,0l-0.4,0.2c0,0,0,0,0,0l-0.2-0.1c0,0,0,0,0,0c0,0,0,0,0,0
		L194.1,163.1C194.1,163.1,194.1,163.1,194.1,163.1"/>
	<path class="st10" d="M193.4,163.8L193,164c0,0,0,0,0,0l-0.2-0.1c0,0,0,0,0,0c0,0,0,0,0,0l0.4-0.2c0,0,0,0,0,0L193.4,163.8
		C193.4,163.7,193.4,163.8,193.4,163.8C193.4,163.8,193.4,163.8,193.4,163.8"/>
	<path class="st10" d="M193.1,163.5l0.4-0.2c0,0,0,0,0,0l0.2,0.1l0.2,0.1c0,0,0,0,0,0c0,0,0,0,0,0l-0.4,0.2c0,0,0,0,0,0l-0.2-0.1
		L193.1,163.5C193.1,163.5,193.1,163.5,193.1,163.5C193.1,163.5,193.1,163.5,193.1,163.5"/>
	<path class="st10" d="M194.4,162.7l0.4,0.2c0,0,0,0,0,0c0,0,0,0,0,0l-0.4,0.2c0,0,0,0,0,0L194,163c0,0,0,0,0,0c0,0,0,0,0,0
		L194.4,162.7C194.3,162.7,194.3,162.7,194.4,162.7"/>
	<path class="st10" d="M194.9,162.4l0.4,0.2c0,0,0,0,0,0c0,0,0,0,0,0l-0.5,0.3c0,0,0,0,0,0l-0.4-0.2c0,0,0,0,0,0c0,0,0,0,0,0
		L194.9,162.4C194.9,162.4,194.9,162.4,194.9,162.4"/>
	<path class="st10" d="M193.5,163.2l-0.9,0.5c0,0,0,0,0,0l-0.4-0.2c0,0,0,0,0,0c0,0,0,0,0,0l0.9-0.5c0,0,0,0,0,0L193.5,163.2
		C193.5,163.1,193.5,163.2,193.5,163.2C193.5,163.2,193.5,163.2,193.5,163.2"/>
	<path class="st10" d="M191.7,162.6l-0.6,0.3c0,0,0,0,0,0l-0.4-0.2c0,0,0,0,0,0c0,0,0,0,0,0l0.6-0.3c0,0,0,0,0,0L191.7,162.6
		C191.8,162.5,191.8,162.5,191.7,162.6C191.8,162.6,191.8,162.6,191.7,162.6"/>
	<path class="st10" d="M196.5,159l0.3-0.2c0,0,0,0,0,0l0.2,0.1c0,0,0,0,0,0c0,0,0,0,0,0l-0.3,0.2c0,0,0,0,0,0L196.5,159
		C196.5,159,196.5,159,196.5,159C196.5,159,196.5,159,196.5,159"/>
	<path class="st10" d="M190.7,162.3l0.2,0.1c0,0,0,0,0,0c0,0,0,0,0,0l-0.2,0.1c0,0,0,0,0,0l-0.2-0.1c0,0,0,0,0,0c0,0,0,0,0,0
		L190.7,162.3C190.7,162.3,190.7,162.3,190.7,162.3"/>
	<path class="st10" d="M191,162.4l-0.2-0.1c0,0,0,0,0,0c0,0,0,0,0,0l5.6-3.2c0,0,0,0,0,0l0.2,0.1c0,0,0,0,0,0c0,0,0,0,0,0L191,162.4
		C191,162.5,191,162.5,191,162.4"/>
	<path class="st4" d="M199.9,163.4l-0.1-0.1c-0.1,0-0.1,0-0.2,0l-1.3,0.7c0,0,0,0.1,0,0.1c0,0,0,0,0,0l0.1,0.1L199.9,163.4z"/>
	<path class="st5" d="M189.4,163.7L189.4,163.7C189.4,163.7,189.4,163.7,189.4,163.7C189.4,163.7,189.4,163.7,189.4,163.7l-0.4-0.1
		c0,0,0,0,0-0.1c0,0,0-0.1,0.1-0.1c0,0,0,0,0,0L189.4,163.7C189.4,163.6,189.4,163.6,189.4,163.7"/>
	<path class="st5" d="M190.1,164L190.1,164C190.1,164.1,190.1,164.1,190.1,164C190,164.1,190,164.1,190.1,164l-0.4-0.1
		c0,0,0,0,0-0.1c0,0,0-0.1,0.1-0.1c0,0,0,0,0,0L190.1,164C190.1,164,190.1,164,190.1,164"/>
	<path class="st7" d="M196.4,157.2l0-4.9l-0.1,0c-0.1,0-0.1,0-0.2,0l-6.4,3.6c-0.1,0.1-0.2,0.2-0.2,0.4v4.7c0,0.1,0,0.1,0.1,0.2
		l0.1,0.1l6.4-3.6C196.3,157.5,196.4,157.3,196.4,157.2"/>
	<path class="st3" d="M196.5,157.2v-4.7c0-0.1-0.1-0.2-0.2-0.2c0,0-0.1,0-0.1,0l-6.4,3.7c-0.1,0.1-0.2,0.2-0.2,0.4v4.6
		c0,0.1,0.1,0.2,0.2,0.2c0,0,0.1,0,0.1,0l6.3-3.6C196.4,157.5,196.5,157.3,196.5,157.2"/>
	<polyline class="st11" points="188.2,163.9 188.2,163.9 188.2,163.9 	"/>
	<path class="st5" d="M195.8,153.3L195.8,153.3c0,0.1,0,0.1-0.1,0.1l-4.9,2.8c-0.1,0-0.1,0-0.1,0c0,0,0,0,0-0.1v0c0,0,0-0.1,0.1-0.1
		l4.9-2.8C195.6,153.2,195.7,153.2,195.8,153.3C195.8,153.3,195.8,153.3,195.8,153.3"/>
	<path class="st5" d="M194.9,154.5L194.9,154.5C194.9,154.5,194.9,154.6,194.9,154.5l-3,1.8c0,0-0.1,0-0.1,0c0,0,0,0,0,0v0
		c0,0,0,0,0-0.1L194.9,154.5C194.8,154.4,194.9,154.4,194.9,154.5C194.9,154.5,194.9,154.5,194.9,154.5"/>
	<path class="st5" d="M193.5,156.5L193.5,156.5C193.5,156.5,193.5,156.5,193.5,156.5l-3,1.8c0,0-0.1,0-0.1,0c0,0,0,0,0,0v0
		c0,0,0,0,0-0.1L193.5,156.5C193.5,156.4,193.5,156.4,193.5,156.5C193.5,156.4,193.5,156.4,193.5,156.5"/>
	<path class="st5" d="M194.9,155.3L194.9,155.3C194.9,155.3,194.9,155.3,194.9,155.3l-3,1.8c0,0-0.1,0-0.1,0c0,0,0,0,0,0v0
		c0,0,0,0,0-0.1L194.9,155.3C194.8,155.2,194.9,155.2,194.9,155.3C194.9,155.3,194.9,155.3,194.9,155.3"/>
	<path class="st5" d="M191.7,156.3L191.7,156.3C191.7,156.4,191.7,156.4,191.7,156.3l-1.2,0.7c0,0-0.1,0-0.1,0c0,0,0,0,0,0v0
		c0,0,0,0,0-0.1L191.7,156.3C191.7,156.2,191.7,156.3,191.7,156.3C191.7,156.3,191.7,156.3,191.7,156.3"/>
	<path class="st5" d="M193.5,155.7L193.5,155.7C193.5,155.8,193.4,155.8,193.5,155.7l-1.2,0.7c0,0-0.1,0-0.1,0c0,0,0,0,0,0v0
		c0,0,0,0,0-0.1L193.5,155.7C193.4,155.6,193.4,155.7,193.5,155.7C193.4,155.7,193.5,155.7,193.5,155.7"/>
	<path class="st5" d="M191.7,157.1L191.7,157.1C191.7,157.1,191.7,157.1,191.7,157.1l-1.2,0.7c0,0-0.1,0-0.1,0c0,0,0,0,0,0v0
		c0,0,0,0,0-0.1L191.7,157.1C191.7,157,191.7,157,191.7,157.1C191.7,157.1,191.7,157.1,191.7,157.1"/>
	<path class="st5" d="M194.9,155.7L194.9,155.7C194.9,155.7,194.9,155.7,194.9,155.7l-1.2,0.7c0,0-0.1,0-0.1,0c0,0,0,0,0,0v0
		c0,0,0,0,0-0.1L194.9,155.7C194.8,155.6,194.9,155.6,194.9,155.7C194.9,155.6,194.9,155.6,194.9,155.7"/>
	<path class="st5" d="M192.1,156.5L192.1,156.5C192.1,156.6,192.1,156.6,192.1,156.5l-1.5,0.9c0,0-0.1,0-0.1,0c0,0,0,0,0,0v0
		c0,0,0,0,0-0.1L192.1,156.5C192,156.4,192,156.5,192.1,156.5C192.1,156.5,192.1,156.5,192.1,156.5"/>
	<path class="st5" d="M194.9,154.9L194.9,154.9C194.9,154.9,194.9,154.9,194.9,154.9l-1.2,0.7c0,0-0.1,0-0.1-0.1c0,0,0,0,0,0v0
		c0,0,0,0,0-0.1L194.9,154.9C194.8,154.8,194.9,154.8,194.9,154.9C194.9,154.9,194.9,154.9,194.9,154.9"/>
	<path class="st5" d="M193.5,158.4L193.5,158.4C193.5,158.5,193.4,158.5,193.5,158.4l-1.2,0.7c0,0-0.1,0-0.1,0c0,0,0,0,0,0v0
		c0,0,0,0,0-0.1L193.5,158.4C193.4,158.4,193.4,158.4,193.5,158.4C193.4,158.4,193.5,158.4,193.5,158.4"/>
	<path class="st5" d="M192.1,159.2L192.1,159.2C192.1,159.3,192.1,159.3,192.1,159.2l-1.5,0.9c0,0-0.1,0-0.1,0c0,0,0,0,0,0v0
		c0,0,0,0,0-0.1L192.1,159.2C192,159.2,192,159.2,192.1,159.2C192.1,159.2,192.1,159.2,192.1,159.2"/>
	<path class="st5" d="M194.9,157.6L194.9,157.6C194.9,157.6,194.9,157.7,194.9,157.6l-1.2,0.7c0,0-0.1,0-0.1-0.1c0,0,0,0,0,0v0
		c0,0,0,0,0-0.1L194.9,157.6C194.8,157.5,194.9,157.5,194.9,157.6C194.9,157.6,194.9,157.6,194.9,157.6"/>
	<path class="st5" d="M194.9,156L194.9,156C194.9,156.1,194.9,156.1,194.9,156l-3,1.8c0,0-0.1,0-0.1,0c0,0,0,0,0,0v0c0,0,0,0,0-0.1
		L194.9,156C194.8,156,194.9,156,194.9,156C194.9,156,194.9,156,194.9,156"/>
	<path class="st5" d="M193.5,158L193.5,158C193.5,158,193.5,158.1,193.5,158l-3,1.8c0,0-0.1,0-0.1,0c0,0,0,0,0,0v0c0,0,0,0,0-0.1
		L193.5,158C193.5,157.9,193.5,157.9,193.5,158C193.5,158,193.5,158,193.5,158"/>
	<path class="st5" d="M194.9,156.8L194.9,156.8C194.9,156.9,194.9,156.9,194.9,156.8l-3,1.8c0,0-0.1,0-0.1,0c0,0,0,0,0,0v0
		c0,0,0,0,0-0.1L194.9,156.8C194.8,156.8,194.9,156.8,194.9,156.8C194.9,156.8,194.9,156.8,194.9,156.8"/>
	<path class="st5" d="M191.7,157.9L191.7,157.9C191.7,157.9,191.7,157.9,191.7,157.9l-1.2,0.7c0,0-0.1,0-0.1,0c0,0,0,0,0,0v0
		c0,0,0,0,0-0.1L191.7,157.9C191.7,157.8,191.7,157.8,191.7,157.9C191.7,157.8,191.7,157.9,191.7,157.9"/>
	<path class="st5" d="M193.5,157.3L193.5,157.3C193.5,157.3,193.4,157.3,193.5,157.3l-1.2,0.7c0,0-0.1,0-0.1,0c0,0,0,0,0,0v0
		c0,0,0,0,0-0.1L193.5,157.3C193.4,157.2,193.4,157.2,193.5,157.3C193.4,157.2,193.5,157.3,193.5,157.3"/>
	<path class="st5" d="M191.7,158.6L191.7,158.6C191.7,158.7,191.7,158.7,191.7,158.6l-1.2,0.7c0,0-0.1,0-0.1,0c0,0,0,0,0,0v0
		c0,0,0,0,0-0.1L191.7,158.6C191.7,158.5,191.7,158.6,191.7,158.6C191.7,158.6,191.7,158.6,191.7,158.6"/>
	<path class="st5" d="M194.9,157.2L194.9,157.2C194.9,157.2,194.9,157.3,194.9,157.2l-1.2,0.7c0,0-0.1,0-0.1,0c0,0,0,0,0,0v0
		c0,0,0,0,0-0.1L194.9,157.2C194.8,157.1,194.9,157.1,194.9,157.2C194.9,157.2,194.9,157.2,194.9,157.2"/>
	<path class="st5" d="M192.1,158.1L192.1,158.1C192.1,158.1,192.1,158.1,192.1,158.1l-1.5,0.9c0,0-0.1,0-0.1,0c0,0,0,0,0,0v0
		c0,0,0,0,0-0.1L192.1,158.1C192,158,192,158,192.1,158.1C192.1,158,192.1,158.1,192.1,158.1"/>
	<path class="st5" d="M194.9,156.4L194.9,156.4C194.9,156.5,194.9,156.5,194.9,156.4l-1.2,0.7c0,0-0.1,0-0.1-0.1c0,0,0,0,0,0v0
		c0,0,0,0,0-0.1L194.9,156.4C194.8,156.4,194.9,156.4,194.9,156.4C194.9,156.4,194.9,156.4,194.9,156.4"/>
	<polygon class="st5" points="195.2,157.5 195.8,157.2 195.8,153.9 195.2,154.2 	"/>
	<g class="st12">
		<g>
			<defs>
				<rect id="SVGID_1_" x="189.8" y="154.9" width="6.2" height="3.5"/>
			</defs>
			<clipPath id="SVGID_2_">
				<use xlink:href="#SVGID_1_"  style="overflow:visible;"/>
			</clipPath>
			<g class="st13">
				<polygon class="st3" points="189.8,155 190,154.9 195.9,158.3 195.7,158.4 				"/>
			</g>
		</g>
	</g>
	<g class="st12">
		<g>
			<defs>
				<rect id="SVGID_3_" x="190.4" y="154.2" width="6.8" height="3.8"/>
			</defs>
			<clipPath id="SVGID_4_">
				<use xlink:href="#SVGID_3_"  style="overflow:visible;"/>
			</clipPath>
			<g class="st14">
				<path class="st3" d="M197,157.6l-0.7,0.4l-6-3.4l0.8-0.5l6,3.4C197.1,157.6,197.1,157.6,197,157.6"/>
			</g>
		</g>
	</g>
	<g class="st12">
		<g>
			<defs>
				<rect id="SVGID_5_" x="189.1" y="155.3" width="6.2" height="3.5"/>
			</defs>
			<clipPath id="SVGID_6_">
				<use xlink:href="#SVGID_5_"  style="overflow:visible;"/>
			</clipPath>
			<g class="st15">
				<polygon class="st3" points="189.4,155.3 195.3,158.6 195.1,158.7 189.1,155.4 				"/>
			</g>
		</g>
	</g>
	<path class="st16" d="M200.9,159.6c7.9-9.3,3.9-10.8,3.9-10.8c-3.4-3.2-7.8,6-7.8,6l-2,3.4l-5.4-1l-0.9,2.1c0,0,5.5,4.9,8,3.5
		C198.2,161.9,199.6,160.8,200.9,159.6"/>
	<path class="st16" d="M201.5,169.6c1.4,0.4,2.8,0.7,4.2,0.8c0.7,0,1.4,0,2.1,0c4.9-0.5,6.4-1.7,6.2-4.8c0-3.5,0.1-7.1,0.5-10.6
		c1.9-13.1-5.3-9.9-5.3-9.9c-0.3,0.1-0.6,0.3-0.9,0.5c-0.8,0.5-1.7,0.8-2.7,1c-1.8,0.3-3.4,1.2-4.6,2.5c-6.7,7.6-0.5,9.4-0.6,10.5
		c-0.1,1.1,0,1.8,0.1,3.2c0,1,0,1.9-0.1,2.9c-0.1,1-0.1,2,0,3C200.5,169,200.9,169.4,201.5,169.6"/>
	<path class="st17" d="M202.6,138.1c-0.1,0.1-1,7.8,2.6,6.9c0,0.5-0.1,1-0.3,1.5c0,0,2.6,0.9,4.1-0.4c0.3-0.2,0.4-0.6,0.3-0.9
		c-0.1-0.3-0.3-0.8-0.5-1.3C208.3,142.5,209.6,135.5,202.6,138.1"/>
	<path class="st3" d="M204.7,146.6l0.4-0.5c0,0,2.9,0.8,4.1-1.1c0,0,0.9,1.3-1.4,1.8C205.5,147.2,204.7,146.6,204.7,146.6"/>
	<path class="st18" d="M201,159.6C201,159.6,201,159.6,201,159.6L201,159.6c0,0-0.3,0.2-0.6,0.5c0,1.2,0.1,2.8,0.1,3.4
		c3.3-2.4,5-6.2,4.7-10.2C204.1,155.6,202.7,157.7,201,159.6"/>
	<polyline class="st6" points="212.5,145 212.5,145 212.5,145 212.5,145 	"/>
	<path class="st16" d="M216.4,157.6l-0.1-3.2c-0.1-5.5-2-8-3.2-9c1.3,1.1,2.2,3.7,1.4,9.5c-0.4,2.6-0.6,5.2-0.6,7.8l2.1-3.2
		C216.2,158.9,216.4,158.3,216.4,157.6"/>
	<path class="st18" d="M214.7,152.5L214.7,152.5c0,0.7-0.1,1.5-0.3,2.4c0,0-0.4,3.1-0.6,6l0,0C215.2,158.2,214.7,152.5,214.7,152.5"
		/>
	<path class="st19" d="M213.8,167.4c-0.4,1.4-1.7,2.2-4.1,2.6c-0.2-0.7-0.4-1.3-0.5-2c-0.1,0.7-0.2,1.4-0.2,2.1
		c-0.4,0.1-0.8,0.1-1.2,0.1c-0.7,0.1-1.4,0.1-2.1,0c-1.4-0.1-2.8-0.3-4.2-0.8c-0.4-0.1-0.7-0.4-1-0.7v2.3
		C200.5,171.2,212.2,173.4,213.8,167.4L213.8,167.4z"/>
	<path class="st19" d="M194.4,182.6l-0.1-3.4l-0.4-0.1c0,0-0.1,0-0.2,0c0,1.8-0.1,3.4-0.1,4.7c0.5,0.2,1,0.4,1.5,0.6v0.5
		c0,0,3.8,2.2,5.5-0.5v-2.6c0,0.4,0,0.6,0,0.7C198.1,185.2,194.4,182.6,194.4,182.6"/>
	<path class="st19" d="M200.8,180.9c0,0.4,0,0.7,0,0.9L200.8,180.9L200.8,180.9z"/>
	<path class="st19" d="M193.6,186.1c-2.7,1.5-6.6-0.3-6.6-0.3v-3.2l-0.1,0c-0.5,0-1-0.1-1.5-0.3c-1-0.3-2,0.2-2.3,1.2
		c0,0,0,0.1,0,0.1c0,0,0,0.7-0.1,0.7c-0.3,1.7,1.7,2.2,5.1,3.5v0.5c0,0,3.8,2.2,5.5-0.5v-3.5l0,0C193.6,185.4,193.6,186,193.6,186.1
		"/>
	<path class="st20" d="M188.1,187.8c-3-1.1-5-1.7-5.2-3c-0.2,1.6,1.8,2.1,5.2,3.4V187.8z"/>
	<path class="st20" d="M188.1,188.3v0.4c0,0,3.8,2.2,5.5-0.5v-0.4C191.9,190.5,188.1,188.3,188.1,188.3"/>
	<path class="st20" d="M195.2,184.8v0.4c0,0,3.8,2.2,5.5-0.5v-0.4C199,187,195.2,184.8,195.2,184.8"/>
	<path class="st20" d="M193.7,184.1c0.5,0.2,1,0.4,1.5,0.6v-0.4c-0.5-0.2-1.1-0.4-1.5-0.6C193.7,183.9,193.7,184,193.7,184.1"/>
	<rect x="191.4" y="170.6" class="st3" width="0.1" height="15.4"/>
	<polygon class="st3" points="198.7,183.3 198.2,171.9 198.3,171.9 198.8,183.3 	"/>
	<path class="st17" d="M189.4,157.6L189.4,157.6l-0.5-0.9c-0.1-0.1-0.2-0.2-0.3-0.1c0,0-0.1,0.1-0.1,0.1c-0.1,0.2,0,0.4,0,0.6
		c-0.4,0-0.4-0.1-0.4-0.7c0-0.2-1.2,0.2-1.4,0.4c-0.4,0.5-0.3,1.3,0.3,1.6c0.1,0.1,0.2,0.1,0.3,0.1c0.8,0.5,1.1,0.3,1.1,0.3l0.4,0.2
		L189.4,157.6z"/>
	<path class="st17" d="M188.2,156.6c0-0.2-1.2,0.1-1.4,0.4c-0.4,0.5-0.3,1.3,0.3,1.7c0.1,0.1,0.2,0.1,0.2,0.1"/>
	<path class="st21" d="M203.4,134.3c-1.5-0.3-4.3,2.5,0,4.2c0,0-0.2,3.1,0.6,3.2c0.3,0,0.2-3,1.6,0.8s3,1.5,3.2,1.1
		c0.1-0.1,2.2-1.5,1.3-2.9c0.6,0,2.1-2.1,0.1-3c0.6-0.5,0.7-1.3,0.2-1.9c-0.3-0.4-0.9-0.6-1.4-0.5c-0.2-0.9-1.2-1.5-2.1-1.2
		c-0.2,0.1-0.4,0.1-0.6,0.3c-0.6-0.9-1.8-1.1-2.6-0.5C203.7,134,203.6,134.1,203.4,134.3"/>
	<path class="st22" d="M224.8,169.6c-0.1-0.2-2.5-8.9-2.5-8.9s-2.2-5.2-8.3-3.2c-3.6,1.2-6.4,4-7.5,7.6c0,0-3.4,8.7-9,5.1
		s-4.5,4.4-4.5,4.4l9.1,5.3c3.4,1.5,7.2,1.6,10.7,0.4c3.6-1.6,7.1-3.4,10.4-5.6C224.5,173.4,225.2,171.5,224.8,169.6"/>
	<path class="st7" d="M197,178.4l1.6,1l-3.2,10.3c-0.2,0.5-0.7,0.8-1.2,0.6s-0.8-0.7-0.6-1.2L197,178.4z"/>
	<path class="st7" d="M211.4,182.1l2.4,16.8c0.1,0.5-0.3,1-0.8,1s-1-0.3-1-0.8l-2.4-16.7C210.2,182.4,210.8,182.3,211.4,182.1"/>
	<path class="st7" d="M222.4,176.5l4.9,13.8c0.2,0.5-0.1,1-0.6,1.2c-0.5,0.2-1-0.1-1.1-0.5l-4.7-13.5
		C221.5,177.1,222,176.7,222.4,176.5"/>
	<path class="st7" d="M212.7,180.3c3.6-1.6,7.1-3.4,10.4-5.6c0.9-0.8,1.6-1.9,1.8-3.2c0.2,1.7-0.5,3.4-1.8,4.5
		c-3.3,2.2-6.8,4.1-10.4,5.6c-3.5,1.3-7.3,1.1-10.7-0.4l-8.9-5.2c0,0,0-0.2-0.2-1.5l9.1,5.3C205.3,181.4,209.2,181.6,212.7,180.3"/>
	<polyline class="st23" points="177.4,144.5 188.5,138 188.5,153.6 	"/>
	<path class="st24" d="M174.3,171.8c-1.6,3.5-11.6,2.4-22.3-2.6s-18-11.9-16.4-15.4s11.6-2.4,22.3,2.6S175.9,168.3,174.3,171.8"/>
	<path class="st6" d="M140.4,142.5l28.1,16.3c1.9,1.1,4.3,0.5,5.4-1.4c0.4-0.6,0.5-1.3,0.5-2V71.1c0-3.2-1.7-6.2-4.5-7.9l-27.5-15.9
		c-2-1.2-4.6-0.5-5.8,1.5c-0.4,0.6-0.6,1.4-0.6,2.1v83.8C136,137.9,137.6,140.9,140.4,142.5"/>
	<path class="st7" d="M174.4,155.3V71.1c0-3.2-1.7-6.2-4.5-7.9l-27.8-16.1c-1.1-0.6-2.3-0.6-3.4-0.2c3.4-1.7,6.6-2.1,9.4-0.4
		l25.5,14.7c2.8,1.6,4.5,4.6,4.5,7.9v85.1c0,0.7-0.4,1.4-1,1.8l-4.4,2.6C173.7,157.9,174.4,156.6,174.4,155.3"/>
	<path class="st22" d="M143.4,51l4.3,2.5v1.7c0,0.7,0.3,1.3,0.9,1.6l12.2,7c0.5,0.3,1.3,0.1,1.6-0.4c0.1-0.2,0.2-0.4,0.2-0.6l0-0.7
		l5.2,3c2.4,1.4,3.9,4,3.9,6.8v80.9c0,2.6-1.6,3.7-3.9,2.4l-25.4-14.8c-2.4-1.4-3.8-3.9-3.8-6.6v-81C138.6,50.5,140.5,49.3,143.4,51
		"/>
	<g class="st12">
		<g>
			<defs>
				<rect id="SVGID_7_" x="138.5" y="88.7" width="33.1" height="22"/>
			</defs>
			<clipPath id="SVGID_8_">
				<use xlink:href="#SVGID_7_"  style="overflow:visible;"/>
			</clipPath>
			<g class="st25">
				<polygon class="st3" points="171.6,88.7 171.6,90 138.5,110.8 138.5,109.5 				"/>
			</g>
		</g>
	</g>
	<g class="st12">
		<g>
			<defs>
				<rect id="SVGID_9_" x="138.6" y="92.7" width="33.2" height="26"/>
			</defs>
			<clipPath id="SVGID_10_">
				<use xlink:href="#SVGID_9_"  style="overflow:visible;"/>
			</clipPath>
			<g class="st26">
				<path class="st3" d="M138.7,117.9l-0.1-4.5l33.1-20.7l0.1,5.3l-33,20.7C138.8,118.4,138.7,118.2,138.7,117.9"/>
			</g>
		</g>
	</g>
	<g class="st12">
		<g>
			<defs>
				<rect id="SVGID_11_" x="138.4" y="84.6" width="33.1" height="22.2"/>
			</defs>
			<clipPath id="SVGID_12_">
				<use xlink:href="#SVGID_11_"  style="overflow:visible;"/>
			</clipPath>
			<g class="st27">
				<polygon class="st3" points="171.5,86.1 138.4,106.9 138.4,105.4 171.5,84.6 				"/>
			</g>
		</g>
	</g>
	<path class="st8" d="M182.4,116.8V70c0-1,0.8-1.7,1.7-1.7c0.3,0,0.6,0.1,0.9,0.2l63,36.5c1.3,0.7,2.1,2.1,2.1,3.6v46
		c0,1.2-1,2.3-2.3,2.3c-0.4,0-0.8-0.1-1.1-0.3l-62.1-35.9C183.2,119.8,182.4,118.4,182.4,116.8"/>
	<path class="st10" d="M183.5,68.4L183.5,68.4L183.5,68.4L183.5,68.4z"/>
	<path class="st10" d="M248.9,104.5l-63-36.6c-0.4-0.2-0.8-0.2-1.2-0.1l-1.1,0.5c0.5-0.2,1.1-0.2,1.5,0.1l63,36.5
		c1.3,0.7,2.1,2.1,2.1,3.6v46c0,0.8-0.4,1.5-1.1,1.9l0,0l1.2-0.7c0.5-0.3,0.7-0.7,0.7-1.3v-46.5
		C250.9,106.6,250.1,105.2,248.9,104.5"/>
	<path class="st22" d="M232.1,114L232.1,114c0,2,1,3.7,2.7,4.7l3.2,1.9c2.6,1.5,5.9,0.6,7.4-2c1.5-2.6,0.6-5.8-1.9-7.3l-3.2-1.9
		c-2.6-1.5-5.9-0.6-7.4,1.9C232.4,112.1,232.1,113,232.1,114"/>
	<path class="st16" d="M234.8,118.7l2,1.1l1.3,0.7c1.5,0.9,3.3,1,4.9,0.3c-0.4-2.2-1.4-4.3-3.8-4.8c0,0-1.5,1.2-2-0.3
		c0-0.1-1.8-0.2-2.8,2.6C234.4,118.4,234.6,118.6,234.8,118.7"/>
	<path class="st21" d="M239.1,115c0-0.2,0.2,0,0.4-0.2c-0.1,0.1-0.1,0.3-0.1,0.5c0,0.1-0.1,0.2-0.2,0.2
		C239.1,115.2,239.1,115.1,239.1,115"/>
	<path class="st17" d="M236.3,113.4c0,0-0.2,3.1,0.8,2.8c0,0,0.2,0.1,0.1,0.4s1.5,0.4,1.9-0.5c0,0,0-0.9,0-1.1s0.4,0.2,0.5-0.8
		C239.6,114.1,238.7,111.3,236.3,113.4"/>
	<path class="st21" d="M239.2,112.3c0.3,0.1,0.5,0.3,0.6,0.5c0.1,0.2,0.1,0.4-0.1,0.6c-0.3,0.5-0.1,0.7-0.1,0.7s-0.2-0.3-0.4-0.1
		c0,0-0.1,0.1-0.1,0.1c-0.1,0.2-0.3,0.5-0.5,0.3c-0.1-0.1,0.2-1.1-0.2-1.2s-2.2,0.7-2.4-0.5s0.7-1.6,0.8-1.1L239.2,112.3z"/>
	<path class="st3" d="M239.1,116l0,0.1c-0.4,0.9-2,0.8-1.9,0.5s-0.1-0.4-0.1-0.4c-0.1,0-0.2,0-0.3-0.1c-0.2,0.4-0.3,1,0.8,1.1
		c1.8,0.2,1.9-1.2,1.9-1.2L239.1,116L239.1,116z"/>
	<path class="st6" d="M185.1,113.3V74.1c0-0.8,0.7-1.5,1.5-1.5c0.3,0,0.5,0.1,0.7,0.2l1.7,1c1.1,0.6,1.7,1.8,1.7,3v38.4
		c0,1-0.8,1.9-1.9,1.9c-0.3,0-0.7-0.1-0.9-0.3l-1-0.5C185.8,115.7,185.1,114.6,185.1,113.3"/>
	<path class="st6" d="M192.9,78.6l6.6,3.6c0.4,0.2,0.8-0.4,0.4-0.6c-2.2-1.2-4.4-2.4-6.6-3.6C192.9,77.8,192.5,78.4,192.9,78.6"/>
	<path class="st6" d="M192.4,97.9l4.4,2.4c0.2,0.1,0.4-0.2,0.2-0.3l-4.4-2.4C192.3,97.5,192.2,97.8,192.4,97.9"/>
	<path class="st6" d="M192.4,102.6l4.4,2.4c0.2,0.1,0.4-0.2,0.2-0.3l-4.4-2.4C192.3,102.2,192.2,102.5,192.4,102.6"/>
	<path class="st6" d="M192.4,107.9l4.4,2.4c0.2,0.1,0.4-0.2,0.2-0.3l-4.4-2.4C192.3,107.5,192.2,107.8,192.4,107.9"/>
	<path class="st6" d="M192.4,113.2l4.4,2.4c0.2,0.1,0.4-0.2,0.2-0.3l-4.4-2.4C192.3,112.8,192.2,113.1,192.4,113.2"/>
	<path class="st6" d="M192.4,118.4l4.4,2.4c0.2,0.1,0.4-0.2,0.2-0.3l-4.4-2.4C192.3,118,192.2,118.3,192.4,118.4"/>
	<path class="st6" d="M198.9,123.9l4.4,2.4c0.2,0.1,0.4-0.2,0.2-0.3l-4.4-2.4C198.8,123.5,198.7,123.8,198.9,123.9"/>
	<path class="st6" d="M207.4,129l4.4,2.4c0.2,0.1,0.4-0.2,0.2-0.3l-4.4-2.4C207.3,128.6,207.2,128.9,207.4,129"/>
	<path class="st6" d="M216.3,134l4.4,2.4c0.2,0.1,0.4-0.2,0.2-0.3l-4.4-2.4C216.3,133.5,216.1,133.8,216.3,134"/>
	<path class="st6" d="M233.2,121.8c2.2,1.2,4.4,2.4,6.6,3.6c0.2,0.1,0.4-0.2,0.2-0.3l-6.6-3.6C233.2,121.4,233,121.7,233.2,121.8"/>
	<path class="st6" d="M233.1,126.3c2.2,1.2,4.4,2.4,6.6,3.6c0.2,0.1,0.4-0.2,0.2-0.3c-2.2-1.2-4.4-2.4-6.6-3.6
		C233.1,125.9,232.9,126.2,233.1,126.3"/>
	<path class="st6" d="M233.2,130.7l6.6,3.6c0.2,0.1,0.4-0.2,0.2-0.3c-2.2-1.2-4.4-2.4-6.6-3.6C233.2,130.3,233,130.6,233.2,130.7"/>
	<path class="st18" d="M193.5,84.5v-0.8c0-0.5,0.4-1,1-1c0.2,0,0.3,0,0.5,0.1l34.3,20.3c0.7,0.4,1.1,1.2,1.1,2v0.4
		c0,0.7-0.6,1.3-1.3,1.3c-0.2,0-0.4-0.1-0.6-0.2l-33.8-20C194,86.1,193.5,85.3,193.5,84.5"/>
	<path class="st6" d="M232.1,135.7v6.8c0,0.4,0.2,0.8,0.6,1l9.8,5.7c0.3,0.1,0.6,0.1,0.7-0.2c0-0.1,0.1-0.2,0.1-0.3v-7.1
		c0-0.4-0.2-0.7-0.5-0.9l-9.7-5.6c-0.3-0.2-0.8-0.1-0.9,0.3C232.2,135.5,232.1,135.6,232.1,135.7"/>
	<polygon class="st28" points="198.3,94.5 198.3,95.1 201.8,97.1 201.8,96.5 	"/>
	<polygon class="st18" points="210.6,101.7 210.6,102.2 214.1,104.2 214.1,103.7 	"/>
	<polygon class="st22" points="222.5,108.9 222.5,109.4 226.1,111.5 226.1,110.9 	"/>
	<polygon class="st28" points="193.7,90.9 193.7,94.3 196.6,96 196.6,92.6 	"/>
	<path class="st29" d="M186.5,81.3v1.6c0,0.3,0.1,0.5,0.4,0.7l1.4,0.8c0.4,0.2,0.9,0.1,1.1-0.3c0.1-0.1,0.1-0.3,0.1-0.4v-1.6
		c0-0.3-0.1-0.5-0.4-0.7l-1.3-0.8c-0.4-0.2-0.9-0.1-1.1,0.3C186.5,81,186.5,81.1,186.5,81.3"/>
	<path class="st29" d="M186.5,87.8v1.6c0,0.3,0.1,0.5,0.4,0.7l1.4,0.8c0.4,0.2,0.9,0.1,1.1-0.3c0.1-0.1,0.1-0.3,0.1-0.4v-1.6
		c0-0.3-0.1-0.5-0.4-0.7l-1.3-0.8c-0.4-0.2-0.9-0.1-1.1,0.3C186.5,87.5,186.5,87.6,186.5,87.8"/>
	<path class="st29" d="M186.5,94.6v1.6c0,0.3,0.1,0.5,0.4,0.7l1.4,0.8c0.4,0.2,0.9,0.1,1.1-0.3c0.1-0.1,0.1-0.3,0.1-0.4v-1.6
		c0-0.3-0.1-0.5-0.4-0.7l-1.3-0.8c-0.4-0.2-0.9-0.1-1.1,0.3C186.5,94.3,186.5,94.5,186.5,94.6"/>
	<polygon class="st18" points="206,98.1 206,101.6 208.9,103.2 208.9,99.9 	"/>
	<polygon class="st22" points="218,105.1 218,108.5 220.9,110.2 220.9,106.8 	"/>
	<path class="st6" d="M215.7,115.3v0.6c0,0.2,0.1,0.4,0.3,0.5l1.6,0.9c0.3,0.2,0.7,0.1,0.9-0.2c0.1-0.1,0.1-0.2,0.1-0.3v-0.6
		c0-0.2-0.1-0.4-0.3-0.5l-1.6-1c-0.3-0.2-0.7-0.1-0.9,0.2C215.8,115.1,215.7,115.2,215.7,115.3"/>
	<path class="st18" d="M197.2,120.7c0.3-0.7,0.7-1.4,1.1-2.1c0.3-0.6,0.9-1,1.6-1.2c0.7-0.1,1.3,0.2,1.8,0.7
		c0.5,0.5,0.9,1.1,1.3,1.8c0.3,0.6,0.8,1.2,1.3,1.7c0.5,0.5,1,0.8,1.7,1.1c1.3,0.6,2.7,0.6,4,0c1.1-0.6,2-1.5,2.7-2.5
		c0.6-1,1.7-1.7,2.8-2c1.4-0.1,2.7,0.6,3.5,1.8c0.4,0.6,0.7,1.2,0.9,1.8c0.2,0.8,0.4,1.5,0.5,2.3c0.2,1.4,0.8,2.7,1.8,3.7
		c0.5,0.4,1.1,0.7,1.7,0.7c0.7,0,1.5-0.2,2.1-0.5c0.3-0.2,0.7-0.4,1-0.6c0.1-0.1,0.1-0.2,0.1-0.2c0-0.1-0.2-0.1-0.2-0.1
		c-1.2,0.7-2.7,1.5-4.1,0.7c-1.1-0.8-1.8-2.1-2-3.5c-0.2-0.8-0.3-1.6-0.5-2.4c-0.2-0.7-0.5-1.3-0.8-1.9c-0.7-1.2-1.9-2-3.3-2.2
		c-0.6-0.1-1.3,0-1.9,0.3c-0.5,0.3-1,0.7-1.4,1.1c-0.7,1-1.5,1.9-2.4,2.7c-1.2,0.8-2.7,1-4,0.5c-0.6-0.2-1.2-0.6-1.7-1
		c-0.5-0.5-1-1-1.3-1.7c-0.7-1.2-1.5-2.6-3-2.8c-0.7-0.1-1.3,0.2-1.8,0.7c-0.5,0.5-0.9,1.1-1.3,1.8c-0.2,0.3-0.3,0.7-0.5,1
		C196.8,120.9,197.1,120.9,197.2,120.7"/>
	<path class="st22" d="M197.7,112.9c1.7-0.6,2.4-2.4,3-3.9c0.3-0.8,0.8-1.6,1.4-2.2c0.6-0.6,1.3-0.8,2.1-0.8
		c0.8,0.2,1.5,0.6,1.9,1.3c0.5,0.8,0.7,1.7,0.7,2.6c0,1,0,2-0.1,3c-0.1,1-0.2,2.1-0.3,3.1c-0.2,1.9-0.1,3.8,0.3,5.7
		c0.4,1.6,1.4,3.1,2.7,4.1c1.3,1,2.9,1.4,4.5,1c1.6-0.5,3.1-1.5,4.2-2.7c0.7-0.7,1.3-1.4,1.9-2.2c0.6-0.7,1.1-1.5,1.7-2.2
		c1-1.4,2.7-2.3,4.4-2.4c0.4,0,0.8,0.1,1.2,0.2c0.2,0.1,0.3-0.3,0.1-0.3c-1.7-0.5-3.5-0.1-4.7,1.1c-1.3,1.3-2.5,2.7-3.6,4.2
		c-1.1,1.4-2.5,2.6-4,3.5c-0.8,0.4-1.6,0.6-2.4,0.6c-0.8,0-1.6-0.2-2.3-0.6c-1.4-0.8-2.5-2.1-3.1-3.7c-0.6-1.8-0.8-3.7-0.6-5.6
		c0.1-2.1,0.5-4.2,0.5-6.2c0-1.7-0.4-3.6-2-4.5c-0.7-0.4-1.5-0.5-2.3-0.2c-0.7,0.3-1.4,0.8-1.8,1.5c-1,1.5-1.3,3.4-2.6,4.6
		c-0.3,0.3-0.6,0.5-1,0.6C197.4,112.7,197.5,113,197.7,112.9"/>
	<path class="st8" d="M35.1,104.4v47c0,1.1,0.9,2,2,2c0.4,0,0.7-0.1,1-0.3l73.5-43.2c1.5-0.9,2.4-2.4,2.3-4.1V59
		c0-1-0.8-1.8-1.8-1.8c-0.3,0-0.6,0.1-0.9,0.2l-73.7,42.6C36,101,35.1,102.6,35.1,104.4"/>
	<path class="st10" d="M35.1,151.4v-47c0-1.8,1-3.5,2.5-4.4l73.7-42.6c0.4-0.2,0.9-0.3,1.3-0.2l-1.1-0.4c-0.9-0.3-1.9-0.3-2.8,0.2
		L36,99.1c-1.6,0.9-2.5,2.6-2.5,4.4v47.4c0,1.5,2.6,2.3,2.6,2.3C35.5,152.8,35.1,152.2,35.1,151.4"/>
	<path class="st7" d="M106.5,96l-6.1,3.5l-6.1,3.5c-1.1,0.7-2.3,1.3-3.4,2c-0.3,0.2-0.4,0.6-0.2,0.9c0.2,0.3,0.6,0.4,0.9,0.2l0,0
		c2-1.2,4.1-2.3,6.1-3.5l6.1-3.5l3.4-2c0.3-0.2,0.4-0.6,0.2-0.9S106.8,95.8,106.5,96"/>
	<path class="st7" d="M106.5,100.5l-6.1,3.5l-6.1,3.5c-1.1,0.7-2.3,1.3-3.4,2c-0.3,0.2-0.4,0.6-0.2,0.9c0.2,0.3,0.6,0.4,0.9,0.2l0,0
		c2-1.2,4.1-2.3,6.1-3.5l6.1-3.5l3.4-2c0.3-0.2,0.4-0.6,0.2-0.9S106.8,100.3,106.5,100.5"/>
	<path class="st7" d="M106.5,105.3l-6.1,3.5l-6.1,3.5c-1.1,0.7-2.3,1.3-3.4,2c-0.3,0.2-0.4,0.6-0.2,0.9c0.2,0.3,0.6,0.4,0.9,0.2
		c2-1.2,4.1-2.3,6.1-3.5l6.1-3.5l3.4-2c0.3-0.2,0.4-0.6,0.2-0.9S106.8,105.1,106.5,105.3"/>
	<path class="st6" d="M44.4,103l-4.4,2.4c-0.2,0.1,0,0.4,0.2,0.3l4.4-2.4C44.7,103.2,44.6,102.9,44.4,103"/>
	<path class="st6" d="M44.4,107.9l-4.4,2.4c-0.2,0.1,0,0.4,0.2,0.3l4.4-2.4C44.7,108.1,44.6,107.8,44.4,107.9"/>
	<path class="st6" d="M44.4,112.7l-4.4,2.4c-0.2,0.1,0,0.4,0.2,0.3l4.4-2.4C44.7,112.9,44.6,112.6,44.4,112.7"/>
	<path class="st6" d="M44.4,117.8l-4.4,2.4c-0.2,0.1,0,0.4,0.2,0.3l4.4-2.4C44.7,118,44.6,117.7,44.4,117.8"/>
	<path class="st6" d="M44.4,123.1l-4.4,2.4c-0.2,0.1,0,0.4,0.2,0.3l4.4-2.4C44.7,123.3,44.6,123,44.4,123.1"/>
	<path class="st22" d="M66.2,121.7v10.3c0,1.8-1,3.4-2.5,4.3l-20.1,11.6c-1.2,0.7-2.6,0.3-3.3-0.9c-0.2-0.4-0.3-0.8-0.3-1.2l0-10.1
		c0-1.9,1-3.6,2.6-4.6l19.9-11.6c1.2-0.7,2.6-0.3,3.3,0.9C66.1,120.8,66.2,121.3,66.2,121.7"/>
	<path class="st22" d="M73,115c1.3-2.2,3.3-3.9,5.6-4.9l0.2,8.5h7c0-0.1,0.1-0.2,0.1-0.3c-0.4,1.3-0.9,2.6-1.7,3.8
		c-2.9,4.6-7.7,6.7-10.8,4.7C70.3,124.9,70.1,119.6,73,115"/>
	<path class="st6" d="M78.8,118.6l-0.2-8.5c1.7-0.8,3.6-0.7,5.2,0.2c2.3,1.5,3,4.8,2,8.2L78.8,118.6z"/>
	<path class="st18" d="M78.8,118.6l-7.8,4.4c-0.3-2.8,0.4-5.6,1.9-7.9c1.3-2.2,3.3-3.9,5.6-4.9L78.8,118.6z"/>
	<path class="st18" d="M48.4,120.8c-0.1-1.9,0-3.8,0.3-5.6c0.3-1.7,0.9-3.4,1.7-5c1.3-2.5,3.7-5,6.7-4.3c2.7,0.6,4.6,3,7.3,3.8
		c3.2,0.9,6.2-1.2,7.8-3.9c0.8-1.5,1.5-3.1,1.9-4.8c0.5-1.6,0.8-3.3,1.3-4.9c0.9-3.1,2-6.5,4.6-8.7c1.1-1.1,2.7-1.6,4.3-1.5
		c1.4,0.3,2.7,1,3.9,1.9c1.2,0.9,2.6,1.4,4,1.6c1.6,0,3.1-0.5,4.3-1.4c2.8-2.1,4-5.4,5.4-8.5c1.4-3.1,3.4-5.8,6-7.9
		c0.6-0.5,1.3-1,2-1.4c0.3-0.2,0-0.8-0.3-0.6c-2.8,1.8-5.1,4.2-6.8,7.1c-0.9,1.6-1.6,3.2-2.3,4.8c-0.6,1.6-1.5,3.1-2.6,4.5
		c-1,1.3-2.4,2.2-4,2.6c-1.5,0.3-3,0.1-4.3-0.7c-1.2-0.8-2.5-1.5-3.8-2.2c-1.4-0.6-3-0.5-4.4,0.1c-3,1.4-4.7,4.7-5.7,7.7
		c-1.1,3.2-1.6,6.6-2.8,9.8c-0.6,1.6-1.5,3.1-2.8,4.3c-1.2,1.1-2.8,1.7-4.4,1.6c-1.4-0.2-2.7-0.8-3.8-1.6c-1.1-0.8-2.3-1.5-3.6-2.1
		c-1.3-0.5-2.8-0.5-4.1,0c-1.3,0.6-2.4,1.6-3.3,2.8c-0.9,1.3-1.6,2.7-2.1,4.3c-0.9,2.7-1.2,5.5-1,8.3
		C47.7,121.2,48.4,121.2,48.4,120.8"/>
	<path class="st8" d="M130.4,53.5l4.3,2.5v1.7c0,0.7,0.3,1.3,0.9,1.6l12.2,7c0.5,0.3,1.3,0.1,1.6-0.4c0.1-0.2,0.2-0.4,0.2-0.6l0-0.7
		l5.2,3c2.4,1.4,3.9,4,3.9,6.8v80.9c0,2.6-1.6,3.7-3.9,2.4l-25.4-14.8c-2.4-1.4-3.8-3.9-3.8-6.6v-81
		C125.6,52.9,127.5,51.8,130.4,53.5"/>
	<path class="st3" d="M128.9,73.3c0,5.6,0,18,0,21.7c0,0.7,0.3,1.3,0.9,1.6l20.2,11.6c0.7,0.4,1.6,0.2,2-0.5
		c0.1-0.2,0.2-0.5,0.2-0.7V85.2c0-0.8-0.4-1.6-1.2-2l-19.7-11.3c-0.8-0.4-1.8-0.2-2.2,0.6C129,72.8,128.9,73,128.9,73.3"/>
	<path class="st30" d="M128.3,103.6c0,5.6,0,18,0,21.7c0,0.7,0.3,1.3,0.9,1.6l8.5,5c0.7,0.4,1.6,0.2,2-0.5c0.1-0.2,0.2-0.5,0.2-0.7
		v-21.7c0-0.8-0.4-1.6-1.2-2l-8.1-4.7c-0.8-0.4-1.8-0.2-2.2,0.6C128.4,103.1,128.3,103.3,128.3,103.6"/>
	<path class="st31" d="M141.6,110.7c0,5.6,0,18,0,21.7c0,0.7,0.3,1.3,0.9,1.6l8.5,5c0.7,0.4,1.6,0.2,2-0.5c0.1-0.2,0.2-0.5,0.2-0.7
		V116c0-0.8-0.4-1.6-1.2-2l-8.1-4.7c-0.8-0.4-1.8-0.2-2.2,0.6C141.7,110.1,141.6,110.4,141.6,110.7"/>
	<path class="st18" d="M136.9,115.3c-1.5-2.4-4-3.6-5.7-2.6c-1.7,1-1.8,3.8-0.4,6.2s4,3.6,5.7,2.6S138.3,117.7,136.9,115.3
		 M135.7,120.2c-1.1,0.7-2.9-0.2-3.9-1.9s-1-3.7,0.1-4.4c1.1-0.7,2.9,0.2,3.9,1.9C136.9,117.6,136.9,119.6,135.7,120.2"/>
	<path class="st22" d="M133.8,114c0.9,0.4,1.6,1.1,2,1.9c0.5,0.8,0.8,1.9,0.7,2.9l1.2,0.7c0.2-1.5-0.1-2.9-0.9-4.2
		c-0.7-1.2-1.7-2.1-3-2.7V114z"/>
	<path class="st7" d="M128.5,60.8l6.1,3.5l6.1,3.5c1.1,0.7,2.3,1.3,3.4,2c0.3,0.2,0.7,0.1,0.9-0.2c0.2-0.3,0.1-0.7-0.2-0.9l-6.1-3.5
		c-2-1.2-4.1-2.3-6.1-3.5l-3.4-2c-0.3-0.2-0.7-0.1-0.9,0.2C128.1,60.2,128.2,60.6,128.5,60.8"/>
	<path class="st7" d="M128.5,65.8l6.1,3.5l6.1,3.5l3.4,2c0.3,0.2,0.7,0.1,0.9-0.2c0.2-0.3,0.1-0.7-0.2-0.9c-2-1.2-4.1-2.3-6.1-3.5
		c-2-1.2-4.1-2.3-6.1-3.5l-3.4-2c-0.3-0.2-0.7-0.1-0.9,0.2C128.1,65.2,128.2,65.6,128.5,65.8L128.5,65.8"/>
	
		<rect x="140.5" y="68.6" transform="matrix(0.5056 -0.8627 0.8627 0.5056 -1.393 161.8771)" class="st32" width="0.1" height="27.1"/>
	
		<rect x="140.5" y="72.4" transform="matrix(0.5056 -0.8627 0.8627 0.5056 -4.687 163.7645)" class="st32" width="0.1" height="27.1"/>
	
		<rect x="140.5" y="76.5" transform="matrix(0.5056 -0.8627 0.8627 0.5056 -8.2272 165.7931)" class="st32" width="0.1" height="27.1"/>
	
		<rect x="140.5" y="80.5" transform="matrix(0.5056 -0.8627 0.8627 0.5056 -11.6535 167.7563)" class="st32" width="0.1" height="27.1"/>
	
		<rect x="140.5" y="84.4" transform="matrix(0.5056 -0.8627 0.8627 0.5056 -15.0326 169.6926)" class="st32" width="0.1" height="27.1"/>
	<path class="st22" d="M129.2,84.5c0.4-0.5,0.8-1,1.3-1.4c0.5-0.4,1.1-0.5,1.7-0.2c1.2,0.6,1.3,2.1,1.5,3.2c0.1,1.2,0.3,2.5,0.7,3.6
		c0.3,1.2,1,2.2,2,3c0.5,0.4,1,0.7,1.7,0.8c0.6,0,1.2-0.3,1.6-0.7c0.7-0.9,1.2-1.9,1.4-3c0.1-0.6,0.3-1.2,0.5-1.8
		c0.2-0.6,0.5-1.1,1-1.5c0.2-0.2,0.5-0.3,0.8-0.2c0.2,0.1,0.4,0.2,0.5,0.4c0.3,0.4,0.4,1,0.7,1.4c0.3,0.5,0.8,0.9,1.3,1.2
		c0.6,0.3,1.2,0.3,1.8,0c0.6-0.3,1.1-0.6,1.7-0.8c0.6-0.2,1.2-0.3,1.8-0.3c0.3,0,0.6,0.1,0.9,0.2c0.3,0.1,0.5-0.3,0.2-0.4
		c-1.2-0.5-2.5-0.4-3.7,0.2c-0.6,0.4-1.2,0.6-1.8,0.8c-0.6,0-1.3-0.3-1.6-0.8c-0.3-0.4-0.6-0.9-0.8-1.5c-0.1-0.5-0.5-0.8-1-1
		c-0.6,0-1.2,0.2-1.5,0.8c-0.4,0.5-0.7,1.1-0.8,1.7c-0.2,1.2-0.6,2.3-1,3.4c-0.2,0.5-0.6,0.9-1.1,1.2c-0.3,0.2-0.6,0.3-1,0.2
		c-0.3-0.1-0.6-0.3-0.9-0.5c-1-0.7-1.8-1.8-2.1-3c-0.3-1.2-0.6-2.5-0.7-3.7c-0.2-1.2-0.3-2.6-1.4-3.4c-0.5-0.3-1.1-0.4-1.7-0.2
		c-0.6,0.2-1.1,0.6-1.5,1.1c-0.2,0.2-0.4,0.5-0.6,0.8C128.7,84.5,129.1,84.7,129.2,84.5"/>
	<path class="st18" d="M129.2,90.6c1.5-1.5,3.2-3.3,5.5-3.5c1.9-0.3,3.7,1,4,2.9c0,0.2,0,0.4,0,0.6c0.1,1.1,0.3,2.2,0.5,3.2
		c0.4,1,1,1.9,1.8,2.6c0.9,0.7,2,1.1,3.1,1.1c1,0,2-0.3,2.8-0.9c0.8-0.6,1.5-1.2,2.2-1.8c0.7-0.6,1.4-1.1,2.3-1.4
		c0.2-0.1,0.4-0.1,0.6-0.1c0.3,0,0.3-0.5,0-0.4c-1.9,0.2-3.2,1.8-4.6,2.9c-0.7,0.6-1.6,1.1-2.5,1.3c-1.1,0.2-2.3-0.1-3.2-0.7
		c-0.9-0.6-1.6-1.5-2-2.6c-0.3-1.1-0.5-2.2-0.6-3.3c-0.1-1.1-0.5-2.1-1.3-2.8c-0.7-0.6-1.7-1-2.7-1c-2.3-0.1-4.2,1.5-5.7,3
		c-0.2,0.2-0.4,0.4-0.6,0.6C128.7,90.5,129,90.8,129.2,90.6"/>
	<path class="st3" d="M142.4,119.4v5.5c0,0.1,0.1,0.2,0.2,0.2c0.1,0,0.2-0.1,0.2-0.2v-5.5c0-0.1-0.1-0.2-0.2-0.2
		C142.5,119.2,142.4,119.3,142.4,119.4"/>
	<path class="st3" d="M144.3,119.6v7.7c0,0.1,0.1,0.2,0.2,0.2c0.1,0,0.2-0.1,0.2-0.2v-7.7c0-0.1-0.1-0.2-0.2-0.2
		C144.4,119.4,144.3,119.5,144.3,119.6"/>
	<path class="st3" d="M146.1,122.5v4.3c0,0.1,0.1,0.2,0.2,0.2c0.1,0,0.2-0.1,0.2-0.2v-4.3c0-0.1-0.1-0.2-0.2-0.2
		C146.2,122.3,146.1,122.4,146.1,122.5"/>
	<path class="st3" d="M148,124.7v2.6c0,0.1,0.1,0.2,0.2,0.2c0.1,0,0.2-0.1,0.2-0.2v-2.6c0-0.1-0.1-0.2-0.2-0.2
		C148.1,124.5,148,124.6,148,124.7"/>
	<path class="st3" d="M149.8,124.1v6.5c0,0.1,0.1,0.2,0.2,0.2c0.1,0,0.2-0.1,0.2-0.2v-6.5c0-0.1-0.1-0.2-0.2-0.2
		C149.9,123.9,149.8,124,149.8,124.1"/>
	<path class="st3" d="M151.7,127.8v0.8c0,0.1,0.1,0.2,0.2,0.2c0.1,0,0.2-0.1,0.2-0.2v0c0-0.1-0.1-0.2-0.2-0.2
		c-0.1,0-0.2,0.1-0.2,0.2v0.8c0,0.1,0.1,0.2,0.2,0.2c0.1,0,0.2-0.1,0.2-0.2v-0.8c0-0.1-0.1-0.2-0.2-0.2c-0.1,0-0.2,0.1-0.2,0.2v0
		c0,0.1,0.1,0.2,0.2,0.2c0.1,0,0.2-0.1,0.2-0.2v-0.8c0-0.1-0.1-0.2-0.2-0.2C151.7,127.6,151.7,127.7,151.7,127.8"/>
	<path class="st22" d="M136.2,139.9c1.1,1.9,2.9,3,4,2.3s1.1-2.7,0-4.6s-2.9-3-4-2.3C135.1,136,135.1,138,136.2,139.9"/>
	<path class="st3" d="M138.1,137v3.5c0,0.1,0,0.1,0.1,0.1c0,0,0.1,0,0.1-0.1V137C138.3,137,138.2,136.9,138.1,137
		C138.1,136.9,138.1,137,138.1,137"/>
	<path class="st3" d="M136.5,138.4l3.2,1c0.1,0,0.2-0.1,0.1-0.2l-3.2-1C136.5,138.2,136.4,138.3,136.5,138.4"/>
	<polygon class="st3" points="129.6,135.5 129.6,136.3 130.1,136.6 130.1,135.8 	"/>
	<polygon class="st3" points="130.3,135.2 130.3,136.7 130.8,137 130.8,135.5 	"/>
	<polygon class="st3" points="131.1,134.9 131.1,137.1 131.6,137.4 131.6,135.2 	"/>
	<polygon class="st3" points="131.8,134.6 131.8,137.5 132.3,137.8 132.3,134.9 	"/>
	<polygon class="st3" points="132.5,134.3 132.5,138 133,138.3 133,134.6 	"/>
	<path class="st3" d="M144,140.5v2.7c0,0.2,0.1,0.5,0.3,0.6l2.4,1.4c0.3,0.2,0.7,0.1,0.9-0.3c0.1-0.1,0.1-0.2,0.1-0.3v-2.7
		c0-0.2-0.1-0.5-0.3-0.6l-2.4-1.4c-0.3-0.2-0.7-0.1-0.9,0.2C144,140.3,144,140.4,144,140.5"/>
	<path class="st30" d="M131.2,74.3l7.3,4.1l7.2,4.1l4.1,2.3c0.1,0.1,0.2,0,0.3-0.1c0.1-0.1,0-0.2-0.1-0.3l-7.3-4.1l-7.2-4.1
		l-4.1-2.3c-0.1-0.1-0.2,0-0.3,0.1C131,74.1,131.1,74.3,131.2,74.3"/>
	<path class="st30" d="M131.2,95.7l7.3,4.1l7.2,4.1l4.1,2.3c0.1,0.1,0.2,0,0.3-0.1c0.1-0.1,0-0.2-0.1-0.3l-7.3-4.1l-7.2-4.1
		l-4.1-2.3c-0.1-0.1-0.2,0-0.3,0.1C131,95.5,131.1,95.6,131.2,95.7"/>
	<path class="st5" d="M118.6,95.9l11.7,6.8c0.4,0.2,0.6,0.6,0.6,1.1l0,8.1c0,0.7-0.6,1.3-1.3,1.3c-0.2,0-0.4-0.1-0.6-0.2l-8.4-4.9
		c-2.4,0.2-3.3,0.4-3.3,0.4l0.8-1.8l-0.8-0.4c-0.4-0.2-0.6-0.6-0.6-1.1V97c0-0.7,0.6-1.3,1.3-1.3C118.2,95.7,118.4,95.8,118.6,95.9"
		/>
	<path class="st6" d="M131,111.8l0-8.1c0-0.5-0.2-0.9-0.6-1.1l-11.7-6.8c-0.3-0.2-0.6-0.2-0.9-0.1c0.4-0.4,1-0.5,1.5-0.2l11.7,6.8
		c0.4,0.2,0.6,0.6,0.6,1.1l0,8.1c-0.1,0.9-0.9,1.6-1.8,1.6C130.4,113.1,131,112.5,131,111.8"/>
	<path class="st6" d="M118.9,102.4L118.9,102.4c0,0.2,0.1,0.4,0.2,0.4l6.7,3.9c0.2,0.1,0.4,0,0.5-0.1c0-0.1,0.1-0.1,0.1-0.2v-0.1
		c0-0.1-0.1-0.3-0.2-0.3l-6.7-3.9c-0.2-0.1-0.4,0-0.5,0.1C118.9,102.3,118.9,102.4,118.9,102.4"/>
	<path class="st6" d="M118.9,100.2L118.9,100.2c0,0.2,0.1,0.4,0.2,0.4l8.7,5c0.2,0.1,0.4,0,0.5-0.1c0-0.1,0.1-0.1,0.1-0.2v-0.1
		c0-0.1-0.1-0.3-0.2-0.3l-8.7-5c-0.2-0.1-0.4,0-0.5,0.1C118.9,100.1,118.9,100.2,118.9,100.2"/>
	<path class="st5" d="M198.7,127.7l-11.7,6.8c-0.4,0.2-0.6,0.6-0.6,1.1l0,8.1c0,0.7,0.6,1.3,1.3,1.3c0.2,0,0.4-0.1,0.6-0.2l8.4-4.9
		c2.4,0.2,3.3,0.4,3.3,0.4l-0.8-1.8l0.8-0.5c0.4-0.2,0.6-0.6,0.6-1.1v-8.1c0-0.7-0.6-1.3-1.3-1.3
		C199.1,127.5,198.8,127.6,198.7,127.7"/>
	<path class="st6" d="M186.3,143.6l0-8.1c0-0.5,0.2-0.9,0.6-1.1l11.7-6.8c0.3-0.2,0.6-0.2,0.9-0.1c-0.4-0.4-1-0.5-1.5-0.2l-11.7,6.8
		c-0.4,0.2-0.6,0.6-0.6,1.1l0,8.1c0.1,0.9,0.9,1.6,1.8,1.6C186.8,144.9,186.3,144.3,186.3,143.6"/>
	<path class="st6" d="M198.4,134.2L198.4,134.2c0,0.2-0.1,0.4-0.2,0.4l-6.7,3.9c-0.2,0.1-0.4,0-0.5-0.1c0-0.1-0.1-0.1-0.1-0.2v-0.1
		c0-0.1,0.1-0.3,0.2-0.3l6.7-3.9c0.2-0.1,0.4,0,0.5,0.1C198.4,134.1,198.4,134.2,198.4,134.2"/>
	<path class="st6" d="M198.4,132L198.4,132c0,0.2-0.1,0.4-0.2,0.4l-8.7,5c-0.2,0.1-0.4,0-0.5-0.1c0-0.1-0.1-0.1-0.1-0.2v-0.1
		c0-0.1,0.1-0.3,0.2-0.3l8.7-5c0.2-0.1,0.4,0,0.5,0.1C198.4,131.9,198.4,132,198.4,132"/>
	<path class="st8" d="M128.5,149.4l0,39.9c0,0.8,0.4,1.6,1.2,2l46.5,26.8c0.3,0.2,0.8,0.1,1-0.3c0.1-0.1,0.1-0.2,0.1-0.4l-0.4-40.7
		c0-0.7-0.4-1.4-1-1.8l-45.4-26.6c-0.6-0.3-1.3-0.1-1.6,0.4C128.6,149,128.5,149.2,128.5,149.4"/>
	<path class="st7" d="M158.7,207.9c0.2-1.1,0.4-2.2,0.4-3c0.6-4.8,6.7-13.6,6.7-13.6s-4.8,1.6-6.7-1.6c-6.1,7-6.8,11.4-7.1,12.9
		c-0.1,0.4-0.1,0.9-0.1,1.3L158.7,207.9z"/>
	<path class="st3" d="M166.2,212.3c0-1.8,0.1-3.3,0.6-3.9l0.2,4.3l5.8,3.3l-0.3-14.5c0,0-0.2-7.5-7.4-10.4c0,0-5.9,9.2-6.8,13.9
		c-0.2,0.7-0.3,1.6-0.4,2.4L166.2,212.3z"/>
	<path class="st3" d="M152.6,204.4c0-0.7,0.1-1.3,0.1-2c0.4-1.6,0.3-5.7,6.4-12.7c-7.4-2.9-9.4,7-9.9,12.7L152.6,204.4z"/>
	<path class="st21" d="M158.7,182.7c-0.1-0.1-0.1-5-0.1-5l-1.1-0.9c0,0,0-0.1-0.1-0.1c-0.5,0.1-0.9,0.4-1.2,0.8
		c-0.2,0.2-0.3,0.3-0.5,0.5c-0.4,0.6-0.7,1.2-0.9,1.9c-0.2,0.8-0.3,1.5-0.2,2.3c0,0.8,0.1,1.6,0.3,2.5c0.2,0.8,0.4,1.7,0.7,2.5
		l0,0.1c0,0.2,0,0.3,0,0.5c-0.1,1.1-0.6,2.1,1.2,2.5c0.5,0.1,1,0.1,1.5,0.1c0.5-0.1,0.9-0.6,1.1-0.8
		C160.3,188.8,158.8,182.9,158.7,182.7 M155.2,185.1c-0.2-0.8-0.3-1.6-0.4-2.4c0-0.8,0-1.5,0.1-2.3c0.1-0.5,0.3-1,0.6-1.4
		c-0.4,1.2-0.5,2.5-0.3,3.7c0.1,1.3,0.4,2.7,0.5,4.1C155.5,186.2,155.3,185.6,155.2,185.1"/>
	<path class="st33" d="M165.5,191.5C165.5,191.5,165.5,191.4,165.5,191.5c-1-1.4-0.6-6.2-0.6-6.2c3.2-1.6,0.2-3.9,0.2-3.9
		c-2.8-8.7-7.5-4.1-7.5-4.1c-3.1,11.1,1.8,10.9,1.8,10.9c0.3,0.5,0.2,1.2-0.3,1.6C159.1,189.8,160.5,192.7,165.5,191.5"/>
	<path class="st21" d="M171.2,185.9c-0.5-0.7-0.9-1.5-1.2-2.3c-0.3-0.9-0.5-1.8-0.6-2.8l-0.1-0.6c0-0.3-0.1-0.7-0.2-1l0,0
		c0,0,0,0,0,0c-1.8-6.7-11.1-6-11.6-2.4c-0.1,0.4,0,0.9,0.1,1.3c0.2,1,0.6,1.9,1.1,2.7c0.7,0.9,1.5,1.7,2.5,2.2
		c0.6,0.4,1.3,0.5,2.1,0.5c0.1,0,0.1-0.2,0-0.2c-0.6,0-1.2-0.1-1.8-0.4c-1.4-0.7-2.5-1.8-3.2-3.1c1.3,2.1,3.7,3.2,6.1,2.9
		c0,0,1.8,0,0.8,1.7c-0.1,0.1-0.5,0.7-1,0.7c0.5,1.4,0.3,3-0.5,4.2c-0.9,1.5,0.8,3.7,3.3,3.4c2.4-0.3,4.1-2.5,3.8-4.9
		c0-0.1,0-0.2,0-0.2c-0.1-0.7-0.5-1.5-0.8-2.7c-0.3-1.1-0.5-2.2-0.6-3.3c0,0.2,0.1,0.4,0.1,0.6c0.2,0.9,0.4,1.8,0.8,2.6
		c0.2,0.4,0.5,0.9,0.8,1.3C171.2,186.1,171.3,186,171.2,185.9"/>
	<path class="st7" d="M176.2,219.1L176.2,219.1L176.2,219.1L176.2,219.1"/>
	<path class="st7" d="M177.7,177.3c0-0.7-0.4-1.4-1-1.8l-45.4-26.6c-0.8-0.2-1.6,0-2.2,0.6c0.4-0.3,0.9-0.3,1.3-0.1l45.4,26.6
		c0.6,0.4,1,1,1,1.8l0.4,40.7c0,0.4-0.3,0.7-0.7,0.7c-0.1,0-0.2,0-0.3,0c0.7,0.3,1.5-0.1,1.8-0.8c0-0.1,0.1-0.3,0.1-0.4L177.7,177.3
		z"/>
	<polygon class="st16" points="131.6,160.9 131.6,183.8 148.4,193.8 148.4,170.7 	"/>
	<path class="st6" d="M144.3,175.3c-2.2-3.6-6-5.3-8.5-3.8c-2.5,1.5-2.7,5.7-0.5,9.3s6,5.3,8.5,3.8
		C146.3,183,146.5,178.9,144.3,175.3 M142.6,182.6c-1.7,1-4.3-0.2-5.9-2.8s-1.5-5.5,0.2-6.5c1.7-1,4.3,0.2,5.9,2.8
		S144.3,181.6,142.6,182.6"/>
	<path class="st22" d="M139.8,173.3c1.3,0.6,2.3,1.6,3,2.8c0.8,1.3,1.2,2.8,1.1,4.3l1.8,1.1c0.3-2.2-0.2-4.4-1.4-6.2
		c-1-1.8-2.6-3.2-4.5-4L139.8,173.3z"/>
	<path class="st34" d="M83.6,178.6c0,1.7-2.7,3.1-6,3.1c-3.3,0-6-1.4-6-3.1s2.7-3.1,6-3.1C80.9,175.5,83.6,176.9,83.6,178.6"/>
	<path class="st7" d="M77.5,162.8c-3.1,0-5.7-1.1-6-2.5c0,0,0,0,0-0.1l3,19.2c0.9,0.6,2,1,3,0.9c1.1,0,2.1-0.3,3-0.9l3-19.1
		C83.1,161.8,80.5,162.8,77.5,162.8"/>
	<path class="st8" d="M77.5,171.3c1.5,0,3-0.3,4.4-0.9l0.3-2c-1.5,0.7-3.1,1.1-4.7,1.1c-1.7,0.1-3.3-0.3-4.8-1.1l0.3,2
		C74.4,171,75.9,171.3,77.5,171.3"/>
	<path class="st8" d="M77.5,172.6c-1.5,0-2.9-0.2-4.2-0.8l0.2,1c2.6,1,5.5,1,8.1,0l0.2-1C80.4,172.4,78.9,172.6,77.5,172.6"/>
	<path class="st35" d="M83.5,160.2c0,1.6-2.7,2.8-6.1,2.8s-6.1-1.3-6.1-2.8s2.7-2.8,6.1-2.8S83.5,158.6,83.5,160.2"/>
	<path class="st8" d="M82.6,160.1c0,1.2-2.3,2.2-5,2.2c-2.8,0-5-1-5-2.2s2.3-2.2,5-2.2C80.3,157.9,82.6,158.8,82.6,160.1"/>
	<path class="st36" d="M81.8,156.1c0,0,3.1,2.4,8.5-1c4.9-3.1,8.9,2.4,8.9,2.4s-5.7-10.3-14.1-6.1C85,151.5,81.9,153,81.8,156.1"/>
	<path class="st36" d="M75,158.6c0,0-3.5,1.8-8.2-2.4c-4.3-3.9-9.1,0.9-9.1,0.9s7.4-9.2,15-3.5C72.6,153.5,75.4,155.5,75,158.6"/>
	<path class="st36" d="M78.8,154.8c0,0,3.6-0.1,6.2-5.9c1.5-3.4,7.2-4.3,7.2-4.3s-7.8-4.2-12.5,3.7
		C79.6,148.3,77.6,152.1,78.8,154.8"/>
	<path class="st36" d="M75.4,153.7c0,0-3.6,0.3-6.8-5.2c-1.9-3.2-7.6-3.5-7.6-3.5s7.3-5,12.8,2.3C73.8,147.3,76.3,150.9,75.4,153.7"
		/>
	<path class="st36" d="M77.3,152.5c0,0,3.9-3.6,1.4-9.4c-2.5-5.7-1.6-9.5-1.6-9.5s-1.8,0.6-3,8.5c-0.4,2.4-0.3,4.8,0.5,7
		C75.3,150.5,76.2,151.6,77.3,152.5"/>
	<path class="st37" d="M78.9,162.2c0.5-3,2.3-5.7,5-7.3c0.7-0.4,1.5-0.8,2.3-1c0.1,0,0.1-0.1,0.1-0.2c0-0.1-0.1-0.1-0.2-0.1
		c-3,0.9-5.4,3.1-6.7,6c-0.4,0.8-0.6,1.6-0.7,2.5C78.6,162.3,78.8,162.4,78.9,162.2"/>
	<path class="st37" d="M76.4,162.2c-0.5-2.9-2.2-5.4-4.7-6.9c-0.7-0.4-1.4-0.7-2.2-1c-0.1,0-0.1,0-0.2,0.1c0,0.1,0,0.1,0.1,0.2
		c2.7,0.8,4.9,2.8,6.1,5.4c0.3,0.7,0.5,1.5,0.7,2.3C76.2,162.5,76.5,162.4,76.4,162.2"/>
	<path class="st37" d="M78.5,162.3c-0.2-2.5-0.1-5.1,0.5-7.6c0.5-2.2,1.4-4.4,2.7-6.2c0.7-1,1.6-2,2.5-2.8c0.1-0.1-0.1-0.3-0.2-0.2
		c-1.7,1.5-3.1,3.3-4,5.4c-1,2.2-1.6,4.6-1.8,7c-0.1,1.5-0.1,2.9,0,4.4C78.2,162.4,78.5,162.4,78.5,162.3"/>
	<path class="st37" d="M76.8,162.3c0.1-1.1,0.1-2.2,0-3.3c-0.1-1-0.3-2-0.6-2.9c-0.3-1.1-0.7-2.2-1.1-3.3c-0.5-1-1-2-1.7-2.9
		c-0.7-1-1.6-2-2.6-2.8c-0.1-0.1-0.3,0.1-0.2,0.2c1.7,1.5,3,3.3,4,5.3c0.5,1,0.9,2.1,1.2,3.2c0.3,1,0.5,1.9,0.7,2.9
		c0.1,1.2,0.2,2.4,0,3.6C76.5,162.5,76.8,162.5,76.8,162.3"/>
	<path class="st37" d="M76.7,145.1c0.6,4.5,0.7,8.9,0.6,13.4c0,1.3-0.1,2.5-0.2,3.8c0,0.2,0.3,0.2,0.3,0c0.4-4.5,0.4-9,0-13.4
		c-0.1-1.3-0.2-2.5-0.4-3.8C76.9,144.9,76.7,144.9,76.7,145.1"/>
	<path class="st5" d="M127.8,186.2c0,3.5-5.5,6.4-12.3,6.4s-12.3-2.9-12.3-6.4s5.5-6.4,12.3-6.4S127.8,182.7,127.8,186.2"/>
	<path class="st28" d="M121,139.2c-8.1-9.6-4-11.1-4-11.1c3.5-3.3,8.1,6.2,8.1,6.2l1.8,3l4.9-4.3l1.8,1.6c0,0-5.6,9.3-8.2,7.9
		C123.8,141.5,122.3,140.4,121,139.2"/>
	<path class="st6" d="M121.4,148.1v39.6c0,0-4.1,1.9-6.8,0.3c-0.1-0.6-0.4-31-0.4-31l-0.4,27c0,0-3.8,2.6-6.5-0.1
		c-0.1-0.5,0.5-38.7,0.5-38.7S110.3,149.8,121.4,148.1"/>
	<path class="st28" d="M120.4,149.4c-1.4,0.5-2.8,0.7-4.3,0.8c-0.7,0-1.5,0-2.2,0c-5.1-0.5-6.6-1.8-6.4-5c0-3.6-0.1-7.3-0.5-10.9
		c-1.9-13.5,5.4-10.2,5.4-10.2c0.3,0.1,0.6,0.3,0.9,0.5c0.8,0.5,1.8,0.9,2.8,1c1.9,0.3,3.6,1.2,4.8,2.6c6.9,7.9,0.5,9.7,0.6,10.8
		c0.1,1.2,0,1.8-0.1,3.3c0,1,0,2,0.1,3c0.1,1,0.1,2.1,0,3.1C121.4,148.9,120.9,149.3,120.4,149.4"/>
	<rect x="119" y="155" class="st3" width="0.1" height="31.3"/>
	
		<rect x="97.9" y="169.5" transform="matrix(2.052887e-02 -0.9998 0.9998 2.052887e-02 -60.0518 277.9001)" class="st3" width="27.9" height="0.1"/>
	<path class="st17" d="M119.2,117c0.2,0.1,1.1,8-2.7,7.1c0,0.5,0.1,1.1,0.3,1.5c0,0-2.7,1-4.3-0.4c-0.3-0.2-0.4-0.6-0.3-1
		c0.1-0.3,0.3-0.8,0.5-1.4C113.3,121.5,112,114.3,119.2,117"/>
	<path class="st17" d="M133.2,134.4l-1.3-1.2l0.6-1.5c0.1-0.2,0.3-0.4,0.5-0.4l1.1-0.2l1.8-1.9c0,0,0.4,0,0.2,0.3
		c-0.2,0.3-1.5,2-1.5,2s1.1,1.2,0.4,1.9c-0.3,0.2-0.6,0.4-0.9,0.5c-0.2,0-0.3,0.1-0.4,0.2L133.2,134.4z"/>
	<path class="st3" d="M117,125.7l-0.4-0.6c0,0-3,0.8-4.2-1.1c0,0-1,1.3,1.4,1.8C116.2,126.4,117,125.7,117,125.7"/>
	<path class="st38" d="M120.9,139.1C120.9,139.1,120.9,139.1,120.9,139.1L120.9,139.1c0.1,0,0.3,0.3,0.6,0.6c0,1.3-0.1,2.8-0.1,3.5
		c-3.4-2.4-5.2-6.4-4.9-10.5C117.7,135,119.2,137.2,120.9,139.1"/>
	<polyline class="st6" points="109,124.1 109,124.1 109,124.1 109,124.1 	"/>
	<path class="st28" d="M105,137.1l0.1-3.3c0.1-5.7,2-8.2,3.3-9.2c-1.3,1.1-2.3,3.8-1.5,9.8c0.4,2.7,0.6,5.4,0.6,8.1l-2.1-3.3
		C105.2,138.5,105,137.8,105,137.1"/>
	<path class="st38" d="M106.8,131.8L106.8,131.8c0.1,0.7,0.1,1.6,0.3,2.4c0,0,0.5,3.2,0.6,6.2l0,0
		C106.2,137.7,106.8,131.8,106.8,131.8"/>
	<path class="st19" d="M112.6,150c0.4,0.1,0.8,0.1,1.3,0.1c0.7,0.1,1.4,0.1,2.2,0c1.5-0.1,2.9-0.3,4.3-0.8c0.4-0.1,0.7-0.4,1-0.7
		v1.7c0,0-12.1,2.9-13.7-3.3l0,0c0.4,1.4,1.7,2.2,4.3,2.7L112.6,150z"/>
	<path class="st19" d="M113.7,184l0.1-3.5l0.4-0.1c0,0,0.1,0,0.2,0c0,1.9,0.1,3.5,0.1,4.8c-0.5,0.2-1,0.4-1.6,0.6v0.6
		c0,0-3.9,2.2-5.7-0.5v-2.7c0,0.4,0,0.7,0,0.7C109.9,186.6,113.7,184,113.7,184"/>
	<path class="st19" d="M107.2,182.2c0,0.4,0,0.7,0,0.9L107.2,182.2L107.2,182.2z"/>
	<path class="st19" d="M114.6,187.5c2.8,1.6,6.8-0.3,6.8-0.3v-3.3l0.1,0c0.5,0,1-0.1,1.6-0.3c1-0.3,2.1,0.2,2.4,1.2c0,0,0,0.1,0,0.1
		c0,0,0.1,0.7,0.1,0.7c0.4,1.7-1.8,2.3-5.3,3.6v0.6c0,0-3.9,2.2-5.7-0.5v-3.6l0,0C114.5,186.8,114.6,187.5,114.6,187.5"/>
	<path class="st20" d="M120.2,189.3c3.1-1.2,5.1-1.7,5.3-3c0.2,1.6-1.9,2.2-5.3,3.5V189.3z"/>
	<path class="st20" d="M120.2,189.8v0.4c0,0-3.9,2.2-5.7-0.5v-0.4C116.3,192.1,120.2,189.8,120.2,189.8"/>
	<path class="st20" d="M112.9,186.2v0.4c0,0-3.9,2.2-5.7-0.5v-0.4C109,188.5,112.9,186.2,112.9,186.2"/>
	<path class="st20" d="M114.5,185.5c-0.5,0.2-1,0.4-1.6,0.6v-0.4c0.6-0.2,1.1-0.4,1.6-0.6C114.5,185.2,114.5,185.4,114.5,185.5"/>
	<path class="st21" d="M117.4,121c-0.3,0-0.2-3.1-1.6,0.8s-3.5,1.6-3.3,1.1s-1.1-2.1-1.1-2.3c-1.7-1.8-1.7-4.6,0-6.3
		c1.3-1.6,6.4-1.4,7.2-2.3s3.8,4.1-0.6,5.8C118,117.8,118.2,120.9,117.4,121"/>
</g>
</svg>
