<?xml version="1.0" encoding="utf-8"?>
<!-- Generator: Adobe Illustrator 23.0.5, SVG Export Plug-In . SVG Version: 6.00 Build 0)  -->
<svg version="1.1" id="ARTWORK" xmlns="http://www.w3.org/2000/svg" xmlns:xlink="http://www.w3.org/1999/xlink" x="0px" y="0px"
	 viewBox="0 0 84 64" style="enable-background:new 0 0 84 64;" xml:space="preserve">
<style type="text/css">
	.st0{clip-path:url(#SVGID_2_);}
	.st1{fill:#E21B39;}
	.st2{fill:#FFFFFF;}
	.st3{fill:#002A70;}
</style>
<title>USA</title>
<g>
	<defs>
		<path id="SVGID_1_" d="M7.6,0h68.8C80.6,0,84,3.4,84,7.6v48.8c0,4.2-3.4,7.6-7.6,7.6H7.6C3.4,64,0,60.6,0,56.4V7.6
			C0,3.4,3.4,0,7.6,0z"/>
	</defs>
	<clipPath id="SVGID_2_">
		<use xlink:href="#SVGID_1_"  style="overflow:visible;"/>
	</clipPath>
	<g class="st0">
		<g id="XMLID_4405_">
			<rect id="XMLID_4412_" x="-0.1" y="0" class="st1" width="123.6" height="5"/>
			<rect id="XMLID_4411_" x="-0.1" y="60.1" class="st1" width="123.6" height="5"/>
			<rect id="XMLID_4410_" x="-0.1" y="50.1" class="st1" width="123.6" height="5"/>
			<rect id="XMLID_4409_" x="-0.1" y="40" class="st1" width="123.6" height="5"/>
			<rect id="XMLID_4408_" x="-0.1" y="30" class="st1" width="123.6" height="5"/>
			<rect id="XMLID_4407_" x="-0.1" y="20" class="st1" width="123.6" height="5"/>
			<rect id="XMLID_4406_" x="-0.1" y="10" class="st1" width="123.6" height="5"/>
		</g>
		<g id="XMLID_4398_">
			<rect id="XMLID_4404_" x="-0.1" y="55.1" class="st2" width="123.6" height="5"/>
			<rect id="XMLID_4403_" x="-0.1" y="45.1" class="st2" width="123.6" height="5"/>
			<rect id="XMLID_4402_" x="-0.1" y="35" class="st2" width="123.6" height="5"/>
			<rect id="XMLID_4401_" x="-0.1" y="25" class="st2" width="123.6" height="5"/>
			<rect id="XMLID_4400_" x="-0.1" y="15" class="st2" width="123.6" height="5"/>
			<rect id="XMLID_4399_" x="-0.1" y="5" class="st2" width="123.6" height="5"/>
		</g>
		<rect id="XMLID_4396_" x="-0.1" y="0" class="st3" width="49.4" height="35"/>
		<g id="XMLID_4345_">
			<polygon id="XMLID_4395_" class="st2" points="4,1.5 3.6,2.9 2.1,2.9 3.3,3.8 2.8,5.1 4,4.3 5.2,5.1 4.7,3.8 5.9,2.9 4.5,2.9 			
				"/>
			<polygon id="XMLID_4394_" class="st2" points="12.3,1.5 11.8,2.9 10.4,2.9 11.5,3.8 11.1,5.1 12.3,4.3 13.4,5.1 13,3.8 14.2,2.9 
				12.7,2.9 			"/>
			<polygon id="XMLID_4393_" class="st2" points="20.5,1.5 20,2.9 18.6,2.9 19.8,3.8 19.3,5.1 20.5,4.3 21.7,5.1 21.2,3.8 22.4,2.9 
				20.9,2.9 			"/>
			<polygon id="XMLID_4392_" class="st2" points="28.7,1.5 28.3,2.9 26.8,2.9 28,3.8 27.6,5.1 28.7,4.3 29.9,5.1 29.5,3.8 30.6,2.9 
				29.2,2.9 			"/>
			<polygon id="XMLID_4391_" class="st2" points="37,1.5 36.5,2.9 35.1,2.9 36.2,3.8 35.8,5.1 37,4.3 38.2,5.1 37.7,3.8 38.9,2.9 
				37.4,2.9 			"/>
			<polygon id="XMLID_4390_" class="st2" points="44,5.1 45.2,4.3 46.4,5.1 45.9,3.8 47.1,2.9 45.7,2.9 45.2,1.5 44.8,2.9 43.3,2.9 
				44.5,3.8 			"/>
			<polygon id="XMLID_4389_" class="st2" points="4,8.5 3.6,9.9 2.1,9.9 3.3,10.8 2.8,12.2 4,11.3 5.2,12.2 4.7,10.8 5.9,9.9 
				4.5,9.9 			"/>
			<polygon id="XMLID_4388_" class="st2" points="12.3,8.5 11.8,9.9 10.4,9.9 11.5,10.8 11.1,12.2 12.3,11.3 13.4,12.2 13,10.8 
				14.2,9.9 12.7,9.9 			"/>
			<polygon id="XMLID_4387_" class="st2" points="20.5,8.5 20,9.9 18.6,9.9 19.8,10.8 19.3,12.2 20.5,11.3 21.7,12.2 21.2,10.8 
				22.4,9.9 20.9,9.9 			"/>
			<polygon id="XMLID_4386_" class="st2" points="28.7,8.5 28.3,9.9 26.8,9.9 28,10.8 27.6,12.2 28.7,11.3 29.9,12.2 29.5,10.8 
				30.6,9.9 29.2,9.9 			"/>
			<polygon id="XMLID_4385_" class="st2" points="37,8.5 36.5,9.9 35.1,9.9 36.2,10.8 35.8,12.2 37,11.3 38.2,12.2 37.7,10.8 
				38.9,9.9 37.4,9.9 			"/>
			<polygon id="XMLID_4384_" class="st2" points="45.2,8.5 44.8,9.9 43.3,9.9 44.5,10.8 44,12.2 45.2,11.3 46.4,12.2 45.9,10.8 
				47.1,9.9 45.7,9.9 			"/>
			<polygon id="XMLID_4383_" class="st2" points="4,15.5 3.6,16.9 2.1,16.9 3.3,17.8 2.8,19.2 4,18.3 5.2,19.2 4.7,17.8 5.9,16.9 
				4.5,16.9 			"/>
			<polygon id="XMLID_4382_" class="st2" points="12.3,15.5 11.8,16.9 10.4,16.9 11.5,17.8 11.1,19.2 12.3,18.3 13.4,19.2 13,17.8 
				14.2,16.9 12.7,16.9 			"/>
			<polygon id="XMLID_4381_" class="st2" points="20.5,15.5 20,16.9 18.6,16.9 19.8,17.8 19.3,19.2 20.5,18.3 21.7,19.2 21.2,17.8 
				22.4,16.9 20.9,16.9 			"/>
			<polygon id="XMLID_4380_" class="st2" points="28.7,15.5 28.3,16.9 26.8,16.9 28,17.8 27.6,19.2 28.7,18.3 29.9,19.2 29.5,17.8 
				30.6,16.9 29.2,16.9 			"/>
			<polygon id="XMLID_4379_" class="st2" points="37,15.5 36.5,16.9 35.1,16.9 36.2,17.8 35.8,19.2 37,18.3 38.2,19.2 37.7,17.8 
				38.9,16.9 37.4,16.9 			"/>
			<polygon id="XMLID_4378_" class="st2" points="45.2,15.5 44.8,16.9 43.3,16.9 44.5,17.8 44,19.2 45.2,18.3 46.4,19.2 45.9,17.8 
				47.1,16.9 45.7,16.9 			"/>
			<polygon id="XMLID_4377_" class="st2" points="4,22.5 3.6,23.9 2.1,23.9 3.3,24.8 2.8,26.2 4,25.3 5.2,26.2 4.7,24.8 5.9,23.9 
				4.5,23.9 			"/>
			<polygon id="XMLID_4376_" class="st2" points="12.3,22.5 11.8,23.9 10.4,23.9 11.5,24.8 11.1,26.2 12.3,25.3 13.4,26.2 13,24.8 
				14.2,23.9 12.7,23.9 			"/>
			<polygon id="XMLID_4375_" class="st2" points="20.5,22.5 20,23.9 18.6,23.9 19.8,24.8 19.3,26.2 20.5,25.3 21.7,26.2 21.2,24.8 
				22.4,23.9 20.9,23.9 			"/>
			<polygon id="XMLID_4374_" class="st2" points="28.7,22.5 28.3,23.9 26.8,23.9 28,24.8 27.6,26.2 28.7,25.3 29.9,26.2 29.5,24.8 
				30.6,23.9 29.2,23.9 			"/>
			<polygon id="XMLID_4373_" class="st2" points="37,22.5 36.5,23.9 35.1,23.9 36.2,24.8 35.8,26.2 37,25.3 38.2,26.2 37.7,24.8 
				38.9,23.9 37.4,23.9 			"/>
			<polygon id="XMLID_4372_" class="st2" points="45.2,22.5 44.8,23.9 43.3,23.9 44.5,24.8 44,26.2 45.2,25.3 46.4,26.2 45.9,24.8 
				47.1,23.9 45.7,23.9 			"/>
			<polygon id="XMLID_4371_" class="st2" points="4.5,30.9 4,29.5 3.6,30.9 2.1,30.9 3.3,31.8 2.8,33.2 4,32.3 5.2,33.2 4.7,31.8 
				5.9,30.9 			"/>
			<polygon id="XMLID_4370_" class="st2" points="12.7,30.9 12.3,29.5 11.8,30.9 10.4,30.9 11.5,31.8 11.1,33.2 12.3,32.3 
				13.4,33.2 13,31.8 14.2,30.9 			"/>
			<polygon id="XMLID_4369_" class="st2" points="20.9,30.9 20.5,29.5 20,30.9 18.6,30.9 19.8,31.8 19.3,33.2 20.5,32.3 21.7,33.2 
				21.2,31.8 22.4,30.9 			"/>
			<polygon id="XMLID_4368_" class="st2" points="29.2,30.9 28.7,29.5 28.3,30.9 26.8,30.9 28,31.8 27.6,33.2 28.7,32.3 29.9,33.2 
				29.5,31.8 30.6,30.9 			"/>
			<polygon id="XMLID_4367_" class="st2" points="37.4,30.9 37,29.5 36.5,30.9 35.1,30.9 36.2,31.8 35.8,33.2 37,32.3 38.2,33.2 
				37.7,31.8 38.9,30.9 			"/>
			<polygon id="XMLID_4366_" class="st2" points="45.7,30.9 45.2,29.5 44.8,30.9 43.3,30.9 44.5,31.8 44,33.2 45.2,32.3 46.4,33.2 
				45.9,31.8 47.1,30.9 			"/>
			<polygon id="XMLID_4365_" class="st2" points="8.1,5 7.7,6.4 6.2,6.4 7.4,7.3 7,8.6 8.1,7.8 9.3,8.6 8.9,7.3 10,6.4 8.6,6.4 			
				"/>
			<polygon id="XMLID_4364_" class="st2" points="16.4,5 15.9,6.4 14.5,6.4 15.7,7.3 15.2,8.6 16.4,7.8 17.6,8.6 17.1,7.3 18.3,6.4 
				16.8,6.4 			"/>
			<polygon id="XMLID_4363_" class="st2" points="24.6,5 24.2,6.4 22.7,6.4 23.9,7.3 23.4,8.6 24.6,7.8 25.8,8.6 25.3,7.3 26.5,6.4 
				25.1,6.4 			"/>
			<polygon id="XMLID_4362_" class="st2" points="32.9,5 32.4,6.4 31,6.4 32.1,7.3 31.7,8.6 32.9,7.8 34,8.6 33.6,7.3 34.8,6.4 
				33.3,6.4 			"/>
			<polygon id="XMLID_4361_" class="st2" points="41.1,5 40.6,6.4 39.2,6.4 40.4,7.3 39.9,8.6 41.1,7.8 42.3,8.6 41.8,7.3 43,6.4 
				41.5,6.4 			"/>
			<polygon id="XMLID_4360_" class="st2" points="8.1,12 7.7,13.4 6.2,13.4 7.4,14.3 7,15.7 8.1,14.8 9.3,15.7 8.9,14.3 10,13.4 
				8.6,13.4 			"/>
			<polygon id="XMLID_4359_" class="st2" points="16.4,12 15.9,13.4 14.5,13.4 15.7,14.3 15.2,15.7 16.4,14.8 17.6,15.7 17.1,14.3 
				18.3,13.4 16.8,13.4 			"/>
			<polygon id="XMLID_4358_" class="st2" points="24.6,12 24.2,13.4 22.7,13.4 23.9,14.3 23.4,15.7 24.6,14.8 25.8,15.7 25.3,14.3 
				26.5,13.4 25.1,13.4 			"/>
			<polygon id="XMLID_4357_" class="st2" points="32.9,12 32.4,13.4 31,13.4 32.1,14.3 31.7,15.7 32.9,14.8 34,15.7 33.6,14.3 
				34.8,13.4 33.3,13.4 			"/>
			<polygon id="XMLID_4356_" class="st2" points="41.1,12 40.6,13.4 39.2,13.4 40.4,14.3 39.9,15.7 41.1,14.8 42.3,15.7 41.8,14.3 
				43,13.4 41.5,13.4 			"/>
			<polygon id="XMLID_4355_" class="st2" points="8.1,19 7.7,20.4 6.2,20.4 7.4,21.3 7,22.7 8.1,21.8 9.3,22.7 8.9,21.3 10,20.4 
				8.6,20.4 			"/>
			<polygon id="XMLID_4354_" class="st2" points="16.4,19 15.9,20.4 14.5,20.4 15.7,21.3 15.2,22.7 16.4,21.8 17.6,22.7 17.1,21.3 
				18.3,20.4 16.8,20.4 			"/>
			<polygon id="XMLID_4353_" class="st2" points="24.6,19 24.2,20.4 22.7,20.4 23.9,21.3 23.4,22.7 24.6,21.8 25.8,22.7 25.3,21.3 
				26.5,20.4 25.1,20.4 			"/>
			<polygon id="XMLID_4352_" class="st2" points="32.9,19 32.4,20.4 31,20.4 32.1,21.3 31.7,22.7 32.9,21.8 34,22.7 33.6,21.3 
				34.8,20.4 33.3,20.4 			"/>
			<polygon id="XMLID_4351_" class="st2" points="41.1,19 40.6,20.4 39.2,20.4 40.4,21.3 39.9,22.7 41.1,21.8 42.3,22.7 41.8,21.3 
				43,20.4 41.5,20.4 			"/>
			<polygon id="XMLID_4350_" class="st2" points="8.6,27.4 8.1,26 7.7,27.4 6.2,27.4 7.4,28.3 7,29.7 8.1,28.8 9.3,29.7 8.9,28.3 
				10,27.4 			"/>
			<polygon id="XMLID_4349_" class="st2" points="16.8,27.4 16.4,26 15.9,27.4 14.5,27.4 15.7,28.3 15.2,29.7 16.4,28.8 17.6,29.7 
				17.1,28.3 18.3,27.4 			"/>
			<polygon id="XMLID_4348_" class="st2" points="25.1,27.4 24.6,26 24.2,27.4 22.7,27.4 23.9,28.3 23.4,29.7 24.6,28.8 25.8,29.7 
				25.3,28.3 26.5,27.4 			"/>
			<polygon id="XMLID_4347_" class="st2" points="33.3,27.4 32.9,26 32.4,27.4 31,27.4 32.1,28.3 31.7,29.7 32.9,28.8 34,29.7 
				33.6,28.3 34.8,27.4 			"/>
			<polygon id="XMLID_4346_" class="st2" points="41.5,27.4 41.1,26 40.6,27.4 39.2,27.4 40.4,28.3 39.9,29.7 41.1,28.8 42.3,29.7 
				41.8,28.3 43,27.4 			"/>
		</g>
	</g>
</g>
</svg>
